/* XPM */
static char *cola_0[] = {
/* columns rows colors chars-per-pixel */
"87 89 128 2 ",
"   c white",
".  c #FFFFCC",
"X  c #FFFF99",
"o  c #FFCCFF",
"O  c #FFCC99",
"+  c #FF99CC",
"@  c #FF9999",
"#  c #FF9966",
"$  c #FF6699",
"%  c #FF6666",
"&  c #FF6633",
"*  c #FF3366",
"=  c #FF3333",
"-  c #FF3300",
";  c #FF0033",
":  c red",
">  c #CCFFFF",
",  c #CCFFCC",
"<  c #CCFF99",
"1  c #CCCCFF",
"2  c #CCCC99",
"3  c #CCCC66",
"4  c #CC9999",
"5  c #CC9966",
"6  c #CC6699",
"7  c #CC6666",
"8  c #CC6633",
"9  c #CC3366",
"0  c #CC3333",
"q  c #CC3300",
"w  c #CC0033",
"e  c #CC0000",
"r  c #99CCCC",
"t  c gray60",
"y  c #999966",
"u  c #999933",
"i  c #996699",
"p  c #996666",
"a  c #996633",
"s  c #993366",
"d  c #993333",
"f  c #993300",
"g  c #990033",
"h  c #990000",
"j  c #669999",
"k  c #669933",
"l  c gray40",
"z  c #666633",
"x  c None",
"c  c #663333",
"v  c #663300",
"b  c #660033",
"n  c #660000",
"m  c #336666",
"M  c #336633",
"N  c #336600",
"B  c #333366",
"V  c gray20",
"C  c #333300",
"Z  c #330033",
"A  c #330000",
"S  c #006633",
"D  c #003333",
"F  c #003300",
"G  c black",
"H  c #FFCC66",
"J  c #669966",
"K  c #99CC99",
"L  c #666600",
"P  c #CC9933",
"I  c #9999CC",
"U  c #000033",
"Y  c #99FFFF",
"T  c #99FFCC",
"R  c #99FF66",
"E  c #99CC66",
"W  c #339933",
"Q  c #006666",
"!  c #006600",
"~  c black",
"^  c black",
"/  c black",
"(  c black",
")  c black",
"_  c black",
"`  c black",
"'  c black",
"]  c black",
"[  c black",
"{  c black",
"}  c black",
"|  c black",
" . c black",
".. c black",
"X. c black",
"o. c black",
"O. c black",
"+. c black",
"@. c black",
"#. c black",
"$. c black",
"%. c black",
"&. c black",
"*. c black",
"=. c black",
"-. c black",
";. c black",
":. c black",
">. c black",
",. c black",
"<. c black",
"1. c black",
"2. c black",
"3. c black",
"4. c black",
"5. c black",
"6. c black",
"7. c black",
"8. c black",
"9. c black",
"0. c black",
"q. c black",
"w. c black",
"e. c black",
"r. c black",
"t. c black",
"y. c black",
"u. c black",
/* pixels */
"x x x x x x x x x x x x x x x x x x x x x x x x x x x x x x x x x x x x x x x x x x x x x x x x x x x x x x x x x x x x x x x x x x x x x x x x x x x x x x x x x x x x x x x ",
"x x x x x x x x x x x x x x x x x x x x x x x x x x x x x x x x x x x x x x x x x x x x x x x x x x x x x x x x x x x x x x x x x x x x x x x x x x x x x x x x x x x x x x x ",
"x x x x x x x x x x x x x x x x x x x x x x x x x x x x x x x x x x x x x x x x x x x x x x x x x x x x x x x x x x x x x x x x x x x x x x x x x x x x x x x x x x x x x x x ",
"x x x x x x x x x x x x x x x x x x x x x x x x x x x x x x x x x x x x x x x x x x x x x x x x x x x x x x x x x x x x x x x x x x x x x x x x x x x x x x x x x x x x x x x ",
"x x x x x x x x x x x x x x x x x x x x x x x x x x x x x x x x x x x x x x x x x x x x x x x x x x x x x x x x x x x x x x x x x x x x x x x x x x x x x x x x x x x x x x x ",
"x x x x x x x x x x x x x x x x x x x x x x x x x x x x x x x x x x x x x x x x x x x x x x x x x x x x x x x x x x x x x x x x x x x x x x x x x x x x x x x x x x x x x x x ",
"x x x x x x x x x x x x x x x x x x x x x x x x x x x x x x x x x x x x x = = = % x x x x x x x x x x x x x x x x x x x x x x x x x x x x x x x x x x x x x x x x x x x x x x ",
"x x x x x x x x x x x x x x x x x x x x x x x x x x x x x x x x x x x x 0 e = = 0 = = x x x x x x x x x x x x x x x x x x x x x x x x x x x x x x x x x x x x x x x x x x x x ",
"x x x x x x x x x x x x x x x x x x x x x x x x x x x x x x x x x x 0 h h e q 0 = q w : 0 0 0 0 x x x x x x x x x x x x x x x x x x x x x x x x x x x x x x x x x x x x x x x ",
"x x x x x x x x x x x x x x x x x x x x x x x x x x x x x % x % - : e e e e : : : : : : : - : : : : : 0 0 x x x x x x x x x x x x x x x x x x x x x x x x x x x x x x x x x x ",
"x x x x x x x x x x x x x x x x x x x x x x x x x x x x 0 = & = 0 : : : e : : = % # % % = 0 : : : : : : : : e x x x x x x x x x x x x x x x x x x x x x x x x x x x x x x x x ",
"x x x x x x x x x x x x x x x x x x x x x x x x x x x 0 e 0 0 = = e e e : % 4 2 @ @ # % = ; : e e e e : e : : : = x x x x x x x x x x x x x x x x x x x x x x x x x x x x x x ",
"x x x x x x x x x x x x x x x x x x x x x x x x x x x : e h e = e : = & @ . X O @ 7 0 0 e e e : = 0 : w : : : : : : x x x x x x x x x x x x x x x x x x x x x x x x x x x x x ",
"x x x x x x x x x x x x x x x x x x x x x x x x x x = e e e e e : = @ . .   . O % 0 e e e e 0 5 % # @ # = e : e : : : 0 x x x x x x x x x x x x x x x x x x x x x x x x x x x ",
"x x x x x x x x x x x x x x x x x x x x x x x x % = = = = e e e = @ . . . . @ = q : e e e e f y O 2 2 < 4 q : : : e : : 0 x x x x x x x x x x x x x x x x x x x x x x x x x x ",
"x x x x x x x x x x x x x x x x x x x x x x x = 8 = 0 = = e : = # . .   . 5 = e e e e e e : h z 5 3 y k u e : : e : : : : 0 x x x x x x x x x x x x x x x x x x x x x x x x x ",
"x x x x x x x x x x x x x x x x x x x x x x 0 0 8 7 0 0 e q * # O . . . % : e : e e e e e e h v 4 2 u F n : : e : : e : : : 0 x x x x x x x x x x x x x x x x x x x x x x x x ",
"x x x x x x x x x x x x x x x x x x x x x x 0 e e 0 0 q w = # . . . @ = e : : e : e e e e e h z 5 3 z G G h : : e : : e : : : x x x x x x x x x x x x x x x x x x x x x x x x ",
"x x x x x x x x x x x x x x x x x x x x x x 0 e h h h e 0 % O . . @ : e : e : : e e e e e e e a u k V G G e : : : e : : e : : : x x x x x x x x x x x x x x x x x x x x x x x ",
"x x x x x x x x x x x x x x x x x x x x x x e e h h e 0 & @ O . @ : e : : : : e : e e e e e e v 5 y C D n e : : e : : e : : e : 0 x x x x x x x x x x x x x x x x x x x x x x ",
"x x x x x x x x x x x x x x x x x x x x x 0 h h h h q = # O . @ = e : : e : e : e e e e e e e n 4 y C G f : : e : = e : : e : : : = x x x x x x x x x x x x x x x x x x x x x ",
"x x x x x x x x x x x x x x x x x x x & = 8 0 0 h h 0 % @ . O = e : e : : : : e : e e e e e e v 5 3 V G c : : : : e : : : : e : : : x x x x x x x x x x x x x x x x x x x x x ",
"x x x x x x x x x x x x x x x x x x 0 0 0 = % 0 0 0 = % O O % q : : : e : e : : e e e e e e e n 5 3 N G n : : e : : e : e : : : e : x x x x x x x x x x x x x x x x x x x x x ",
"x x x x x x x x x x x x x x x x x x h h h h 0 q 0 0 % @ . @ % : : : e : : : : e : e e e e e h v y 5 V G C : : : : e : : : : : e : : 0 x x x x x x x x x x x x x x x x x x x x ",
"x x x x x x x x x x x x x x x x x x h h n h h h e = # O O % q : e : : : e : e : e e e e e e h v 5 3 N G V e : : e : : e : e : : : : e x x x x x x x x x x x x x x x x x x x x ",
"x x x x x x x x x x x x x x x x x x d h h n h 0 = % @ O @ = : : : e : : : e : e : e e e e e h c 5 5 V G N 0 : : : e : : : : e : e : : 0 x x x x x x x x x x x x x x x x x x x ",
"x x x x x x x x x x x x x x x x x x h h h h h q = % O O % 0 : e : : : e : : : : e e e e e e h h 8 a A G V f : e : : : e : e : : : : : : x x x x x x x x x x x x x x x x x x x ",
"x x x x x x x x x x x x x x x x x x e 0 0 g h 0 & @ O @ = : : : e : e : : e : e : e e e e e h n d v A A A h : : : : e : : : : e : e : : d x x x x x x x x x x x x x x x x x x ",
"x x x x x x x x x x x x x x x x x 0 = 8 % q 0 0 % @ @ % q : e : : : : = e : : e : e e e e e n A f A A A A h : : e : : : e : e : : : : : e x x x x x x x x x x x x x x x x x x ",
"x x x x x x x x x x x x x x x x % % % % 7 0 e % # @ # = : : : e : q : : : e : : e e e e e h n n n n A G A n e : : e : : : : : e : e : : 0 x x x x x x x x x x x x x x x x x x ",
"x x x x x x x x x x x x x x x x 0 8 0 8 0 e 0 % % # = 0 : e : : : : e e : : : e : e e e e h n n e n A A A A h : : : e : e e : : : : e : e x x x x x x x x x x x x x x x x x x ",
"x x x x x x x x x x x x x x x x h h h 0 e q 0 % # % = : e : : e : e e : : : e : : e e e e n n n h n A A A A h : : e : : : : : e : e : : : c x x x x x x x x x x x x x x x x x ",
"x x x x x x x x x x x x x x x x d h h d 0 h & % % = e : : : e : e % @ 0 e : : e e e e e e n n h h h A A n A A h : : e e : e : : : : : : e d x x x x x x x x x x x x x x x x x ",
"x x x x x x x x x x x x x x x x 9 h h d q 0 0 % % = : e : e : = @     . 7 : : : : e = e h n n h e n A G A G G d = e = % e : : e e e : : : h x x x x x x x x x x x x x x x x x ",
"x x x x x x x x x x x x x x x x 8 e h h h 0 % % & 0 : : : e % .   4 @   @ e : e : e e e h n n n e n A A A V p , @ 4 . . @ e : e % % e = : h x x x x x x x x x x x x x x x x x ",
"x x x x x x x x x x x x x x x x d h h h h 0 & % = : : : e % .   4 = @   % e : : e : e e h n h h h n A G A 4 >     . 4 1   @ : 0 . @ % @ = h c x x x x x x x x x x x x x x x x ",
"x x x x x x x x x x x x x x x x 9 h h h d 0 & & = e : e = @ > . = e @ 7 : : e e : e e e n n n n n n A A t   t p . % e = . > @ % % % 4 % : e V x x x x x x x x x x x x x x x x ",
"x x x x x x x x x x x x x x x x 0 h h h e 0 = * = : e : 7   . 7 : 0 % % e : : = 7 = e e h c c n n V A l   t m d @ % : e % . . . 4 . @ e : e c x x x x x x x x x x x x x x x x ",
"x x x x x x x x x x x x x x x x 0 h h h e 0 & = q : : = . > @ : e @   . % e = .   @ e 0 7 p 7 d p p c ,   l l 4 4 = : : e % o >   . 0 : : h c x x x x x x x x x x x x x x x x ",
"x x x x x x x x x x x x x x x x h e h e f = = = ; e - @ > . 0 e %   @ @ 7 : @   . 4 0 7 4 5 6 p 4 d s   t V t , 4 - e : : @ , % % 0 : : : e c x x x x x x x x x x x x x x x x ",
"x x x x x x x x x x x x x x x 0 0 0 0 0 w e = = : : 7     4 : = . , & % % % > . @ 4 = 4 c s 7 c d c 4 . c G t , = : : : 7   # e : : e : e e n x x x x x x x x x x x x x x x x ",
"x x x x x x x x x x x x x x x = & % 0 q 0 e - = e : @ > , * - +   . @ , @ . . 7 @ & 6 t c 7 p n A d O t G G l p e : e : 7 . % % 0 e : : : h c x x x x x x x x x x x x x x x x ",
"x x x x x x x x x x x x x x 0 8 0 0 = 0 0 e : : : 0 . > . e % > . % 4   . > @ : e 0 . a c 4 c n n 6 4 c A l V G h % = e % 4 % @ % % 0 : : e n x x x x x x x x x x x x x x x x ",
"x x x x x x x x x x x x x x x d h f d 0 e e : : e %   > @ : @ > $ q @ % 4   % e 0 @ , g 7 p d c d @ p A p   j A 7   @ = @ @ % % .   @ : e h n x x x x x x x x x x x x x x x x ",
"x x x x x x x x x x x x x x x x h n h d h e : : : @ >   7 = , . 7 % @ : @ , - 0 @   4 - 4 d p b a 4 d c 4 2 i p , . % 7 . @ % % @ > 7 : : h c x x x x x x x x x x x x x x x x ",
"x x x x x x x x x x x x x x x x h h n h f e : e & . > . = = o > @ . 0 = , . = @   , @ 4 4 4 d n 7 4 c 5 t x l r   @ & @ o % 5 . @ O = : e n A x x x x x x x x x x x x x x x x ",
"x x x x x x x x x x x x x x x d h n h h g e : : % .   . = 0 . >   @ e - ,   , @ @ . > . @ p A c 6 7 d 4 p c l t @ @ .   4 0 . . , 4 : : e n V x x x x x x x x x x x x x x x x ",
"x x x x x x x x x x x x x x x d h h h h d 0 : e % . > @ e = .   . 0 : e 4   @ = e 4 @ 7 t c A d 5 p d 4 c l l 4 = # . . @ % . 4 @ @ * e e n c x x x x x x x x x x x x x x x x ",
"x x x x x x x x x x x x x x x d h d h h d 0 - : % ,   @ = e % @ = : e : : = e : = = : h A A n d 6 p d c c p l p & $ 7 @ 4 . 4 % @ . % : e n V x x x x x x x x x x x x x x x x ",
"x x x x x x x x x x x x x x x % & 8 0 0 f 9 = e % . > . = e e : e e : e = 7 @ , O 4 @ p n A n d 5 p n A p p p 4 , % = ,   >   ,   @ = - e A V x x x x x x x x x x x x x x x x ",
"x x x x x x x x x x x x x x x 0 % * 8 e d 8 = = : @   > % : e e : = 7 4 .       >   >   4 c A g 7 4 d d 4 A t   . 0 = >   .   . . 0 = = h A V x x x x x x x x x x x x x x x x ",
"x x x x x x x x x x x x x x x 0 q 0 0 d h 0 7 = e 7 . > . % = = % .   , @ % = @ . >     . 4 c n d 7 4 7 c G c 4 7 : = @ 7 % 7 = ; e - w n A V x x x x x x x x x x x x x x x x ",
"x x x x x x x x x x x x x x x x h d f h h 7 % = : : +   >   . .   @ 8 0 : e e : 7 @ @ 0 p y p n h d d c A A A V e : e : : e : e : : e h n A m x x x x x x x x x x x x x x x x ",
"x x x x x x x x x x x x x x x x d h h n h d 5 & e e = % @ . . @ = w : e : : : e : q : e n A n h h n n n n A A n e : : e : : e : e : e h n G x x x x x x x x x x x x x x x x x ",
"x x x x x x x x x x x x x x x x x d n n h 0 7 % = : e : 0 = e e : e : : : e : : e : : : n G A h h n n n n A A n : : : : e : : : : : e h A V x x x x x x x x x x x x x x x x x ",
"x x x x x x x x x x x x x x x x x d h n n g 8 7 = : : e : e : : e : : : e - ; e : : : : h A A n h n n n n A A h e : : e : : : e : : h n A x x x x x x x x x x x x x x x x x x ",
"x x x x x x x x x x x x x x x x x d h h h h 8 % & 0 : : : : : e : : e : : : e : : e ; - h A A h h n n n n A A h : : e : : e : : : e h A A x x x x x x x x x x x x x x x x x x ",
"x x x x x x x x x x x x x x x x x f h h 0 h d 7 = = e : e : : : e : : e : : : e : : : : g G A n h n n n n A A n : : : e : : e : e h h A D x x x x x x x x x x x x x x x x x x ",
"x x x x x x x x x x x x x x x x x w 0 & 0 0 h 0 = = = : : : e : : e : : : e : : : 0 : - h A A n h n n n n n A h : : : : e : : : e h A A V x x x x x x x x x x x x x x x x x x ",
"x x x x x x x x x x x x x x x x x 0 & % 0 e h f 0 = - e : e : : e : : : e : : = e : : : e A G n h n n n n n G h : e : e : : : : h h A G x x x x x x x x x x x x x x x x x x x ",
"x x x x x x x x x x x x x x x x x 0 0 0 f g h w d = = : : : : e : : e : : e : e : : e ; e A G n h n n h n n A h : : : : : e : e h n G V x x x x x x x x x x x x x x x x x x x ",
"x x x x x x x x x x x x x x x x x d h h h n h f d 0 : e : e : : e : : e : : : : e : : - e A G A h n n n n n G h : : e : : : e h n A V x x x x x x x x x x x x x x x x x x x x ",
"x x x x x x x x x x x x x x x x x x d n n n n h f 0 0 : : : e : : e : : e : e : : e : : h G G A n n n h n n A n e = : e : : h h n G x x x x x x x x x x x x x x x x x x x x x ",
"x x x x x x x x x x x x x x x x x x x h n n n n h d e : : e : : e : : e : : : : e : - ; h G G n h n n n n n A n e : e : : e h n G G x x x x x x x x x x x x x x x x x x x x x ",
"x x x x x x x x x x x x x x x x x x x x h h n h g q e e e : : e : : e : : e : 0 : ; : : h G G C b A n n n n A A h : : : e h f A G x x x x x x x x x x x x x x x x x x x x x x ",
"x x x x x x x x x x x x x x x x x x x x h h n h h d h e e e : : : : : e : : : : q : : : h G G c v A n n n n n A h : : e q h Z A V x x x x x x x x x x x x x x x x x x x x x x ",
"x x x x x x x x x x x x x x x x x x x x d h h f h q 0 d e e : 0 : e : : e : e : : e : e n G G v A A A n n A n A h : : e h n G V x x x x x x x x x x x x x x x x x x x x x x x ",
"x x x x x x x x x x x x x x x x x x x x d h 0 0 w h d q h e e e : : : e : : : : = : : e A G G A A A A A A A n n n w e h n G G x x x x x x x x x x x x x x x x x x x x x x x x ",
"x x x x x x x x x x x x x x x x x x x x 0 0 8 0 h h h 0 w e e e : e : : : e : e : e : e A G G G G G A n A G A A n e h n A G x x x x x x x x x x x x x x x x x x x x x x x x x ",
"x x x x x x x x x x x x x x x x x x x x x 0 0 h h h n h d q h e e : e : e : : : : : : e G G G G G G n n n A A C c h n A G x x x x x x x x x x x x x x x x x x x x x x x x x x ",
"x x x x x x x x x x x x x x x x x x x x x 0 h h n n n n h g e h e e e : : : e : e : : h C A A A A A n n n C G G v n A G x x x x x x x x x x x x x x x x x x x x x x x x x x x ",
"x x x x x x x x x x x x x x x x x x x x x x x d n n n n h h h d h e e e : e : : : : : e V M c a c v C V M D G n n A G x x x x x x x x x x x x x x x x x x x x x x x x x x x x ",
"x x x x x x x x x x x x x x x x x x x x x x x x h n n h n h h h h h e e e e : : : : : e n S M z M S D F F A n n G G x x x x x x x x x x x x x x x x x x x x x x x x x x x x x ",
"x x x x x x x x x x x x x x x x x x x x x x x x x n h h f h h h h d n h h e e e e e e : e n C G A A C n n n A G B x x x x x x x x x x x x x x x x x x x x x x x x x x x x x x ",
"x x x x x x x x x x x x x x x x x x x x x x x x x d h f g h n n n h n n c n h h e h h h e e h h n h n n A A V x x x x x x x x x x x x x x x x x x x x x x x x x x x x x x x x ",
"x x x x x x x x x x x x x x x x x x x x x x x x x x 9 0 d d h n n n n n h b C A n A n n A n n n n G A G G x x x x x x x x x x x x x x x x x x x x x x x x x x x x x x x x x x ",
"x x x x x x x x x x x x x x x x x x x x x x x x x x x x x x x c n n n n n n n n A V A A A A V A G V B x x x x x x x x x x x x x x x x x x x x x x x x x x x x x x x x x x x x ",
"x x x x x x x x x x x x x x x x x x x x x x x x x x x x x x x x d n h h n d n n n h h n d x x x x x x x x x x x x x x x x x x x x x x x x x x x x x x x x x x x x x x x x x x ",
"x x x x x x x x x x x x x x x x x x x x x x x x x x x x x x x x x x x x x x x x x d d x x x x x x x x x x x x x x x x x x x x x x x x x x x x x x x x x x x x x x x x x x x x ",
"x x x x x x x x x x x x x x x x x x x x x x x x x x x x x x x x x x x x x x x x x x x x x x x x x x x x x x x x x x x x x x x x x x x x x x x x x x x x x x x x x x x x x x x ",
"x x x x x x x x x x x x x x x x x x x x x x x x x x x x x x x x x x x x x x x x x x x x x x x x x x x x x x x x x x x x x x x x x x x x x x x x x x x x x x x x x x x x x x x ",
"x x x x x x x x x x x x x x x x x x x x x x x x x x x x x x x x x x x x x x x x x x x x x x x x x x x x x x x x x x x x x x x x x x x x x x x x x x x x x x x x x x x x x x x ",
"x x x x x x x x x x x x x x x x x x x x x x x x x x x x x x x x x x x x x x x x x x x x x x x x x x x x x x x x x x x x x x x x x x x x x x x x x x x x x x x x x x x x x x x ",
"x x x x x x x x x x x x x x x x x x x x x x x x x x x x x x x x x x x x x x x x x x x x x x x x x x x x x x x x x x x x x x x x x x x x x x x x x x x x x x x x x x x x x x x ",
"x x x x x x x x x x x x x x x x x x x x x x x x x x x x x x x x x x x x x x x x x x x x x x x x x x x x x x x x x x x x x x x x x x x x x x x x x x x x x x x x x x x x x x x ",
"x x x x x x x x x x x x x x x x x x x x x x x x x x x x x x x x x x x x x x x x x x x x x x x x x x x x x x x x x x x x x x x x x x x x x x x x x x x x x x x x x x x x x x x ",
"x x x x x x x x x x x x x x x x x x x x x x x x x x x x x x x x x x x x x x x x x x x x x x x x x x x x x x x x x x x x x x x x x x x x x x x x x x x x x x x x x x x x x x x ",
"x x x x x x x x x x x x x x x x x x x x x x x x x x x x x x x x x x x x x x x x x x x x x x x x x x x x x x x x x x x x x x x x x x x x x x x x x x x x x x x x x x x x x x x ",
"x x x x x x x x x x x x x x x x x x x x x x x x x x x x x x x x x x x x x x x x x x x x x x x x x x x x x x x x x x x x x x x x x x x x x x x x x x x x x x x x x x x x x x x "
};
