/* XPM */
static char *cola_2[] = {
/* columns rows colors chars-per-pixel */
"87 89 128 2 ",
"   c white",
".  c #FFFFCC",
"X  c #FFFF99",
"o  c #FFCCFF",
"O  c #FFCC99",
"+  c #FF99CC",
"@  c #FF9999",
"#  c #FF9966",
"$  c #FF6699",
"%  c #FF6666",
"&  c #FF6633",
"*  c #FF3366",
"=  c #FF3333",
"-  c #FF3300",
";  c #FF0033",
":  c red",
">  c #CCFFFF",
",  c #CCFFCC",
"<  c #CCFF99",
"1  c #CCCCFF",
"2  c #CCCC99",
"3  c #CCCC66",
"4  c #CC9999",
"5  c #CC9966",
"6  c #CC6699",
"7  c #CC6666",
"8  c #CC6633",
"9  c #CC3366",
"0  c #CC3333",
"q  c #CC3300",
"w  c #CC0033",
"e  c #CC0000",
"r  c #99CCCC",
"t  c gray60",
"y  c #999966",
"u  c #999933",
"i  c #996699",
"p  c #996666",
"a  c #996633",
"s  c #993366",
"d  c #993333",
"f  c #993300",
"g  c #990033",
"h  c #990000",
"j  c #669999",
"k  c #669933",
"l  c gray40",
"z  c #666633",
"x  c None",
"c  c #663333",
"v  c #663300",
"b  c #660033",
"n  c #660000",
"m  c #336666",
"M  c #336633",
"N  c #336600",
"B  c #333366",
"V  c gray20",
"C  c #333300",
"Z  c #330033",
"A  c #330000",
"S  c #006633",
"D  c #003333",
"F  c #003300",
"G  c black",
"H  c #FFCC66",
"J  c #669966",
"K  c #99CC99",
"L  c #666600",
"P  c #CC9933",
"I  c #9999CC",
"U  c #000033",
"Y  c #99FFFF",
"T  c #99FFCC",
"R  c #99FF66",
"E  c #99CC66",
"W  c #339933",
"Q  c #006666",
"!  c #006600",
"~  c black",
"^  c black",
"/  c black",
"(  c black",
")  c black",
"_  c black",
"`  c black",
"'  c black",
"]  c black",
"[  c black",
"{  c black",
"}  c black",
"|  c black",
" . c black",
".. c black",
"X. c black",
"o. c black",
"O. c black",
"+. c black",
"@. c black",
"#. c black",
"$. c black",
"%. c black",
"&. c black",
"*. c black",
"=. c black",
"-. c black",
";. c black",
":. c black",
">. c black",
",. c black",
"<. c black",
"1. c black",
"2. c black",
"3. c black",
"4. c black",
"5. c black",
"6. c black",
"7. c black",
"8. c black",
"9. c black",
"0. c black",
"q. c black",
"w. c black",
"e. c black",
"r. c black",
"t. c black",
"y. c black",
"u. c black",
/* pixels */
"x x x x x x x x x x x x x x x x x x x x x x x x x x x x x x x x x x x x x x x x x x x x x x x x x x x x x x x x x x x x x x x x x x x x x x x x x x x x x x x x x x x x x x x ",
"x x x x x x x x x x x x x x x x x x x x x x x x x x x x x x x x x x x x x x x x x x x x x x x x x x x x x x x x x x x x x x x x x x x x x x x x x x x x x x x x x x x x x x x ",
"x x x x x x x x x x x x x x x x x x x x x x x x x x x x x x x x x x x x x x x x x x x x x x x x x x x x x x x x x x x x x x x x x x x x x x x x x x x x x x x x x x x x x x x ",
"x x x x x x x x x x x x x x x x x x x x x x x x x x x x x x x x x x x x x x x x x x x x x x x x x x x x x x x x x x x x x x x x x x x x x x x x x x x x x x x x x x x x x x x ",
"x x x x x x x x x x x x x x x x x x x x x x x x x x x x x x x x x x x x x x x V c x x x V x x V C x x x x x x x x x x x x x x x x x x x x x x x x x x x x x x x x x x x x x x ",
"x x x x x x x x x x x x x x x x x x x x x x x x x x x x x x x x x x x x x x c C C V C C C V C V A V a x x x x x x x x x x x x x x x x x x x x x x x x x x x x x x x x x x x x ",
"x x x x x x x x x x x x x x x x x x x x x x x x x x x x x x x x x x x x x V C Z V A C Z V C A A V C V d - 9 x x x x x x x x x x x x x x x x x x x x x x x x x x x x x x x x x ",
"x x x x x x x x x x x x x x x x x x x x x x x x x x x x x x x x x x x V C C V V C C Z C C Z C V C A V C h 8 # x x x x x x x x x x x x x x x x x x x x x x x x x x x x x x x x ",
"x x x x x x x x x x x x x x x x x x x x x x x x x x x x x x x x x c V C V c c c V V A V A C A A C V A V C V V p y x x x x x x x x x x x x x x x x x x x x x x x x x x x x x x ",
"x x x x x x x x x x x x x x x x x x x x x x x x x x x x x x x z V C c c c c V c C V C V V c V V Z C C A V A C G C # : = % x x x x x x x x x x x x x x x x x x x x x x x x x x ",
"x x x x x x x x x x x x x x x x x x x x x x x x x x x x x x x v V c c z c c c V c c c c c V c c c c V C C A V A V 5 e 0 = 0 x x x x x x x x x x x x x x x x x x x x x x x x x ",
"x x x x x x x x x x x x x x x x x x x x x x x x x x x x x x x c c c z c c V C c c c c V c c V c V c V c V V C A C a 0 0 8 = 0 x x x x x x x x x x x x x x x x x x x x x x x x ",
"x x x x x x x x x x x x x x x x x x x x x x x x x x x x x x z z c z c V V V c c z z z a z z z c z c V c V v V V V V f ; 8 7 0 8 x x x x x x x x x x x x x x x x x x x x x x x ",
"x x x x x x x x x x x x x x x x x x x x x x x x x x x x x x c c c c c c C V c c z p 7 5 p p p a z z c c c V c v C Z C d % 8 0 w x x x x x x x x x x x x x x x x x x x x x x x ",
"x x x x x x x x x x x x x x x x x x x x x x x x x x x x x c c z c c V V V c z p 7 5 O # 5 p y p p p a z z c V c c C V z y 5 8 0 % x x x x x x x x x x x x x x x x x x x x x x ",
"x x x x x x x x x x x x x x x x x x x x x x x x x z z z c c z c c V C V c a 5 # 3 5 5 y y a p p p y p p p z z c c c C V V V % & % # x x x x x x x x x x x x x x x x x x x x x ",
"x x x x x x x x x x x x x x x x x x x x x x x x x V c c c z c V V C V c y 5 5 5 y p p p z p l z z p p u p a z z z c c C A z % = 0 = x x x x x x x x x x x x x x x x x x x x x ",
"x x x x x x x x x x x x x x x x x x x x x x x x x c z c c c V c C Z c y 5 5 y p p p p p p p y p p z l a p p p z c z c c V z & = 0 = 0 x x x x x x x x x x x x x x x x x x x x ",
"x x x x x x x x x x x x x x x x x x x x x x x x x c z c z c c V A z a 5 5 p p p y y y p y p p y p p p l z u p p p z z z c c 0 e 0 0 0 x x x x x x x x x x x x x x x x x x x x ",
"x x x x x x x x x x x x x x x x x x x x x x x x x c z c V c V C c p 5 5 p y p y p 5 7 y t 5 y p p u p a p z p p z p z c z V h e 0 8 0 e x x x x x x x x x x x x x x x x x x x ",
"x x x x x x x x x x x x x x x x x x x x x x x x z z c c c c V c z 5 y y p a y 5 4 4 4 4 @ 4 4 4 5 p p p p l z a p a p z c c V q e 0 7 0 0 x x x x x x x x x x x x x x x x x x ",
"x x x x x x x x x x x x x x x x x x x x x x x a c c z c V c C c y 5 5 p y 4 4 @ O O O 2 2 O 5 4 4 4 y y p p p z p p p a z z V d & = 8 = e x x x x x x x x x x x x x x x x x x ",
"x x x x x x x x x x x x x x x x x x x x x x x c c z c c c V V a 7 y 5 p 5 4 2 O O 2 5 5 5 4 5 5 5 O 4 y y p p p z a y p c z c V p 5 # = : 0 x x x x x x x x x x x x x x x x x ",
"x x x x x x x x x x x x x x x x x x x x x z c V z c c c c C c y y 5 p 5 4 2 @ 2 5 5 y y y 5 5 5 y y # 4 4 p y p p l p y p c z c C z 4 = = - x x x x x x x x x x x x x x x x x ",
"x x x x x x x x x x x x x x x x x x x x c c C c c c z c V c a y 5 p 5 4 2 O O @ y y t 7 t 5 y 4 5 5 4 5 5 5 p p a z p y y a z c V c 5 = & * & x x x x x x x x x x x x x x x x ",
"x x x x x x x x x x x x x x x x x x x x C c V C C c V c C z p 5 5 y 4 O O O O 5 y p 5 5 5 y y y y y y 5 4 4 y y p p a p 5 p p z c z 8 e 0 0 = x x x x x x x x x x x x x x x x ",
"x x x x x x x x x x x x x x x x x x x x c z c c c V c V c p 5 y 5 4 4 O H O # 5 p y t y y 7 y p p p p y y 5 4 y p l p p 5 y p z c z 7 e e f h 0 x x x x x x x x x x x x x x x ",
"x x x x x x x x x x x x x x x x x x x x z c c c z c c C z p 5 5 5 4 O O O H 4 y y y p y p y p y 5 y y p p y 5 4 y y p a y 5 p a z l 8 e d 0 h w x x x x x x x x x x x x x x x ",
"x x x x x x x x x x x x x x x x x x x x c z z z c c V V a y 5 y 4 O O O O @ 5 y p y y y p y p y t p p p y p y 5 y p p l p 5 y p c y # : 8 0 0 e x x x x x x x x x x x x x x x ",
"x x x x x x x x x x x x x x x x x x x x z c c z z c C c p 5 5 5 4 O H O H O 5 y y p t y y p y y 5 y y p y p p 5 4 y p a p p 5 a z p p w % 8 h : = x x x x x x x x x x x x x x ",
"x x x x x x x x x x x x x x x x x x x x c z z a c V V c y 5 5 4 H O O @ O # 4 p y y p y p y t p y p y p y p y y 4 y y y a p y p z z d : & 7 0 e : x x x x x x x x x x x x x x ",
"x x x x x x x x x x x x x x x x x x x z z c c z c c C z 5 5 5 5 O O # O # 4 5 y y p y y t p 5 y 4 y y p y p p p 5 5 t p l a p p z z a = = = 0 e : x x x x x x x x x x x x x x ",
"x x x x x x x x x x x x x x x x x x x c c z a c z V V a 5 4 5 O O # O 2 4 5 5 y y t p y p y y y p y p y y p l y y 4 y y p p y y a l a 5 % = 0 = = 0 x x x x x x x x x x x x x ",
"x x x x x x x x x x x x x x x x x x c z c c z l c C c l 5 5 4 O 5 4 # O # 4 y i y y y y y p t 5 y p y p y p p p y 5 t p y p p 5 p a l z 7 - = = q 0 x x x x x x x x x x x x x ",
"x x x x x x x x x x x x x x x x x z c z c z d z c V V p 5 4 # H O # 5 2 O 5 5 y y 5 y p t y y p y p y p y y l p p 4 5 t y a p y p a p a 7 e e e e 0 x x x x x x x x x x x x x ",
"x x x x x x x x x x x x x x x x x c a l z a l z c C c y 5 5 2 # 4 5 4 # 5 4 5 p y y p y y y p t y t y p y p y p y y 4 y p y p 5 p p p 5 e e h h h 0 x x x x x x x x x x x x x ",
"x x x x x x x x x x x x x x x x x z z a p l p c V V c y 5 4 # 5 5 @ 5 4 5 5 y y t y 4 y p 4 y y p y y p p y p p p y 5 t y p p y y a y % : q w f h 0 x x x x x x x x x x x x x ",
"x x x x x x x x x x x x x x x x x x c c c a p z c V c 5 5 3 4 4 5 5 2 5 4 5 t p y p y y y y y t y p t y p y y y p y 4 y p y p 5 y p y # : = 0 w h 0 x x x x x x x x x x x x x ",
"x x x x x x x x x x x x x x x x x x z c V c c c V c z 5 @ 5 5 5 4 5 5 4 5 5 y y 5 5 y t y y p y p y y y y p y p y y y 4 y y p p 5 a t & e % % f h d x x x x x x x x x x x x x ",
"x x x x x x x x x x x x x x x x x x c z c V c V C V p 4 3 5 O 4 5 5 4 5 y 4 y p t y p p p y t y t y p t p y y 5 p p 5 5 y p p y 5 p p 8 = % 7 d h 0 x x x x x x x x x x x x x ",
"x x x x x x x x x x x x x x x x x x p z z z z c c c a 5 5 4 4 5 4 2 5 5 4 5 4 y p y y p l p y y p y y 5 y p y 5 y y p t 5 y p 5 5 p z 0 - & 7 q h 0 x x x x x x x x x x x x x ",
"x x x x x x x x x x x x x x x x x x y p z d z c V c y y 5 5 4 5 5 @ 5 4 5 y y y y p y 5 4 p p y t p p y p p y p p y 5 y i y p y 5 p y 0 : = 0 h e x x x x x x x x x x x x x x ",
"x x x x x x x x x x x x x x x x x x p p z x z z V c p 4 5 4 5 5 4 5 4 5 t y t p t y y 4 3 O 5 p y y y p y p 5 y y p p y 5 y p y 5 a l a = = = w h 0 x x x x x x x x x x x x x ",
"x x x x x x x x x x x x x x x x x x p z c z z c V c y y 5 5 t 5 y 4 5 4 5 y 5 y p y 4 5 y y y y 4 t p y y p y p y p y 5 4 y p 5 5 y a l 8 0 = = e x x x x x x x x x x x x x x ",
"x x x x x x x x x x x x x x x x x x z a z c d c V c p y 5 4 5 y y 5 5 y 5 y 4 y p J y y p p 5 y 4 5 y y p y p y p p y 4 y p y 5 5 p p c z = q 0 0 x x x x x x x x x x x x x x ",
"x x x x x x x x x x x x x x x x x v c z c z l c C c p y y 5 4 y y 5 t y y y y p J i p 5 O @ 5 5 y y p y 4 y p p y p y y 4 y p 5 5 p a y 2 0 e e h x x x x x x x x x x x x x x ",
"x x x x x x x x x x x x x x x x x c c a c c c z c c p y y 4 5 5 p y 5 y 4 p y p y l y O 5 3 4 4 y p y p y 5 y y p p p 4 5 p y 5 y p y 2 & e h h h x x x x x x x x x x x x x x ",
"x x x x x x x x x x x x x x x x x x z z c z z c c z l y 4 5 5 p y p y 5 y y y t p y y 4 y 5 5 5 5 y y 5 y p y p y p y 5 4 y p 5 5 a 2 5 : e f h h x x x x x x x x x x x x x x ",
"x x x x x x x x x x x x x x x x x x x c z c c z c c z y 4 5 t p p p p p y p y y p y p y 5 t 5 t 5 4 5 p y 4 4 5 y p 5 4 y p 5 5 y p 5 7 : 0 0 e e x x x x x x x x x x x x x x ",
"x x x x x x x x x x x x x x x x x x x c c z c c c c l p y 4 5 y p y y y i y p t y p y p y y y 5 y y y p y 5 5 y p y y 4 5 y p 5 5 p y & e 0 7 0 h x x x x x x x x x x x x x x ",
"x x x x x x x x x x x x x x x x x x x z z c z z z c z y y 5 4 y y y p 5 y y y p y y p y y p y 4 y p y p y t 5 y 5 y 4 4 t p y 5 p y y 0 ; a 8 e e x x x x x x x x x x x x x x ",
"x x x x x x x x x x x x x x x x x x x x p p p p z c p p y 4 5 5 y p y y p y p y y i J p p y p y p y t y y 5 y p p 5 4 5 y p 5 5 p y y = q a 0 e d x x x x x x x x x x x x x x ",
"x x x x x x x x x x x x x x x x x x x x z p z l c z z p y 4 4 y p p y p y p t y p y p y y y y y y p 5 5 7 p p y y 4 4 5 y y 5 y y 5 y = w 0 0 h 0 x x x x x x x x x x x x x x ",
"x x x x x x x x x x x x x x x x x x x x a z c z a x l z y 5 4 4 y p y 4 y p p y t p y p y p p p y y y 4 y y p 5 5 4 5 t p 5 4 p 5 y p 0 = = = 0 0 x x x x x x x x x x x x x x ",
"x x x x x x x x x x x x x x x x x x x x c z c c z a p l p 5 y 4 y y p y y y p J p J p y p y y y p p y p y p y y 4 4 4 5 y # 5 y 4 y a a 0 = = 0 x x x x x x x x x x x x x x x ",
"x x x x x x x x x x x x x x x x x x x x a c z c c z z a l y 5 4 y p p y p p y p y p y y p y t p y y y 5 y 5 p 5 5 t 5 p 5 4 y 5 3 p y 4 = e e e x x x x x x x x x x x x x x x ",
"x x x x x x x x x x x x x x x x x x x x c z c c c z p l z p 5 4 y p y p l y p y t y i y y t 5 y y i 5 p p p y 4 4 4 5 y 4 5 y 2 4 y 2 # e h h h x x x x x x x x x x x x x x x ",
"x x x x x x x x x x x x x x x x x x x x x c z c z z c z p l y 5 4 y l y y t y y p J y i y p y p y y y y y p y y 4 2 y 5 O 5 4 2 y p 5 - h h h h x x x x x x x x x x x x x x x ",
"x x x x x x x x x x x x x x x x x x x x x x z l p p p z p z y 4 5 y p y p y p y y i y y p y y p p p y p p y 4 4 4 4 5 4 2 3 2 2 a y # e h h h h x x x x x x x x x x x x x x x ",
"x x x x x x x x x x x x x x x x x x x x x x x z p p z p p z p 5 5 4 y y y y t y y y y p y y p y p y p p y 4 4 4 4 y 5 O @ 2 O y a t # h h d 0 0 x x x x x x x x x x x x x x x ",
"x x x x x x x x x x x x x x x x x x x x x x x z z z l a z l z y 4 5 y p y p y y i y t y l p y y p y p y y 4 4 4 5 5 O 2 2 X 4 y p 3 8 h 8 8 e d x x x x x x x x x x x x x x x ",
"x x x x x x x x x x x x x x x x x x x x x x x x c c z x z a l z 5 4 5 y p y 4 y y y y p t J p y p y p p t 4 2 5 4 2 O O X 2 y p y 7 = g 7 8 h x x x x x x x x x x x x x x x x ",
"x x x x x x x x x x x x x x x x x x x x x x x x z z c z x c a l J 5 4 4 y y y y 5 y y y p y p y y t 4 t 4 4 4 4 3 @ 2 X 2 5 y p y 5 e 8 p 0 e x x x x x x x x x x x x x x x x ",
"x x x x x x x x x x x x x x x x x x x x x x x x a c z c z c z p z y 5 5 4 p p t 5 t y y y y y t 4 4 5 4 2 4 5 5 4 O X O 2 y y p y 5 e 0 0 e d x x x x x x x x x x x x x x x x ",
"x x x x x x x x x x x x x x x x x x x x x x x x z c z c c z c l p l y 4 5 4 4 y y y y 4 t 5 4 5 t 4 2 4 4 5 4 2 O O . 2 y y p p y 5 e e f h x x x x x x x x x x x x x x x x x ",
"x x x x x x x x x x x x x x x x x x x x x x x x c z z c z c z c z p y 5 4 y 4 4 4 7 y p 4 y t 4 4 4 2 4 5 t 5 O O X 2 5 t y p z l O 0 h e 0 x x x x x x x x x x x x x x x x x ",
"x x x x x x x x x x x x x x x x x x x x x x x x x c p z p l c z c z p y 5 5 y 5 4 4 4 4 4 4 4 4 2 4 5 y 5 4 2 O . 2 5 t y p y 7 a 0 h e h x x x x x x x x x x x x x x x x x x ",
"x x x x x x x x x x x x x x x x x x x x x x x x x x z c z z z c c z z y t 4 5 4 y 5 5 4 2 4 5 4 5 5 y 5 4 O X . 2 5 t y 5 l a d h h h h x x x x x x x x x x x x x x x x x x x ",
"x x x x x x x x x x x x x x x x x x x x x x x x x x x c c c l c z x z l y 5 4 5 5 t y 5 y 5 t 5 y t 4 4 O X . 2 5 y t y p 5 0 h h h h d x x x x x x x x x x x x x x x x x x x ",
"x x x x x x x x x x x x x x x x x x x x x x x x x x x x c c z z c c c a l y y 2 5 5 4 y 4 y 5 4 5 4 O O . O 2 y y t 5 z y y h f h h d x x x x x x x x x x x x x x x x x x x x ",
"x x x x x x x x x x x x x x x x x x x x x x x x x x x x x c c z a l z c z a p y 4 2 H 4 5 4 4 2 O O . X X 2 5 y 4 y p c 4 8 h 0 h h x x x x x x x x x x x x x x x x x x x x x ",
"x x x x x x x x x x x x x x x x x x x x x x x x x x x x x x z c z l a x z l p p y y 4 O O O X O X . X O 4 4 y t y a c l 3 0 d h h x x x x x x x x x x x x x x x x x x x x x x ",
"x x x x x x x x x x x x x x x x x x x x x x x x x x x x x x d z c a z z c a z p y y y 2 X . . X . X O 4 5 y t p a c V z 5 h h h x x x x x x x x x x x x x x x x x x x x x x x ",
"x x x x x x x x x x x x x x x x x x x x x x x x x x x x x x z c z c c a l c l a p y 5 y 2 X O O 4 # 5 y t y p z c V c z p q h 0 x x x x x x x x x x x x x x x x x x x x x x x ",
"x x x x x x x x x x x x x x x x x x x x x x x x x x x x x x x c c z c z c a z l a p y 5 5 4 4 5 5 t t y p a z c V c f p 7 h 0 x x x x x x x x x x x x x x x x x x x x x x x x ",
"x x x x x x x x x x x x x x x x x x x x x x x x x x x x x x x z V V V c z c z d z z p p y y y y y y a z z c c V k 7 h h h d x x x x x x x x x x x x x x x x x x x x x x x x x ",
"x x x x x x x x x x x x x x x x x x x x x x x x x x x x x x x x x x c V z z z z c z z z p a p a z c z c c z c z 5 h h h d x x x x x x x x x x x x x x x x x x x x x x x x x x ",
"x x x x x x x x x x x x x x x x x x x x x x x x x x x x x x x x x x x c V c x z c c c z c z c c z c c z c c V a d h h d x x x x x x x x x x x x x x x x x x x x x x x x x x x ",
"x x x x x x x x x x x x x x x x x x x x x x x x x x x x x x x x x x x x c z c c z c V c z c c z c V V V V M c c h h d x x x x x x x x x x x x x x x x x x x x x x x x x x x x ",
"x x x x x x x x x x x x x x x x x x x x x x x x x x x x x x x x x x x x x z c V V V C V V z z c V C V C V c V d x x x x x x x x x x x x x x x x x x x x x x x x x x x x x x x ",
"x x x x x x x x x x x x x x x x x x x x x x x x x x x x x x x x x x x x x x V V V V V V V c c z V V b d x x x x x x x x x x x x x x x x x x x x x x x x x x x x x x x x x x x ",
"x x x x x x x x x x x x x x x x x x x x x x x x x x x x x x x x x x x x x x x x x x x x x V V c c d x x x x x x x x x x x x x x x x x x x x x x x x x x x x x x x x x x x x x ",
"x x x x x x x x x x x x x x x x x x x x x x x x x x x x x x x x x x x x x x x x x x x x x x V z x x x x x x x x x x x x x x x x x x x x x x x x x x x x x x x x x x x x x x x ",
"x x x x x x x x x x x x x x x x x x x x x x x x x x x x x x x x x x x x x x x x x x x x x x x x x x x x x x x x x x x x x x x x x x x x x x x x x x x x x x x x x x x x x x x ",
"x x x x x x x x x x x x x x x x x x x x x x x x x x x x x x x x x x x x x x x x x x x x x x x x x x x x x x x x x x x x x x x x x x x x x x x x x x x x x x x x x x x x x x x ",
"x x x x x x x x x x x x x x x x x x x x x x x x x x x x x x x x x x x x x x x x x x x x x x x x x x x x x x x x x x x x x x x x x x x x x x x x x x x x x x x x x x x x x x x ",
"x x x x x x x x x x x x x x x x x x x x x x x x x x x x x x x x x x x x x x x x x x x x x x x x x x x x x x x x x x x x x x x x x x x x x x x x x x x x x x x x x x x x x x x ",
"x x x x x x x x x x x x x x x x x x x x x x x x x x x x x x x x x x x x x x x x x x x x x x x x x x x x x x x x x x x x x x x x x x x x x x x x x x x x x x x x x x x x x x x ",
"x x x x x x x x x x x x x x x x x x x x x x x x x x x x x x x x x x x x x x x x x x x x x x x x x x x x x x x x x x x x x x x x x x x x x x x x x x x x x x x x x x x x x x x "
};
