/* XPM */
static char *cola_3[] = {
/* columns rows colors chars-per-pixel */
"87 89 128 2 ",
"   c white",
".  c #FFFFCC",
"X  c #FFFF99",
"o  c #FFCCFF",
"O  c #FFCC99",
"+  c #FF99CC",
"@  c #FF9999",
"#  c #FF9966",
"$  c #FF6699",
"%  c #FF6666",
"&  c #FF6633",
"*  c #FF3366",
"=  c #FF3333",
"-  c #FF3300",
";  c #FF0033",
":  c red",
">  c #CCFFFF",
",  c #CCFFCC",
"<  c #CCFF99",
"1  c #CCCCFF",
"2  c #CCCC99",
"3  c #CCCC66",
"4  c #CC9999",
"5  c #CC9966",
"6  c #CC6699",
"7  c #CC6666",
"8  c #CC6633",
"9  c #CC3366",
"0  c #CC3333",
"q  c #CC3300",
"w  c #CC0033",
"e  c #CC0000",
"r  c #99CCCC",
"t  c gray60",
"y  c #999966",
"u  c #999933",
"i  c #996699",
"p  c #996666",
"a  c #996633",
"s  c #993366",
"d  c #993333",
"f  c #993300",
"g  c #990033",
"h  c #990000",
"j  c #669999",
"k  c #669933",
"l  c gray40",
"z  c #666633",
"x  c None",
"c  c #663333",
"v  c #663300",
"b  c #660033",
"n  c #660000",
"m  c #336666",
"M  c #336633",
"N  c #336600",
"B  c #333366",
"V  c gray20",
"C  c #333300",
"Z  c #330033",
"A  c #330000",
"S  c #006633",
"D  c #003333",
"F  c #003300",
"G  c black",
"H  c #FFCC66",
"J  c #669966",
"K  c #99CC99",
"L  c #666600",
"P  c #CC9933",
"I  c #9999CC",
"U  c #000033",
"Y  c #99FFFF",
"T  c #99FFCC",
"R  c #99FF66",
"E  c #99CC66",
"W  c #339933",
"Q  c #006666",
"!  c #006600",
"~  c black",
"^  c black",
"/  c black",
"(  c black",
")  c black",
"_  c black",
"`  c black",
"'  c black",
"]  c black",
"[  c black",
"{  c black",
"}  c black",
"|  c black",
" . c black",
".. c black",
"X. c black",
"o. c black",
"O. c black",
"+. c black",
"@. c black",
"#. c black",
"$. c black",
"%. c black",
"&. c black",
"*. c black",
"=. c black",
"-. c black",
";. c black",
":. c black",
">. c black",
",. c black",
"<. c black",
"1. c black",
"2. c black",
"3. c black",
"4. c black",
"5. c black",
"6. c black",
"7. c black",
"8. c black",
"9. c black",
"0. c black",
"q. c black",
"w. c black",
"e. c black",
"r. c black",
"t. c black",
"y. c black",
"u. c black",
/* pixels */
"x x x x x x x x x x x x x x x x x x x x x x x x x x x x x x x x x x x x x x x x x x x x x x x x x x x x x x x x x x x x x x x x x x x x x x x x x x x x x x x x x x x x x x x ",
"x x x x x x x x x x x x x x x x x x x x x x x x x x x x x x x x x x x x x x x x x x x x x x x x x x x x x x x x x x x x x x x x x x x x x x x x x x x x x x x x x x x x x x x ",
"x x x x x x x x x x x x x x x x x x x x x x x x x x x x x x x x x x x x x x x x x x x x x x x x x x x x x x x x x x x x x x x x x x x x x x x x x x x x x x x x x x x x x x x ",
"x x x x x x x x x x x x x x x x x x x x x x x x x x x x x x x x x x x x x x x x x x x x x x x x x x x x x x x x x x x x x x x x x x x x x x x x x x x x x x x x x x x x x x x ",
"x x x x x x x x x x x x x x x x x x x x x x x x x x x x x x x x x x x x x V C c x x x x V V x x V A C c x x x x x x x x x x x x x x x x x x x x x x x x x x x x x x x x x x x ",
"x x x x x x x x x x x x x x x x x x x x x x x x x x x x x x x x x x x V V A C A C C A C A C C C A V A C c x x x x x x x x x x x x x x x x x x x x x x x x x x x x x x x x x x ",
"x x x x x x x x x x x x x x x x x x x x x x x x x x x x x x x x x c V C C C Z F A V C V C V C Z C A V A C V x x x x x x x x x x x x x x x x x x x x x x x x x x x x x x x x x ",
"x x x x x x x x x x x x x x x x x x x x x x x x x x x x x x x A A V C C Z V A C Z C A A V A A C G V A C V C C c x x x x x x x x x x x x x x x x x x x x x x x x x x x x x x x ",
"x x x x x x x x x x x x x x x x x x x x x x x x x x x x c C C V V C Z V A A C Z G A V C A C Z A C A C Z C Z C A C A V z z G z x x x x x x x x x x x x x x x x x x x x x x x x ",
"x x x x x x x x x x x x x x x x x x x x x x x x x x A C A V A v V C C A C A V C V C V V V V C V V V A C A C A V A C A G G A V x x x x x x x x x x x x x x x x x x x x x x x x ",
"x x x x x x x x x x x x x x x x x x x x x x x x x c A C Z C V A C Z A V V V c c c c c c c c c c c c V c V V C A C A A C A G c x x x x x x x x x x x x x x x x x x x x x x x x ",
"x x x x x x x x x x x x x x x x x x x x x x x x x v V V A C A A V v V c c c V z c V c V V V c V V V z c V c V V Z C V A A C v x x x x x x x x x x x x x x x x x x x x x x x x ",
"x x x x x x x x x x x x x x x x x x x x x x x x V c C C A C V V c V c V c V c z a z a z a z c z c c c V c V c c c V C V C Z C C x x x x x x x x x x x x x x x x x x x x x x x ",
"x x x x x x x x x x x x x x x x x x x x x x x c C V A V C c c c c V c z c z c p 5 7 4 # p p p p a p a z c c V c C c c c V C V A G x x x x x x x x x x x x x x x x x x x x x x ",
"x x x x x x x x x x x x x x x x x x x x x x V v c C C V c c z V c c z a p 7 5 O @ O O H # 5 y y y y p p p a a z z c c V c c V C C A C x x x z x x x x x x x x x x x x x x x x ",
"x x x x x x x x x x x x x x x x x V z z C C v V C V c c z c c z a p 5 # O H O # 3 5 5 y p p a p l p y y y y p p p z c z c c c c C Z C A C A G x x x x x x x x x x x x x x x x ",
"x x x x x x x x x x x x x x x x c A F A A V A V v c z c c z z p p # O O H 5 y p l l z z z z l a z z z p p p y a p a l z c z c z c C C Z C A C x x x x x x x x x x x x x x x x ",
"x x x x x x x x x x x x x x x x z A A V C A V c c l c z z p p 5 # H 5 u z z l p p p p p p p p p p p p z z z p y y p a p z c c c z c c C A V c x x x x x x x x x x x x x x x x ",
"x x x x x x x x x x x x x x x x x c V C V C c z z c c l a p 5 # y p z l p p p y y y p p p p p p p p p p p p z c z y y p p z z z c l c c C V v x x x x x x x x x x x x x x x x ",
"x x x x x x x x x x x x x x x x L c v A C c c l c z l a p 5 u p z z p p a p y 7 5 p y t y t y y y y p a p a p p l z a y y p a x z c z c C c C C x x x x x x x x x x x x x x x ",
"x x x x x x x x x x x x x x x c C c C V c l l c z p p 5 5 p z p p p p p y 4 4 4 2 @ 4 O O O O @ 4 4 y y p p p a p l c z p y p a l z x l c c C A C x x x x x x x x x x x x x x ",
"x x x x x x x x x x x x x x c c V V v c l a z p p p 5 5 a l p p p p y 4 @ 2 O X O O 2 @ O 2 O 2 5 4 @ 4 t y p p a p p z z p y p a p z z l c c C A x x x x x x x x x x x x x x ",
"x x x x x x x x x x x x x z v V v C c z p x z a p 5 5 p z p p a y 4 @ 2 2 O X O 2 4 5 y 5 4 5 5 5 5 2 O O 4 t y p a p p p z a p p z p z p l c V A C z x x x x x x x x x x x x ",
"x x x x x x x x x x z x V v V C V c c p l z p y 5 5 p a p p p y 4 4 2 2 O O 4 y 5 y y 5 y y 5 5 5 y y 5 5 O O 4 t y p p p l z z y p p z l p z c c V A C C C x x x x x x x x x ",
"x x x x x x x x x C A A C V V v c c p l a p p y 5 p z p y p 5 4 O 2 O O O @ y p y p p y i 5 y p 4 5 5 p 5 5 5 O @ 4 p y a p l z p y a p p z p z c C V C A V x x x x x x x x x ",
"x x x x x x x x x c C C c v V c C l y p l a y 5 p z p p p 5 2 O O O O O O H y p y 4 5 5 5 4 5 y y y 4 y 5 y y 5 3 4 5 y p a p p z p y a l p l p c c c V v x x x x x x x x x x ",
"x x x x x x x x x x b C c c v c z p p a p p 5 5 p p p y 4 O 4 O O O O H 5 y p p y y 4 y y y y p p p y p p p y p y 5 O 5 t p p p p z p p p a p p z c v c c x x x x x x x x x x ",
"x x x x x x x x x a z c c V c c p t y p p y 5 a p y p 5 4 2 O O O H H @ 5 p p J y p y y p p y p y y 5 y p l p y p p 5 5 4 y y p p p a y y z p l p c V z c x x x x x x x x x x ",
"x x x x x x x x x c z a V v z z t y p p y 5 p p y p y 4 O O O O O O @ # 5 y y p y y y p p y p p y t p y p l p y p p J 4 5 t p p y p p p p p p p y l v c C z x x x x x x x x x ",
"x x x x x x x x x c c z c c c p 4 p y y 5 5 p y p y 4 5 O O H H O O O O 5 p y y p y p y t p y y p 5 5 4 y p y p y p p y 4 5 t y p y p a y y a p p p z c C C x x x x x x x x x ",
"x x x x x x x x x L c c C c z t 4 y p 4 5 y p y p 5 4 O O O O @ # O # 4 y y p y p y 4 y p y p 5 y p y y p y p y y y p y 5 4 5 t y p y p p y p y p y z c c A x x x x x x x x x ",
"x x x x x x x x v c z c c z p 4 y 5 y 4 5 p y y 5 5 O O O O @ O O 5 O 5 5 p y p t y y p y p y y t 5 t p y p p y p p l p y 4 5 5 i y p y p y y p y p p z c C C x x x x x x x x ",
"x x x x x x x z c z c C z a y 4 t y 4 5 y y 4 7 4 O O H O H O O 5 @ 5 5 y y y y y p y y y y t p 5 y y 5 y y y y y p l p z y 4 5 t y p y p y 7 p p y p z c c C V x x x x x x x ",
"x x x x x x z c v V c c c a t 4 5 y 4 t p t 5 y 4 O H 4 5 5 # O O 5 4 y p t y t y y p y p y p 4 5 p p y p p p y p p l p l y 5 5 4 y p y p y y y p y t a c c v v C c x x x x x ",
"x x x x x x C V C V v c z p 4 4 y t 5 5 y 4 t 5 H O O # # 4 5 @ O O 4 5 y y p y 5 y y p t y y y t y p y p y p y y p l p p p 4 t 5 t p y p y 7 y p p y p z c V c V c x x x x x ",
"x x x x x C v c c d z c a p 2 4 y 5 4 y t 4 y 5 @ 5 # 5 2 # 5 5 H 5 5 5 5 p y 5 y y p y y p t y p y y t y y y p y y p p y l y 5 5 4 y p y p y 5 p y t p z c v c c x x x x x x ",
"x x x x x c c v z a c c a y 4 4 y 4 y 5 t y 4 5 H 5 4 5 # 4 4 5 4 5 5 y y p y i y 4 y y y 5 5 y t y i y y i p l y p y p p l p 4 4 y 4 y p y p y y p 5 y a c c z x x x x x x x ",
"x x x x x x c c c z v z p 4 2 4 y 4 5 t 4 t 5 5 @ 5 5 5 5 5 4 5 4 5 4 y p y y y p y y p t y y y p y y p 5 y y p p y p y y y y 5 4 y t p y p y p 5 p y t z c z a x x x x x x x ",
"x x x x x x x z z c c a y 4 4 5 4 5 4 y 4 4 t 5 4 3 4 5 4 5 5 4 5 5 5 5 t y 5 4 5 y y t y y p y p y p y y 5 y y y 5 5 p p p p y y 5 4 y p y p y 5 y p y p z c a x x x x x x x ",
"x x x x x x x z p z c a 5 4 2 4 4 4 4 y 4 t 5 5 O 4 5 5 4 3 4 5 5 t 5 t y p y y y y p z y i y t y i y y i y t p p p y 5 y y p p y 5 4 t p y p 5 5 p y 4 p d z v x x x x x x x ",
"x x x x x x x a a c c y y 4 2 4 5 4 y 4 4 4 y 4 2 # 4 4 5 @ 5 4 5 5 4 5 5 p y i y p p p z z p y 5 y y p y y 5 y y y p y 5 5 y y p 5 y y y p y y 5 y 5 t y z c c x x x x x x x ",
"x x x x x x x z a z c 5 5 2 4 4 4 4 5 t 4 4 4 5 4 y 5 O 5 4 5 5 4 y y t y y y y p y y @ 4 p p p y t y p p p y p l p y 5 p p y 5 y y 6 y p t 7 y 4 p p 4 p a c C z x x x x x x ",
"x x x x x x x d z c c 5 @ , 2 5 2 4 y 4 2 4 5 t 4 5 5 4 5 2 5 t y 4 y p t y p t y p 5 O O X X 5 p p t y l y p y p p 5 y y y p p 5 y 5 4 y y y 5 y p y 4 y z z c c x x x x x x ",
"x x x x x x L z c c c 5 O 2 O 4 4 5 4 4 t 4 y 4 5 y 4 y 5 # 4 5 4 5 5 y 5 y l y y y O 5 k p y p y t 5 4 y p y y p l p y p y p p t 5 4 t p y p 5 4 y p t 5 a c c V V x x x x x ",
"x x x x x x V C c v z 5 H O 4 4 2 4 y 4 4 4 4 5 4 y p y 5 2 5 y 5 y y 5 t y p l i y y p l p y 7 y 4 4 y 5 y y p y y y p y p p p y 5 t 5 y i 5 5 5 y 5 4 5 p z d z v c x x x x ",
"x x x x x v v V c z v p O O 2 4 5 4 5 t 2 4 y 4 5 y y p y 4 y p t 5 y y y p j y l p p 4 O O @ 5 5 y y y y 7 y 5 t p y p p y p p p y 5 t y y 5 y 4 5 y 4 5 a z c c C c x x x x ",
"x x x x x c c c a a c u O O O 4 2 4 5 4 4 4 4 5 4 5 5 y p 5 5 y 5 y p y y p l p J p O X 3 5 H O 4 5 y p p y p y 5 y 5 y y p z p y 5 5 4 y p 5 5 5 y y 4 5 a c z c x x x x x x ",
"x x x x x x c c z a c p X . O 2 4 4 4 t 4 2 5 4 5 y p p p y y y 4 p y t p y y y p y 3 4 p y 4 5 5 y 5 p y 4 y y p y p 5 y p p p y 5 4 5 p y 5 @ 4 4 y 4 5 a z z x x x x x x x ",
"x x x x x x x c V z c a X . O 4 4 2 5 4 4 4 4 5 4 p z l p p p p y y y 5 y t p l t p p y 5 y 5 5 t 5 4 5 5 y y 5 y t 4 4 5 y p y 5 4 4 y t p # 5 5 y 5 4 y z a 7 x x x x x x x ",
"x x x x x x x x C c z c 5 . . O O 4 4 5 2 4 5 t 5 y p p y 5 y p y i p y y y y p y y p y y p t y 5 4 y 4 y p p p y 5 @ 5 y p p p 5 4 t 5 p 5 O 4 5 t 4 4 y d a # x x x x x x x ",
"x x x x x x x x z V z c 5 X . O 4 2 2 4 t 2 4 5 4 4 y y y y y 5 5 y y p p t p y y p y p p y p y 5 y y p y y p y 4 5 5 5 y y y y 4 5 4 y y 5 H O 4 5 4 5 p z a 8 x x x x x x x ",
"x x x x x x x x x V a a a O . O 4 O 4 5 4 4 2 4 2 5 y p y p p p y y p y y p y i l J l p y y y p y y p y y p y y y y p y p p 5 4 4 4 5 y p @ O @ 5 y 4 4 a z c a x x x x x x x ",
"x x x x x x x x x c a a z y O . 2 @ 2 4 t 4 4 4 5 4 y p p y y y p p l p t y y y y p y y y p y p y y y p y 4 5 4 p y p p p y y 4 4 5 t p 5 O O H 4 y 4 y a c v V x x x x x x x ",
"x x x x x x x x x x a c c a 2 . O 4 2 4 5 t 4 2 4 4 y p p y p 4 5 y y l y y p l y y p y p y p l y i y p y 5 5 y p p y 5 y 7 4 2 5 4 y p 5 X @ 4 y 4 4 y a c c v x x x x x x x ",
"x x x x x x x x x z c c c z 5 . O O O 4 t 5 5 4 5 4 4 y y p y y t p p y p l y y l p t l y p y y p y y p p p y 5 y y p y 5 5 4 4 4 5 p y O H O @ y 5 4 p z z z c A x x x x x x ",
"x x x x x x x x x c z a z c u 2 . O O 2 4 5 4 4 4 4 4 y p l p y y l y y p y y p y y p y p y 5 i y y p y 5 t 5 y p p 5 p y 4 4 5 4 y p 5 O @ O 5 y 4 y z d c c c v x x x x x x ",
"x x x x x x x x x a c a l v c y . O O O 4 4 5 y 4 5 2 y p y y p l p l p y t p t y i y y y t y 5 y p 5 y y y p y p y p y 5 4 2 4 5 y p O O O O y 4 4 y a z c c c c x x x x x x ",
"x x x x x x x x x x c c z c z a 2 . O 4 2 4 5 4 y 4 4 5 y l p J p y t y t p y p J y p i y p y t p y p t 5 5 p p y p y p t 4 2 4 y p 5 X O O 2 5 4 y p c c V z x x x x x x x x ",
"x x x x x x x x x x x x c V c a y , O O 2 4 5 5 4 5 5 4 y y l p y y y J p y J y p j y y y y p y p p y p y y y p y p 4 4 4 2 4 5 p 5 O O O O y y 4 y a z z V x x x x x x x x x ",
"x x x x x x x x x x x x x V C c p 4 O O O 2 4 4 5 y 4 5 4 7 y y y p y p y y p y t y y y p y p y y y l p p p l p p 4 t 4 2 4 5 p y O X O X 4 p 4 t p a z c x x x x x x x x x x ",
"x x x x x x x x x x x x x x V V z y 2 4 O O 4 5 5 4 y 5 4 y y p y y y t y y y t y y i y l l J p y p p y l l p y 5 4 4 2 4 5 y p 4 X O O 2 p 5 t y z c p a x x x x x x x x x x ",
"x x x x x x x x x x x x x x x C a a t 2 @ O O t 5 5 5 y 5 4 4 y p y y 5 5 y y y t y y p t y p y p y l y y p l t 4 2 4 2 4 y p 5 O O O O 5 y 4 y a c z a x x x x x x x x x x x ",
"x x x x x x x x x x x x x x x l a z a 4 2 O 4 2 t 4 4 5 t 5 5 4 y p p y t 5 5 5 y p y y l y p y p y 4 5 4 y 4 4 4 2 4 5 y p 5 O O O O t 5 4 t p c z c z x x x x x x x x x x x ",
"x x x x x x x x x x x x x x x x z c c y 2 4 2 @ 2 4 5 4 5 y t 5 4 4 y p y y y t y y y y y p y y y 4 t 4 t 4 4 4 2 4 4 y p y O O O O 4 5 4 4 y a z c c c x x x x x x x x x x x ",
"x x x x x x x x x x x x x x x x c c z c y 2 @ 4 O 4 y 5 5 4 y y 4 5 4 4 4 p y 5 y y t 5 t 4 y 4 4 t 5 t 4 O 2 2 4 y y p 4 O O O O 2 y 4 t y a z c z v v z x x x x x x x x x x ",
"x x x x x x x x x x x x x x x z c z a c z 4 2 4 5 O 4 t y 5 5 5 y t 5 t 4 4 4 t 7 p y i 5 t 5 t 4 4 4 O 2 O 4 y y 7 y 4 O O O O O 5 5 t 5 z z c c c V c V x x x x x x x x x x ",
"x x x x x x x x x x x x x x x x c c z z c z t 2 2 4 O O 4 t 5 4 5 p y y y 5 4 4 2 4 4 4 4 4 4 4 4 2 2 4 4 5 y 7 y t @ O O O X O 5 t 4 y p a c C V x x x x x x x x x x x x x x ",
"x x x x x x x x x x x x x x x x x x c V C C z 4 4 4 5 O O 5 t 5 5 5 y p p 4 y y 5 4 4 2 4 2 4 3 4 5 5 5 y y p y 4 O O X O X O 4 5 t t a z c V A x x x x x x x x x x x x x x x ",
"x x x x x x x x x x x x x x x x x x x x A Z C z 4 2 4 4 2 O O 4 t 5 5 5 5 y p y t y y 5 y y y 5 y y p y p 5 4 O O O . X O O 4 y t y a z a c V x x x x x x x x x x x x x x x x ",
"x x x x x x x x x x x x x x x x x x x x x C A C z y 4 4 4 4 O X 4 4 5 y 5 5 5 5 5 p y y 7 y p y 7 4 5 4 4 O O . . . X O 4 5 t 4 y a c c z l x x x x x x x x x x x x x x x x x ",
"x x x x x x x x x x x x x x x x x x x x x x V V c a y K 4 4 4 5 2 t 4 4 t 4 4 4 5 4 # 4 4 4 4 4 4 O O O . . . . X O O 5 5 t y y a z c c a a x x x x x x x x x x x x x x x x x ",
"x x x x x x x x x x x x x x x x x x x x x x x c z c c a y 2 4 4 5 5 2 O @ O 2 O O O O . O O O X . . . . . . X O 4 5 y t t y a z c c c z c x x x x x x x x x x x x x x x x x x ",
"x x x x x x x x x x x x x x x x x x x x x x x z d a z c z a 2 2 4 4 5 4 O O X . . . . . . . . . X X . . X O 5 5 5 t t p a z c c c z z c c x x x x x x x x x x x x x x x x x x ",
"x x x x x x x x x x x x x x x x x x x x x x x x z c z z c c z y 5 4 4 4 5 2 O O O X X X X X X O O O H H 5 5 t t y y p z z c c C C V c c z z x x x x x x x x x x x x x x x x x ",
"x x x x x x x x x x x x x x x x x x x x x x x x x c V c V C c c z a y y y 4 y 4 5 4 4 4 5 4 4 4 4 5 t t t t y p p c z c z V V F Z x x x V x x x x x x x x x x x x x x x x x x ",
"x x x x x x x x x x x x x x x x x x x x x x x x x z C V C V C C V z c z a a p y y y y y y 4 y y y y y p a a c z v z c c c C A x x x x x x x x x x x x x x x x x x x x x x x x ",
"x x x x x x x x x x x x x x x x x x x x x x x x x x x x x B Z V C V c c c z z c z a z a z a z p z a z z z c z c c c c z z V x x x x x x x x x x x x x x x x x x x x x x x x x ",
"x x x x x x x x x x x x x x x x x x x x x x x x x x x x x x x B Z C z z c c c c c c c c c z c c c c c c c c V z z c z c z x x x x x x x x x x x x x x x x x x x x x x x x x x ",
"x x x x x x x x x x x x x x x x x x x x x x x x x x x x x x x x x V c c V z z V C V c V z c c c c z c V V C A V c V V c x x x x x x x x x x x x x x x x x x x x x x x x x x x ",
"x x x x x x x x x x x x x x x x x x x x x x x x x x x x x x x x x x c c V c V C V C C C V c z z z c V C F A V V V V c c x x x x x x x x x x x x x x x x x x x x x x x x x x x ",
"x x x x x x x x x x x x x x x x x x x x x x x x x x x x x x x x x x x V C V C Z V V V Z C V c c V z V Z x x x x x x x x x x x x x x x x x x x x x x x x x x x x x x x x x x x ",
"x x x x x x x x x x x x x x x x x x x x x x x x x x x x x x x x x x x c x x x x x x x x x V C V c c x x x x x x x x x x x x x x x x x x x x x x x x x x x x x x x x x x x x x ",
"x x x x x x x x x x x x x x x x x x x x x x x x x x x x x x x x x x x x x x x x x x x x x x C c V x x x x x x x x x x x x x x x x x x x x x x x x x x x x x x x x x x x x x x ",
"x x x x x x x x x x x x x x x x x x x x x x x x x x x x x x x x x x x x x x x x x x x x x x x x x x x x x x x x x x x x x x x x x x x x x x x x x x x x x x x x x x x x x x x ",
"x x x x x x x x x x x x x x x x x x x x x x x x x x x x x x x x x x x x x x x x x x x x x x x x x x x x x x x x x x x x x x x x x x x x x x x x x x x x x x x x x x x x x x x ",
"x x x x x x x x x x x x x x x x x x x x x x x x x x x x x x x x x x x x x x x x x x x x x x x x x x x x x x x x x x x x x x x x x x x x x x x x x x x x x x x x x x x x x x x ",
"x x x x x x x x x x x x x x x x x x x x x x x x x x x x x x x x x x x x x x x x x x x x x x x x x x x x x x x x x x x x x x x x x x x x x x x x x x x x x x x x x x x x x x x ",
"x x x x x x x x x x x x x x x x x x x x x x x x x x x x x x x x x x x x x x x x x x x x x x x x x x x x x x x x x x x x x x x x x x x x x x x x x x x x x x x x x x x x x x x ",
"x x x x x x x x x x x x x x x x x x x x x x x x x x x x x x x x x x x x x x x x x x x x x x x x x x x x x x x x x x x x x x x x x x x x x x x x x x x x x x x x x x x x x x x "
};
