/* XPM */
static char *cola_4[] = {
/* columns rows colors chars-per-pixel */
"87 89 128 2 ",
"   c white",
".  c #FFFFCC",
"X  c #FFFF99",
"o  c #FFCCFF",
"O  c #FFCC99",
"+  c #FF99CC",
"@  c #FF9999",
"#  c #FF9966",
"$  c #FF6699",
"%  c #FF6666",
"&  c #FF6633",
"*  c #FF3366",
"=  c #FF3333",
"-  c #FF3300",
";  c #FF0033",
":  c red",
">  c #CCFFFF",
",  c #CCFFCC",
"<  c #CCFF99",
"1  c #CCCCFF",
"2  c #CCCC99",
"3  c #CCCC66",
"4  c #CC9999",
"5  c #CC9966",
"6  c #CC6699",
"7  c #CC6666",
"8  c #CC6633",
"9  c #CC3366",
"0  c #CC3333",
"q  c #CC3300",
"w  c #CC0033",
"e  c #CC0000",
"r  c #99CCCC",
"t  c gray60",
"y  c #999966",
"u  c #999933",
"i  c #996699",
"p  c #996666",
"a  c #996633",
"s  c #993366",
"d  c #993333",
"f  c #993300",
"g  c #990033",
"h  c #990000",
"j  c #669999",
"k  c #669933",
"l  c gray40",
"z  c #666633",
"x  c None",
"c  c #663333",
"v  c #663300",
"b  c #660033",
"n  c #660000",
"m  c #336666",
"M  c #336633",
"N  c #336600",
"B  c #333366",
"V  c gray20",
"C  c #333300",
"Z  c #330033",
"A  c #330000",
"S  c #006633",
"D  c #003333",
"F  c #003300",
"G  c black",
"H  c #FFCC66",
"J  c #669966",
"K  c #99CC99",
"L  c #666600",
"P  c #CC9933",
"I  c #9999CC",
"U  c #000033",
"Y  c #99FFFF",
"T  c #99FFCC",
"R  c #99FF66",
"E  c #99CC66",
"W  c #339933",
"Q  c #006666",
"!  c #006600",
"~  c black",
"^  c black",
"/  c black",
"(  c black",
")  c black",
"_  c black",
"`  c black",
"'  c black",
"]  c black",
"[  c black",
"{  c black",
"}  c black",
"|  c black",
" . c black",
".. c black",
"X. c black",
"o. c black",
"O. c black",
"+. c black",
"@. c black",
"#. c black",
"$. c black",
"%. c black",
"&. c black",
"*. c black",
"=. c black",
"-. c black",
";. c black",
":. c black",
">. c black",
",. c black",
"<. c black",
"1. c black",
"2. c black",
"3. c black",
"4. c black",
"5. c black",
"6. c black",
"7. c black",
"8. c black",
"9. c black",
"0. c black",
"q. c black",
"w. c black",
"e. c black",
"r. c black",
"t. c black",
"y. c black",
"u. c black",
/* pixels */
"x x x x x x x x x x x x x x x x x x x x x x x x x x x x x x x x x x x x x x x x x x x x x x x x x x x x x x x x x x x x x x x x x x x x x x x x x x x x x x x x x x x x x x x ",
"x x x x x x x x x x x x x x x x x x x x x x x x x x x x x x x x x x x x x x x x x x x x x x x x x x x x x x x x x x x x x x x x x x x x x x x x x x x x x x x x x x x x x x x ",
"x x x x x x x x x x x x x x x x x x x x x x x x x x x x x x x x x x x x x x x x x x x x x x x x x x x x x x x x x x x x x x x x x x x x x x x x x x x x x x x x x x x x x x x ",
"x x x x x x x x x x x x x x x x x x x x x x x x x x x x x x x x x x x x x x x x x x x x x x x x x x x x x x x x x x x x x x x x x x x x x x x x x x x x x x x x x x x x x x x ",
"x x x x x x x x x x x x x x x x x x x x x x x x x x x x x x x x x x x x x x x x x A V x x V x x x V c x x x x x x x x x x x x x x x x x x x x x x x x x x x x x x x x x x x x ",
"x x x x x x x x x x x x x x x x x x x x x x x x x x x x x x x x x x x x x x x a V C V C C C C V C C V V x x x x x x x x x x x x x x x x x x x x x x x x x x x x x x x x x x x ",
"x x x x x x x x x x x x x x x x x x x x x x x x x x x x x x x x x x x x x : f V C Z A C Z V V A C Z C C V x x x x x x x x x x x x x x x x x x x x x x x x x x x x x x x x x x ",
"x x x x x x x x x x x x x x x x x x x x x x x x x x x x x x x x x x x # 8 h V C Z C C Z C C A C V C V c V C C x x x x x x x x x x x x x x x x x x x x x x x x x x x x x x x x ",
"x x x x x x x x x x x x x x x x x x x x x x x x x x x x x x x x % x J V V V C Z C A V A C Z C Z C c c V v V V A c x x x x x x x x x x x x x x x x x x x x x x x x x x x x x x ",
"x x x x x x x x x x x x x x x x x x x x x x x x x x x x x % = : 5 C G A C A C C V V C V V c V C Z V c c c c c c V C c x x x x x x x x x x x x x x x x x x x x x x x x x x x x ",
"x x x x x x x x x x x x x x x x x x x x x x x x x x x x 0 = 0 e 5 V A C Z C V A V c c c c V c c c v V V V c c z c V c x x x x x x x x x x x x x x x x x x x x x x x x x x x x ",
"x x x x x x x x x x x x x x x x x x x x x x x x x x x 0 = 7 q 0 a V C Z C V V c c c V c V c c V z c V v c V z c c c c x x x x x x x x x x x x x x x x x x x x x x x x x x x x ",
"x x x x x x x x x x x x x x x x x x x x x x x x x x 8 0 7 8 ; d C C Z C c c c V c z c z z a z a c z c V V c c c z c z a x x x x x x x x x x x x x x x x x x x x x x x x x x x ",
"x x x x x x x x x x x x x x x x x x x x x x x x x x w 0 7 & d C Z V v c V c c z c a p p p p 5 5 p z c c V C V c c c c c x x x x x x x x x x x x x x x x x x x x x x x x x x x ",
"x x x x x x x x x x x x x x x x x x x x x x x x x 8 0 & y y z V C c V c c z z a p p p p y 5 # @ 5 7 p z c c C V V z c z c x x x x x x x x x x x x x x x x x x x x x x x x x x ",
"x x x x x x x x x x x x x x x x x x x x x x x x # % & % c V V C c c c z z a p p y p J a p a y 5 5 H 5 5 p c V C c V c c c c c z z x x x x x x x x x x x x x x x x x x x x x x ",
"x x x x x x x x x x x x x x x x x x x x x x x x = = = 7 z A C c z c z z p p p y z z a l p l p p y p 5 5 5 y c V C c V c z c z c c x x x x x x x x x x x x x x x x x x x x x x ",
"x x x x x x x x x x x x x x x x x x x x x x x % 0 0 = & z Z c z c z p p a y z p p p p p y p p p p p p y 5 5 y c V C c V c c c z c x x x x x x x x x x x x x x x x x x x x x x ",
"x x x x x x x x x x x x x x x x x x x x x x x q 0 0 e 0 c c z c z z a y p z l z p p y p p y p y y y p a p 5 5 a c Z C c V z c c z x x x x x x x x x x x x x x x x x x x x x x ",
"x x x x x x x x x x x x x x x x x x x x x x w 0 7 q e h V z c l a p p p z a p p p y p y 5 t y y 5 p y p y p y 5 p v V V c c c z c x x x x x x x x x x x x x x x x x x x x x x ",
"x x x x x x x x x x x x x x x x x x x x x 0 q 7 0 e w V z c z a p p a z p p p p y 5 4 4 4 4 @ 4 4 4 5 p p y 5 5 5 z V v V c z c z z x x x x x x x x x x x x x x x x x x x x x ",
"x x x x x x x x x x x x x x x x x x x x x e 0 & = = a C z c p p a J l p p p y y 4 4 5 2 O 2 4 O O O O 4 5 p p y 5 p z V c V c c c c x x x x x x x x x x x x x x x x x x x x x ",
"x x x x x x x x x x x x x x x x x x x x 0 : = # 5 u V c c z a y p a p a p p 5 4 H 4 5 5 5 5 5 5 2 O O 2 4 5 p 5 5 5 a v V c c c z c V x x x x x x x x x x x x x x x x x x x x ",
"x x x x x x x x x x x x x x x x x x x x = = & 4 z V c z z p y p l z p p y 5 4 4 5 y y 5 5 4 y y 5 5 2 @ 2 4 5 p 5 y p c V V z c z c c c z x x x x x x x x x x x x x x x x x x ",
"x x x x x x x x x x x x x x x x x x x % & = = 5 V c c z p p y a a p p y t 4 3 5 y 4 5 t y y y t p y @ O O 2 4 5 y 7 y a c v c c c c C c c C x x x x x x x x x x x x x x x x x ",
"x x x x x x x x x x x x x x x x x x x 0 0 0 : 8 z c z z p 5 p p l p p 5 5 5 y 5 y y 5 p 5 5 5 5 y y 5 O O O O 4 5 y 5 y z V V c V C V C c c x x x x x x x x x x x x x x x x x ",
"x x x x x x x x x x x x x x x x x x 9 q e h e 7 z c z p y 5 u p p p y 4 5 p y p p p p y y p y t p y 5 # H O O 2 4 7 y 5 a c c V c c c c z v x x x x x x x x x x x x x x x x x ",
"x x x x x x x x x x x x x x x x x x e h d 0 e 7 z z p p 5 p l p p y 4 5 y y p p y 5 y y p p y y y p y 5 @ O O O 4 5 5 5 y c V C c z c z c c x x x x x x x x x x x x x x x x x ",
"x x x x x x x x x x x x x x x x x x e 0 0 8 : # y c p y 5 p a p y y 5 y p p y p y y p p y y p y p y y 4 H O O O O 5 y 5 p a V c c z z c z z x x x x x x x x x x x x x x x x x ",
"x x x x x x x x x x x x x x x x x = e e 7 7 q p p z a 5 p p p y p 4 5 p y p y p y 4 y y p t y y y p y 5 O O # O O 4 5 5 5 p c C V c z c z c x x x x x x x x x x x x x x x x x ",
"x x x x x x x x x x x x x x x x x : e q 7 & : d z z p y p z y p y 4 y y p y p y p y p y y p y y i y y 5 @ # O O O O 4 5 5 y c V c c a z c z x x x x x x x x x x x x x x x x x ",
"x x x x x x x x x x x x x x x x x : e 0 = = = d l z p y a p p y 4 5 y p p p y p y t 5 t p y y p y p y 4 # 2 O # O H 4 5 5 5 z C V c z c z c a x x x x x x x x x x x x x x x x ",
"x x x x x x x x x x x x x x x x 0 = = = = 7 5 a z a p y p y y t 5 y p l y y p y 5 y y y y y p y y y y 5 4 # O O @ O O 5 4 5 z c V c z z c z c x x x x x x x x x x x x x x x x ",
"x x x x x x x x x x x x x x x x 0 0 = = = 8 l p a l 5 p p p y 5 t y p p p y p y p p y 4 p y t y p t p y 5 4 O 5 5 # O 5 5 5 p V C c z s z c z c x x x x x x x x x x x x x x x ",
"x x x x x x x x x x x x x x x x 0 e h e e 7 a z p p p y p y i 4 5 y p l p y y p y y p y t y p y 5 y y 5 4 3 @ H 4 5 O O 4 5 a c V c z z c c c c z x x x x x x x x x x x x x x ",
"x x x x x x x x x x x x x x x x 0 h h h e e 5 p a y 5 a p p y 5 y p y p y y p y y p t y y p y y y y 5 y 5 @ 5 5 5 O # 5 5 5 y c C c c p a z a z c x x x x x x x x x x x x x x ",
"x x x x x x x x x x x x x x x x d h q 0 e : % y p y y p y y 4 t y p p y p p y t p t y y 4 y y i 5 p y p 5 5 4 4 5 5 5 O 5 4 y c V V z p l p l z z x x x x x x x x x x x x x x ",
"x x x x x x x x x x x x x x x x 0 h h = = : # y a 5 y p p y y 5 5 y p y y p y y y p y p y 5 y y y t y t 5 4 5 5 4 5 4 5 5 5 5 c V c z a z c c c x x x x x x x x x x x x x x x ",
"x x x x x x x x x x x x x x x x 0 h 0 7 % e % 5 l 5 5 p y p 4 y y p y p y y y p y y y y y i y y y 5 y y 5 5 5 4 5 5 5 4 3 4 5 z c V c c c V c c x x x x x x x x x x x x x x x ",
"x x x x x x x x x x x x x x x x 0 h f 7 % - 8 y p 5 y p y y 4 y p p 5 y y p p t p t p t y y p p t y p 5 t 5 4 5 3 4 4 H 4 5 5 p c C V z V c z z x x x x x x x x x x x x x x x ",
"x x x x x x x x x x x x x x x x 0 h d % & ; 0 a p y 7 p y y 5 p 5 y 5 p p y y 5 y y y y p l p y y p y t 5 4 5 4 4 5 5 4 5 5 4 p V c c c z z a p x x x x x x x x x x x x x x x ",
"x x x x x x x x x x x x x x x x 0 h e 0 = : d p a 5 y p p t y 5 y p y y p p y p p y t p p 5 4 p y y y y y 5 5 5 4 O 5 4 5 5 5 y c V c z d l p y x x x x x x x x x x x x x x x ",
"x x x x x x x x x x x x x x x x x e e 0 = = a l p 5 5 p y p 4 y p y p y y y p y y p y 5 2 O 5 y y t p 4 y t y 4 5 5 4 5 4 5 y p c V c l z z z p x x x x x x x x x x x x x x x ",
"x x x x x x x x x x x x x x x x x e 0 = = 8 l a y 5 y p y 4 5 y p p y y p p y p y 4 y p y y 5 4 y p y y y 5 4 5 4 5 y t 5 5 5 y c V c z c c a p x x x x x x x x x x x x x x x ",
"x x x x x x x x x x x x x x x x x 0 = = 0 z z p p 5 5 y p y 4 y p y p p y y y y 4 5 t 5 p p y y p J y 4 y 5 5 4 5 y y 5 4 y y p c C c z z p z z x x x x x x x x x x x x x x x ",
"x x x x x x x x x x x x x x x x x h f e 0 2 a a y 5 y p 5 t y p p y p y p 4 p y y y 5 5 O O 5 p J i p y y t y y 5 y 5 4 5 4 y l c V c z c c z c v x x x x x x x x x x x x x x ",
"x x x x x x x x x x x x x x x x x h h h e % 2 y p 5 5 y y 5 5 y p p p 5 y y y y p y 5 4 5 5 O y p J p y p 5 y 5 y p y y 5 y y p z c c z c z d z c x x x x x x x x x x x x x x ",
"x x x x x x x x x x x x x x x x x h h h e : 5 5 p y 5 7 p t 4 y p y y y y p y 7 y 5 4 5 5 y 4 y y p y y y y 4 y p p y 5 4 4 y l c c z c z c z c x x x x x x x x x x x x x x x ",
"x x x x x x x x x x x x x x x x x e q 0 0 e % 2 a 5 5 y y 5 5 5 p y 5 4 p 5 y 4 y 4 y 5 t 5 y p y p t y p y p p y p p 4 5 y y p c c c z c z c x x x x x x x x x x x x x x x x ",
"x x x x x x x x x x x x x x x x x h w 8 0 e 8 y y p 5 p p t 4 y p p y 4 5 y p y 5 y 4 y y y p y p y y y y p y y y p y 5 4 y p z c z c c z c c x x x x x x x x x x x x x x x x ",
"x x x x x x x x x x x x x x x x x q e 7 a : = y y y 5 5 y 5 4 4 y 5 y 5 4 y p y p y 5 y p y y p t p y i p y 5 p y y y 4 5 4 y z c c z c z c z x x x x x x x x x x x x x x x x ",
"x x x x x x x x x x x x x x x x x w h 8 0 0 0 y y p 5 5 p y 4 5 4 y p p y 5 y t y p y p y y p y l J p y y y p y y p 5 5 4 y p l c z l p p p x x x x x x x x x x x x x x x x x ",
"x x x x x x x x x x x x x x x x x d e 0 0 = = 5 y p 5 5 y p 5 4 4 y p y p y 4 7 y y t p y p y y y y t y p p y p p p y 4 y y p z z z p z p z x x x x x x x x x x x x x x x x x ",
"x x x x x x x x x x x x x x x x x 0 0 0 = q 0 p 5 y y 5 5 y y 4 5 5 y 7 y p 5 y p y p y p y p p p y p y l y 4 y y p 4 5 4 y l p c a c z z a x x x x x x x x x x x x x x x x x ",
"x x x x x x x x x x x x x x x x x x = = = = a p y 4 p 5 O p y 4 4 4 5 y p y y y y p y p y p t J y l y p y y y p y y 5 4 y p z a l c z c c z x x x x x x x x x x x x x x x x x ",
"x x x x x x x x x x x x x x x x x x h e e 0 4 a y 2 5 y 5 5 y 4 5 4 y p y 5 p 5 p y y t y y y p i y p y p p y p p y 4 5 y p l p z z c c z d x x x x x x x x x x x x x x x x x ",
"x x x x x x x x x x x x x x x x x x h h h e # 2 p 5 2 y 5 2 p 5 4 4 y 5 p p y y y y p 5 y p y y y y t p J p y p y y 4 5 p z z z c c c z c z x x x x x x x x x x x x x x x x x ",
"x x x x x x x x x x x x x x x x x x h h h e q @ y y 2 4 5 O 5 y 4 4 t y p y p 5 i y p y p t p t l y y y t p J p p 4 5 y l l a z p z c c c x x x x x x x x x x x x x x x x x x ",
"x x x x x x x x x x x x x x x x x x e h h h e 5 y a 2 2 5 O 4 y 5 4 4 4 y y p y y y p y y p y y t p y p y y p y y 5 4 p a l p z p p l x x x x x x x x x x x x x x x x x x x x ",
"x x x x x x x x x x x x x x x x x x d 0 d f h # y p y O < 5 O 4 5 2 4 5 4 p y p p p p y p y y i y y y y y p y y y 4 3 p z p a p p p z x x x x x x x x x x x x x x x x x x x x ",
"x x x x x x x x x x x x x x x x x x 0 e 8 d h & 4 y p 5 X 2 O O 5 y 4 4 t y p p y y y p J p y y y p t y t y y p 4 5 y z l z l z z z c x x x x x x x x x x x x x x x x x x x x ",
"x x x x x x x x x x x x x x x x x x x h 7 7 0 q 5 p y y 2 . 2 O 2 4 5 2 4 4 y p y p y p y j p y t y y 5 y p y 4 5 5 l z p c z c c z x x x x x x x x x x x x x x x x x x x x x ",
"x x x x x x x x x x x x x x x x x x x e 0 p 0 : 5 y p y 5 2 X O @ 2 5 4 4 4 t t 4 t y y p p y y y y 5 y p y 4 5 4 p z l c z s z z c x x x x x x x x x x x x x x x x x x x x x ",
"x x x x x x x x x x x x x x x x x x x 0 f 0 0 e 7 y y p y 2 X 2 O 5 4 5 4 2 4 5 4 y 4 y y y y y t 5 t y y 4 5 5 y z l d z c z c c z x x x x x x x x x x x x x x x x x x x x x ",
"x x x x x x x x x x x x x x x x x x x x e h q h 5 y p y y 5 2 . O O 2 5 4 5 2 4 4 t 5 t 4 t 5 p 5 y p 4 4 5 4 y p l a z c c c z z z x x x x x x x x x x x x x x x x x x x x x ",
"x x x x x x x x x x x x x x x x x x x x 0 h e 0 O l z p p y 4 2 X O 2 4 5 t 4 2 4 4 4 y 5 t t y t 4 5 4 y 5 4 y z p c z l z c z c x x x x x x x x x x x x x x x x x x x x x x ",
"x x x x x x x x x x x x x x x x x x x x x e h h 0 0 y p y t y 4 2 . O O 4 5 5 5 4 2 4 4 4 4 4 4 5 4 4 y 5 4 y p l c z c c l z l z x x x x x x x x x x x x x x x x x x x x x x ",
"x x x x x x x x x x x x x x x x x x x x x x h h h h 0 a a y 4 y y O . X O 4 y t 5 5 4 3 4 4 4 5 4 5 y 5 4 y y z c z c z l a c z x x x x x x x x x x x x x x x x x x x x x x x ",
"x x x x x x x x x x x x x x x x x x x x x x 0 h h h h d 4 z y t 5 y 2 X O O 4 5 y t 5 t 5 y 5 t y 5 4 4 5 y l z c c z x c c z x x x x x x x x x x x x x x x x x x x x x x x x ",
"x x x x x x x x x x x x x x x x x x x x x x x d h h f h 5 y a y t y y 2 . X O O 4 5 5 5 y 4 y 5 5 4 3 5 y z a x z c z z c c x x x x x x x x x x x x x x x x x x x x x x x x x ",
"x x x x x x x x x x x x x x x x x x x x x x x x h h q g a 2 c p y 4 y 5 O X . . O O 4 4 4 4 5 @ 2 4 y p p l z c z p c z V x x x x x x x x x x x x x x x x x x x x x x x x x x ",
"x x x x x x x x x x x x x x x x x x x x x x x x x h g f 0 4 z c a p t t 5 4 O X . . . X O O O 2 y y y p z z c z p c z a x x x x x x x x x x x x x x x x x x x x x x x x x x x ",
"x x x x x x x x x x x x x x x x x x x x x x x x x x h e h 5 z c z z y y t 5 4 O X O X . X X 2 y y p a l z x a l z z a c x x x x x x x x x x x x x x x x x x x x x x x x x x x ",
"x x x x x x x x x x x x x x x x x x x x x x x x x x 0 h q p z V c c z p y y y 5 4 O O O X 2 5 y y p a z d z c z c c z z x x x x x x x x x x x x x x x x x x x x x x x x x x x ",
"x x x x x x x x x x x x x x x x x x x x x x x x x x x 0 h 8 p d c V c c a p y t y y 4 5 4 4 5 5 p a l z l z z c z c c x x x x x x x x x x x x x x x x x x x x x x x x x x x x ",
"x x x x x x x x x x x x x x x x x x x x x x x x x x x x d h h h 8 p V z c z z a p y y y y y y p z l c a c z c c V V c x x x x x x x x x x x x x x x x x x x x x x x x x x x x ",
"x x x x x x x x x x x x x x x x x x x x x x x x x x x x x g h h d y z c c c z z a z p a p z z c z c z z c z c V x x x x x x x x x x x x x x x x x x x x x x x x x x x x x x x ",
"x x x x x x x x x x x x x x x x x x x x x x x x x x x x x x d h h d a V z c c c c z c c z c c z c z c z c c B x x x x x x x x x x x x x x x x x x x x x x x x x x x x x x x x ",
"x x x x x x x x x x x x x x x x x x x x x x x x x x x x x x x d h h c c c V C V V c z c c z c c V z c c z c x x x x x x x x x x x x x x x x x x x x x x x x x x x x x x x x x ",
"x x x x x x x x x x x x x x x x x x x x x x x x x x x x x x x x x x c c V V V V C V c z z V V V C V c V z x x x x x x x x x x x x x x x x x x x x x x x x x x x x x x x x x x ",
"x x x x x x x x x x x x x x x x x x x x x x x x x x x x x x x x x x x x x x d n V V z c c V V V V V V c x x x x x x x x x x x x x x x x x x x x x x x x x x x x x x x x x x x ",
"x x x x x x x x x x x x x x x x x x x x x x x x x x x x x x x x x x x x x x x x d c c V V x x x x x x x x x x x x x x x x x x x x x x x x x x x x x x x x x x x x x x x x x x ",
"x x x x x x x x x x x x x x x x x x x x x x x x x x x x x x x x x x x x x x x x x x z V x x x x x x x x x x x x x x x x x x x x x x x x x x x x x x x x x x x x x x x x x x x ",
"x x x x x x x x x x x x x x x x x x x x x x x x x x x x x x x x x x x x x x x x x x x x x x x x x x x x x x x x x x x x x x x x x x x x x x x x x x x x x x x x x x x x x x x ",
"x x x x x x x x x x x x x x x x x x x x x x x x x x x x x x x x x x x x x x x x x x x x x x x x x x x x x x x x x x x x x x x x x x x x x x x x x x x x x x x x x x x x x x x ",
"x x x x x x x x x x x x x x x x x x x x x x x x x x x x x x x x x x x x x x x x x x x x x x x x x x x x x x x x x x x x x x x x x x x x x x x x x x x x x x x x x x x x x x x ",
"x x x x x x x x x x x x x x x x x x x x x x x x x x x x x x x x x x x x x x x x x x x x x x x x x x x x x x x x x x x x x x x x x x x x x x x x x x x x x x x x x x x x x x x ",
"x x x x x x x x x x x x x x x x x x x x x x x x x x x x x x x x x x x x x x x x x x x x x x x x x x x x x x x x x x x x x x x x x x x x x x x x x x x x x x x x x x x x x x x ",
"x x x x x x x x x x x x x x x x x x x x x x x x x x x x x x x x x x x x x x x x x x x x x x x x x x x x x x x x x x x x x x x x x x x x x x x x x x x x x x x x x x x x x x x "
};
