/* XPM */
static char *cola_7[] = {
/* columns rows colors chars-per-pixel */
"87 89 128 2 ",
"   c white",
".  c #FFFFCC",
"X  c #FFFF99",
"o  c #FFCCFF",
"O  c #FFCC99",
"+  c #FF99CC",
"@  c #FF9999",
"#  c #FF9966",
"$  c #FF6699",
"%  c #FF6666",
"&  c #FF6633",
"*  c #FF3366",
"=  c #FF3333",
"-  c #FF3300",
";  c #FF0033",
":  c red",
">  c #CCFFFF",
",  c #CCFFCC",
"<  c #CCFF99",
"1  c #CCCCFF",
"2  c #CCCC99",
"3  c #CCCC66",
"4  c #CC9999",
"5  c #CC9966",
"6  c #CC6699",
"7  c #CC6666",
"8  c #CC6633",
"9  c #CC3366",
"0  c #CC3333",
"q  c #CC3300",
"w  c #CC0033",
"e  c #CC0000",
"r  c #99CCCC",
"t  c gray60",
"y  c #999966",
"u  c #999933",
"i  c #996699",
"p  c #996666",
"a  c #996633",
"s  c #993366",
"d  c #993333",
"f  c #993300",
"g  c #990033",
"h  c #990000",
"j  c #669999",
"k  c #669933",
"l  c gray40",
"z  c #666633",
"x  c None",
"c  c #663333",
"v  c #663300",
"b  c #660033",
"n  c #660000",
"m  c #336666",
"M  c #336633",
"N  c #336600",
"B  c #333366",
"V  c gray20",
"C  c #333300",
"Z  c #330033",
"A  c #330000",
"S  c #006633",
"D  c #003333",
"F  c #003300",
"G  c black",
"H  c #FFCC66",
"J  c #669966",
"K  c #99CC99",
"L  c #666600",
"P  c #CC9933",
"I  c #9999CC",
"U  c #000033",
"Y  c #99FFFF",
"T  c #99FFCC",
"R  c #99FF66",
"E  c #99CC66",
"W  c #339933",
"Q  c #006666",
"!  c #006600",
"~  c black",
"^  c black",
"/  c black",
"(  c black",
")  c black",
"_  c black",
"`  c black",
"'  c black",
"]  c black",
"[  c black",
"{  c black",
"}  c black",
"|  c black",
" . c black",
".. c black",
"X. c black",
"o. c black",
"O. c black",
"+. c black",
"@. c black",
"#. c black",
"$. c black",
"%. c black",
"&. c black",
"*. c black",
"=. c black",
"-. c black",
";. c black",
":. c black",
">. c black",
",. c black",
"<. c black",
"1. c black",
"2. c black",
"3. c black",
"4. c black",
"5. c black",
"6. c black",
"7. c black",
"8. c black",
"9. c black",
"0. c black",
"q. c black",
"w. c black",
"e. c black",
"r. c black",
"t. c black",
"y. c black",
"u. c black",
/* pixels */
"x x x x x x x x x x x x x x x x x x x x x x x x x x x x x x x x x x x x x x x x x x x x x x x x x x x x x x x x x x x x x x x x x x x x x x x x x x x x x x x x x x x x x x x ",
"x x x x x x x x x x x x x x x x x x x x x x x x x x x x x x x x x x x x x x x x x x x x x x x x x x x x x x x x x x x x x x x x x x x x x x x x x x x x x x x x x x x x x x x ",
"x x x x x x x x x x x x x x x x x x x x x x x x x x x x x x x x x x x x x x x x x x x x x x x x x x x x x x x x x x x x x x x x x x x x x x x x x x x x x x x x x x x x x x x ",
"x x x x x x x x x x x x x x x x x x x x x x x x x x x x x x x x x x x x x x x x x x x x x x x x x x x x x x x x x x x x x x x x x x x x x x x x x x x x x x x x x x x x x x x ",
"x x x x x x x x x x x x x x x x x x x x x x x x x x x x x x x x x x x x x x x x x x x x x x x x x x x x x x x x x x x x x x x x x x x x x x x x x x x x x x x x x x x x x x x ",
"x x x x x x x x x x x x x x x x x x x x x x x x x x x x x x x x x x x x x x x x x x x x x x x x x x x x x x x x x x x x x x x x x x x x x x x x x x x x x x x x x x x x x x x ",
"x x x x x x x x x x x x x x x x x x x x x x x x x x x x x x x x x x x x x x x x x x x x x x x x x x x x x x x x x x x x x x x x x x x x x x x x x x x x x x x x x x x x x x x ",
"x x x x x x x x x x x x x x x x x x x x x x x x x x x x x x x x x x x x x x x x x x x x x x x x x x x x x x x x x x x x x x x x x x x x x x x x x x x x x x x x x x x x x x x ",
"x x x x x x x x x x x x x x x x x x x x x x x x x x x x x x x x x x x 0 0 : : : : : : : : : : : : : : e 0 x x x x x x x x x x x x x x x x x x x x x x x x x x x x x x x x x x ",
"x x x x x x x x x x x x x x x x x x x x x x x x x x x x x x x 0 0 : : : = - ; : : : : : : : : : : : : : : : : : 8 x x x x x x x x x x x x x x x x x x x x x x x x x x x x x x ",
"x x x x x x x x x x x x x x x x x x x x x x x x x x x x = q ; & = = % & 0 = e : e e e e e e e e e : e : : : : : : : - x x x x x x x x x x x x x x x x x x x x x x x x x x x x ",
"x x x x x x x x x x x x x x x x x x x x x x x x x x 0 : - * # @ @ @ # = = : : : : : : 0 = = = ; : : : e : e : e : : : : 0 x x x x x x x x x x x x x x x x x x x x x x x x x x ",
"x x x x x x x x x x x x x x x x x x x x x x x x 0 : = % 4 2 @ @ # & = e : e e 0 % % @ # @ # O 5 : e : : : : : : : e : : : : 0 x x x x x x x x x x x x x x x x x x x x x x x x ",
"x x x x x x x x x x x x x x x x x x x x x x x 0 = @ . X . < @ % 0 e e : e e e y < . @ < 2 E R E w : : e : e : e : : e : : : : : 0 x x x x x x x x x x x x x x x x x x x x x x ",
"x x x x x x x x x x x x x x x x x x x x x 9 : & O .   . . O % 0 : e : : : : e a K 2 3 2 y a k a e : : : e : : : e : : e : e : : : e x x x x x x x x x x x x x x x x x x x x x ",
"x x x x x x x x x x x x x x x x x x x x 0 : @ .   . . . # * : : : : : e : : : A N 2 . 3 k G G G e : : e : : : e : : e : : : : e : : : x x x x x x x x x x x x x x x x x x x x ",
"x x x x x x x x x x x x x x x x x x x : = O   . . . 2 % : e : e : e : : : : e C W . . < u G G G h : : : : e : : : e : : e : e : : : : : 0 x x x x x x x x x x x x x x x x x x ",
"x x x x x x x x x x x x x x x x x x : = 2   .   . % : e : : e : : : e : e : e V E E u k D F G G h : e : : : e : : : e : : : : e : e : : : 0 x x x x x x x x x x x x x x x x x ",
"x x x x x x x x x x x x x x x x x e = O .   . @ & e : : e : : : e : : : : : : h k 3 2 k G M D A : : : : e : : = e : : e : e : : : : e : : : x x x x x x x x x x x x x x x x x ",
"x x x x x x x x x x x x x x x x = ; O     . # ; : e : e : : : e : : e : e : : h F K . J G U G h : : : e : e : e : : e : : : : : e : : e : : e x x x x x x x x x x x x x x x x ",
"x x x x x x x x x x x x x x x x : # . . @ = e : e : : : : e : : : e : : : : : h C K . E C G F d : : e : : : : e : e : : e : e : : e : : : e : 0 x x x x x x x x x x x x x x x ",
"x x x x x x x x x x x x x x x : % , . # = : : e : : e : : : e : e : : e : : : h F < X E N G G c : : : e : e : : : : : : : e : e : : e : : : : e d x x x x x x x x x x x x x x ",
"x x x x x x x x x x x x x x : = O . # : : e : : e : : : e : : : : e : : e : : h F K X E V G G C : : : : : : : e : e : e : : : : e : : e : e : : e x x x x x x x x x x x x x x ",
"x x x x x x x x x x x x x 0 e # @ % e : e : e : : e : e : : e : e : : e : : : n N 2 X E ! G F M e : e : e : e : : : : : : e : e : : e : : : : : : e x x x x x x x x x x x x x ",
"x x x x x x x x x x x x x : = # = : : e : : : : e : : : : e : : : : e : : : e G W < . E N G G M f : : : : : : : e : e : e : : : : e : : e : e : : e x x x x x x x x x x x x x ",
"x x x x x x x x x x x x e - % = e : : : e : e : : e : e : : e : e : : e : : e A d O X a A G G V d : : e : e : e : : : e : : e : : : e : : : : e : : h x x x x x x x x x x x x ",
"x x x x x x x x x x x 0 : : 0 : : : e : : : : e : : : : e : : : : e : : : : h A h 5 y A G G A A f : : : e : : : : e : : e : : : e : : e : e : : : : : c x x x x x x x x x x x ",
"x x x x x x x x x x x : : e : : : e : : e : e : : e : e : : e : e : : e : : n G A a d G A A A A h e : : : : e : e : : : : e : e : : e : : : : : e : : h x x x x x x x x x x x ",
"x x x x x x x x x x 8 : e : : e : : : e : : : : e : : : : e : : : : e : : e A G G C n A G G A A n h : : e : : : : : e : e : : : : e : : e : e : : : : h x x x x x x x x x x x ",
"x x x x x x x x x x = : : 0 : : e : e : : e : : : e : e : : e : e : : : ; h G G A n h A G G A A n n : : : e : e : e = e : : e : : : e : : : : e : e : e V x x x x x x x x x x ",
"x x x x x x x x x x e : : : e : : : : e ; : : e - : ; : e - : ; : : q : : n G A n e h A A G A A A n e : : : : : : : : : e : = : e : : = e : 0 : : : : : n x x x x x x x x x x ",
"x x x x x x x x x 0 : : : e : : e : e : : e : e : e : e : : : e : e : : h G G A n h h A G G A n A G n e : : e : e : e e : : : e : : : e : : : : : e : : h V x x x x x x x x x ",
"x x x x x x x x x w : e : : : e : : : : e : 0 ; e : : : : e : : : : : : n G A n n e h G A G A n A A G h = e : e : 0 : : e : e : : e : e : e : e e : : e h c x x x x x x x x x ",
"x x x x x x x x x : : : e : : : e : e : = % . . 7 e : e : : e : e : : e A A G n n e e G A G A n G G V 7 . @ 0 7 @ . . % = e : e : e e 7 % : e : % 0 : : e V x x x x x x x x x ",
"x x x x x x x x x e : : : : e : : e : # , > + . . = e : : e : : : : : h A n A n n e h G A G G A Z t . .     . . . >   > , . = : e = O   . & e @ . = : : h A x x x x x x x x x ",
"x x x x x x x x 0 : : e : e : : e = . >   % = . . 0 : : e : : : e : ; n A n n A n h h A A G G d ,   , x 4 .   @ w 0 @     >   = - . 1 = % % 4   % : e : e n V x x x x x x x x ",
"x x x x x x x x e : : : : = : e = . >   % e % , % : e : : e e : : : : n G A A G A n G G G G l ,   , V l @ % . % e : : % .     @ .   # 0 @     % e e : : h n C x x x x x x x x ",
"x x x x x x x x e : e : e : e 0 .     % e : 0 % e : : e : = = q e : : h D D V V G G V D G l .   , D l T d & . e : : e e 0 @ @ . > @ . >   , % e : : : : e n Z x x x x x x x x ",
"x x x x x x x x : : : : : e : @   > @ : e = .   @ e e : 0 @   @ = e = 4 > , . , V t   m V ,     m C 1 l G , @ : e : : : : e @ > . . > . @ = e : e : : e h n A x x x x x x x x ",
"x x x x x x x x : : e : e : #   > , - e %   , @ . = : &     >   = = .   4 >   t t   , V 4     t G l o C i . = e : : e : e % > . e = @ = : e : : : : : : h h A x x x x x x x x ",
"x x x x x x x x : : : : e = > >   & e %   > @ = @ 0 =   > @ . @ 0 .   m V ,   V l t c p     , G G c , r , 7 : : : e : : = .   % e @ @ e e : : e : e : e h h A V x x x x x x x ",
"x x x x x x x x e : e : : @ >   @ : = .   . @ @   % .   @ = @ = %   r G l   t G G G V .   , V G G G t , l h : e : : e e @ > O : @ . - e : e : : : : : e e n G V x x x x x x x ",
"x x x x x x x x : : : e %     > % e @ > . = % > 4 . > , = e e =     c V . > B V V G 4     t G G l B G G G h : % 7 : e %   o 0 % . = 0 = = % % e e : e e h n A V x x x x x x x ",
"x x x x x x x x : : : e @   > @ : e . > @ e 7 O : +   @ : e = . > @ h t   m l , G c     , G A 4   . l G G d @   . = : @ > @ & . 0 % .   ,   @ : : : e e h n A V x x x x x x x ",
"x x x x x x x x : : e = . >   % e %   . = =   = = > , = e 0 . > . : =   , c , l G 4     l G 4   t t t G V .   % + 7 =     @ @ = %   . @   > & e : : : h h h A V x x x x x x x ",
"x x x x x x x x : : e %   > . = e @ > > @ . 4 e %   . = & ,     . 4 .   , > t G V 1   , U l   r A p t G t   . - & = @ >     = &   , - %   @ e : : e e h v A A V x x x x x x x ",
"x x x x x x x x e : : %   > O : e @   >   . - e % > > , o # @ >           t G G t     r G ,   j G 4 j c   o O . . 4 .   , = e . > % = , , = : e : e e e h A G x x x x x x x x ",
"x x x x x x x x 0 : e %   > @ : e : . . # : e : e @ . @ 0 : 0 . @ = @ Y l G G G t     l c   , G c r V 4   % e . . .   > % : 4   O : @   @ = 0 : : e e h A A G x x x x x x x x ",
"x x x x x x x x 0 : e %   > @ e : e = = e e : e : e = : = = = = e : h D G G A G t   , Q t , V G , j V   . q = . % % > @ : =   , = 0   @ % . % : e e e h n A V x x x x x x x x ",
"x x x x x x x x 0 : : = . >   % : e e e : : e 0 = @ 4 , . > . , 2 . i A A A G A .     m G A G t , A t   4 e . @ e @ > % = ,   . e @ > @ O @ e : : e h n n G V x x x x x x x x ",
"x x x x x x x x x e : e #   > . % : : = 0 % . . >   . . .   > >       , y A G A 7     , U V r   c V     . , . = : . > . .   > > .   >   . : % % : : e h A G C x x x x x x x x ",
"x x x x x x x x x : : : e +   > > . . .     @ 7 % = : : 0 = .             , D A v ,     , . , V G A ,       = e : ,   > @ . >   . >   . e = . @ : h h A A G V x x x x x x x x ",
"x x x x x x x x x w : e : e % @ . . . # * 0 : e e : e : e : 0 @ % = = z l , t A n d t , , t U G G G c , t 0 : e : % @ 6 e = . 7 = @ @ e e = @ % e h h A A G x x x x x x x x x ",
"x x x x x x x x x d : : : : e : q : e e : e : : : : : : : e : e e : e n G A D n h n G G D G G A A G G A A e : : e : e : : e : e : e : : : e : e h h n n G V x x x x x x x x x ",
"x x x x x x x x x x : : : e : : : e : : : : : e : e : 0 : : : : : : : h G G G n e h G G G G G G A G n G A e : : : e : : e : : : e : : e : : e e h h A A G V x x x x x x x x x ",
"x x x x x x x x x x 0 : e : : : e : : : e : e : : : q : : ; e - e ; : h A A G A h h A G G G G G A G A G n : : : e : = e : : e : : : e : : : e h n n n G G x x x x x x x x x x ",
"x x x x x x x x x x x : : : e : : : e : : : : : e : : : e : : : : : : f A A G A h n A G G G G A A G n A h : : e : : e : : e : : e : : : : e h h h A A G V x x x x x x x x x x ",
"x x x x x x x x x x x e : : : e : : : e : e : e : e : : : e : 0 : : = h G G G A e h A G G G G G A G A G n : : : e : : : : : e : : e : : e e e h n n G G x x x x x x x x x x x ",
"x x x x x x x x x x x d : e : : : e : : : : : : : : e = e = : : e : : : A A G A h h G G G G G G A G A A h : : : : : e : e : : e : : : e e h h n A A G V x x x x x x x x x x x ",
"x x x x x x x x x x x x e : : : e : : e : e : e : e : : : : : e : : : : n G G G h h A G G G G A A G A A e : : e : e : : : : : : e : : e h h h n A G G x x x x x x x x x x x x ",
"x x x x x x x x x x x x x : : e : : e : : : : : : : : e : e : : : 0 : : A G G G n h G G G G G G G G G A e : : : : : : e : e : e : : : e h h v A A G B x x x x x x x x x x x x ",
"x x x x x x x x x x x x x e : : e : : e : e : e : e : : : : e : e : = : A G G G h h G G G G G G G A G A e : e : e : e : : : : : : e h h h n A A G A x x x x x x x x x x x x x ",
"x x x x x x x x x x x x x x 0 : : e : : : : e : : : : e : e : : : : : e A G G G n n G G G G G A A G G A e : : : : : : e : e : : : h h n n A A G G x x x x x x x x x x x x x x ",
"x x x x x x x x x x x x x x x : : : : e : e : : e : e : : : : = e : = h G G G G h n G G G G G G A G G G h : = : e : e : : : : e h h h n A A A G x x x x x x x x x x x x x x x ",
"x x x x x x x x x x x x x x x d : : e : : : : e : : : : e = e : : : : h G G G G f n G G G G G A A G A G n = : e : : : : : : e h h h f A A G G x x x x x x x x x x x x x x x x ",
"x x x x x x x x x x x x x x x x e : : : e : : : e : e : : : : e : : : n G G G V c C G G G G G G A A G G A e : : e : : : e e e h h h A Z A G V x x x x x x x x x x x x x x x x ",
"x x x x x x x x x x x x x x x x x h : : : : e : = : : e : e : : e : : A G G G v d G G G G G G G G A G A G h : : : : e e e h h n n A A G G V x x x x x x x x x x x x x x x x x ",
"x x x x x x x x x x x x x x x x x x d : : : : : e : e : : : = e : : h A G G G A A G G G G A G G G A n A G h : : : e e e h f n n A A G G x x x x x x x x x x x x x x x x x x x ",
"x x x x x x x x x x x x x x x x x x x v e : : : : : : : e : e : : : h G G G G G G G G G G G G G G A e n G n : e e e e h h h A A A G U x x x x x x x x x x x x x x x x x x x x ",
"x x x x x x x x x x x x x x x x x x x x V h : : : e : : : e : : : : h G G G G G G G G G n n A G G G n h G A : e e f h n n Z A G G V x x x x x x x x x x x x x x x x x x x x x ",
"x x x x x x x x x x x x x x x x x x x x x m n h : : : : : : : e : : h D v n G G G G G G h h A A G G h h G Z e e n n n n A G G G x x x x x x x x x x x x x x x x x x x x x x x ",
"x x x x x x x x x x x x x x x x x x x x x x x V n e e e : : : : : : h F M M c a d n n n n A n A A A A G F z h n h A A A G G V x x x x x x x x x x x x x x x x x x x x x x x x ",
"x x x x x x x x x x x x x x x x x x x x x x x x x A n h h e e : e : : h G S N a z M M N V M M M C G G G A f h A A A G G V x x x x x x x x x x x x x x x x x x x x x x x x x x ",
"x x x x x x x x x x x x x x x x x x x x x x x x x x m A A n h h h h e e e n A G G F G F D F G F G G n n n n A A G G V x x x x x x x x x x x x x x x x x x x x x x x x x x x x ",
"x x x x x x x x x x x x x x x x x x x x x x x x x x x x x V V A n n n h e h h n n n n n n n n n A n n A A G G G V x x x x x x x x x x x x x x x x x x x x x x x x x x x x x x ",
"x x x x x x x x x x x x x x x x x x x x x x x x x x x x x x x x V V G A G A n h h n n n n A n n A A G G G m x x x x x x x x x x x x x x x x x x x x x x x x x x x x x x x x x ",
"x x x x x x x x x x x x x x x x x x x x x x x x x x x x x x x x x x x x x m V G G G G G G G G G V x x x x x x x x x x x x x x x x x x x x x x x x x x x x x x x x x x x x x x ",
"x x x x x x x x x x x x x x x x x x x x x x x x x x x x x x x x x x x x x x x x x x x x x x x x x x x x x x x x x x x x x x x x x x x x x x x x x x x x x x x x x x x x x x x ",
"x x x x x x x x x x x x x x x x x x x x x x x x x x x x x x x x x x x x x x x x x x x x x x x x x x x x x x x x x x x x x x x x x x x x x x x x x x x x x x x x x x x x x x x ",
"x x x x x x x x x x x x x x x x x x x x x x x x x x x x x x x x x x x x x x x x x x x x x x x x x x x x x x x x x x x x x x x x x x x x x x x x x x x x x x x x x x x x x x x ",
"x x x x x x x x x x x x x x x x x x x x x x x x x x x x x x x x x x x x x x x x x x x x x x x x x x x x x x x x x x x x x x x x x x x x x x x x x x x x x x x x x x x x x x x ",
"x x x x x x x x x x x x x x x x x x x x x x x x x x x x x x x x x x x x x x x x x x x x x x x x x x x x x x x x x x x x x x x x x x x x x x x x x x x x x x x x x x x x x x x ",
"x x x x x x x x x x x x x x x x x x x x x x x x x x x x x x x x x x x x x x x x x x x x x x x x x x x x x x x x x x x x x x x x x x x x x x x x x x x x x x x x x x x x x x x ",
"x x x x x x x x x x x x x x x x x x x x x x x x x x x x x x x x x x x x x x x x x x x x x x x x x x x x x x x x x x x x x x x x x x x x x x x x x x x x x x x x x x x x x x x ",
"x x x x x x x x x x x x x x x x x x x x x x x x x x x x x x x x x x x x x x x x x x x x x x x x x x x x x x x x x x x x x x x x x x x x x x x x x x x x x x x x x x x x x x x ",
"x x x x x x x x x x x x x x x x x x x x x x x x x x x x x x x x x x x x x x x x x x x x x x x x x x x x x x x x x x x x x x x x x x x x x x x x x x x x x x x x x x x x x x x ",
"x x x x x x x x x x x x x x x x x x x x x x x x x x x x x x x x x x x x x x x x x x x x x x x x x x x x x x x x x x x x x x x x x x x x x x x x x x x x x x x x x x x x x x x ",
"x x x x x x x x x x x x x x x x x x x x x x x x x x x x x x x x x x x x x x x x x x x x x x x x x x x x x x x x x x x x x x x x x x x x x x x x x x x x x x x x x x x x x x x ",
"x x x x x x x x x x x x x x x x x x x x x x x x x x x x x x x x x x x x x x x x x x x x x x x x x x x x x x x x x x x x x x x x x x x x x x x x x x x x x x x x x x x x x x x "
};
