/* XPM */
static char *cola_6[] = {
/* columns rows colors chars-per-pixel */
"87 89 128 2 ",
"   c white",
".  c #FFFFCC",
"X  c #FFFF99",
"o  c #FFCCFF",
"O  c #FFCC99",
"+  c #FF99CC",
"@  c #FF9999",
"#  c #FF9966",
"$  c #FF6699",
"%  c #FF6666",
"&  c #FF6633",
"*  c #FF3366",
"=  c #FF3333",
"-  c #FF3300",
";  c #FF0033",
":  c red",
">  c #CCFFFF",
",  c #CCFFCC",
"<  c #CCFF99",
"1  c #CCCCFF",
"2  c #CCCC99",
"3  c #CCCC66",
"4  c #CC9999",
"5  c #CC9966",
"6  c #CC6699",
"7  c #CC6666",
"8  c #CC6633",
"9  c #CC3366",
"0  c #CC3333",
"q  c #CC3300",
"w  c #CC0033",
"e  c #CC0000",
"r  c #99CCCC",
"t  c gray60",
"y  c #999966",
"u  c #999933",
"i  c #996699",
"p  c #996666",
"a  c #996633",
"s  c #993366",
"d  c #993333",
"f  c #993300",
"g  c #990033",
"h  c #990000",
"j  c #669999",
"k  c #669933",
"l  c gray40",
"z  c #666633",
"x  c None",
"c  c #663333",
"v  c #663300",
"b  c #660033",
"n  c #660000",
"m  c #336666",
"M  c #336633",
"N  c #336600",
"B  c #333366",
"V  c gray20",
"C  c #333300",
"Z  c #330033",
"A  c #330000",
"S  c #006633",
"D  c #003333",
"F  c #003300",
"G  c black",
"H  c #FFCC66",
"J  c #669966",
"K  c #99CC99",
"L  c #666600",
"P  c #CC9933",
"I  c #9999CC",
"U  c #000033",
"Y  c #99FFFF",
"T  c #99FFCC",
"R  c #99FF66",
"E  c #99CC66",
"W  c #339933",
"Q  c #006666",
"!  c #006600",
"~  c black",
"^  c black",
"/  c black",
"(  c black",
")  c black",
"_  c black",
"`  c black",
"'  c black",
"]  c black",
"[  c black",
"{  c black",
"}  c black",
"|  c black",
" . c black",
".. c black",
"X. c black",
"o. c black",
"O. c black",
"+. c black",
"@. c black",
"#. c black",
"$. c black",
"%. c black",
"&. c black",
"*. c black",
"=. c black",
"-. c black",
";. c black",
":. c black",
">. c black",
",. c black",
"<. c black",
"1. c black",
"2. c black",
"3. c black",
"4. c black",
"5. c black",
"6. c black",
"7. c black",
"8. c black",
"9. c black",
"0. c black",
"q. c black",
"w. c black",
"e. c black",
"r. c black",
"t. c black",
"y. c black",
"u. c black",
/* pixels */
"x x x x x x x x x x x x x x x x x x x x x x x x x x x x x x x x x x x x x x x x x x x x x x x x x x x x x x x x x x x x x x x x x x x x x x x x x x x x x x x x x x x x x x x ",
"x x x x x x x x x x x x x x x x x x x x x x x x x x x x x x x x x x x x x x x x x x x x x x x x x x x x x x x x x x x x x x x x x x x x x x x x x x x x x x x x x x x x x x x ",
"x x x x x x x x x x x x x x x x x x x x x x x x x x x x x x x x x x x x x x x x x x x x x x x x x x x x x x x x x x x x x x x x x x x x x x x x x x x x x x x x x x x x x x x ",
"x x x x x x x x x x x x x x x x x x x x x x x x x x x x x x x x x x x x x x x x x x x x x x x x x x x x x x x x x x x x x x x x x x x x x x x x x x x x x x x x x x x x x x x ",
"x x x x x x x x x x x x x x x x x x x x x x x x x x x x x x x x x x x x x x x x x x x x x x x x x x x x x x x x x x x x x x x x x x x x x x x x x x x x x x x x x x x x x x x ",
"x x x x x x x x x x x x x x x x x x x x x x x x x x x x x x x x x x x x x x x x x x x x x x x x x % = = = x x x x x x x x x x x x x x x x x x x x x x x x x x x x x x x x x x ",
"x x x x x x x x x x x x x x x x x x x x x x x x x x x x x x x x x x x x x x x x x x x x x x x x = = = = 0 e x x x x x x x x x x x x x x x x x x x x x x x x x x x x x x x x x ",
"x x x x x x x x x x x x x x x x x x x x x x x x x x x x x x x x x x x x x x x x x x 0 0 0 0 : e q 0 0 e e h h 0 0 x x x x x x x x x x x x x x x x x x x x x x x x x x x x x x ",
"x x x x x x x x x x x x x x x x x x x x x x x x x x x x x x x x x x x x x x x 0 0 : : : : : : : : e e : e e e : : = 8 % x x x x x x x x x x x x x x x x x x x x x x x x x x x ",
"x x x x x x x x x x x x x x x x x x x x x x x x x x x x x x x x x x x x x x 0 - : = = = 8 = = = = = - = e e e e : = = % = = x x x x x x x x x x x x x x x x x x x x x x x x x ",
"x x x x x x x x x x x x x x x x x x x x x x x x x x x x x x x x x x x x 0 : = = & 8 & 8 = & 8 = 8 = = = = - = e e 0 = 0 0 e 0 x x x x x x x x x x x x x x x x x x x x x x x x ",
"x x x x x x x x x x x x x x x x x x x x x x x x x x x x x x x x x x 0 = = % 5 % 7 = 0 = 0 0 = = = 0 = 0 = = = - w - ; q h e e x x x x x x x x x x x x x x x x x x x x x x x x ",
"x x x x x x x x x x x x x x x x x x x x x x x x x x x x x x x x x 0 = # @ @ & = - : = = % % % e - = = = 0 = 0 = = e e e e e : = x x x x x x x x x x x x x x x x x x x x x x x ",
"x x x x x x x x x x x x x x x x x x x x x x x x x x x x x x x x : % 2 @ # 8 ; q w 7 @ @ 3 2 3 0 : 0 - = = = = = = = - e e = = = = % x x x x x x x x x x x x x x x x x x x x x ",
"x x x x x x x x x x x x x x x x x x x x x x x x x x x x x x x = @ < O @ 0 0 0 : e 3 X 2 3 y y q = - 0 - 0 - 0 = 0 = = = e e 0 = 0 & 0 x x x x x x x x x x x x x x x x x x x x ",
"x x x x x x x x x x x x x x x x x x x x x x x x x x x x x x - @ .   O & - = - : e z 2 3 y c f = = 0 = = - = = - = - 0 : : q = 0 7 8 0 0 x x x x x x x x x x x x x x x x x x x ",
"x x x x x x x x x x x x x x x x x x x x x x x x x x x x x : .     O % 0 = 0 : : e M 2 O u c c 0 = = - 0 ; q - 0 = 0 : = : : h 0 0 e e 0 x x x x x x x x x x x x x x x x x x x ",
"x x x x x x x x x x x x x x x x x x x x x x x x x x x x e @   . O 8 = & = - e : e k 3 4 8 a a 8 & 0 = = = ; e : : - w - e : e h h h e 0 x x x x x x x x x x x x x x x x x x x ",
"x x x x x x x x x x x x x x x x x x x x x x x x x x x 0 % . . O % & 7 = q ; - ; e a 5 P p a 7 0 % & 8 = 0 - = : 0 : : : ; : : q h e h e x x x x x x x x x x x x x x x x x x x ",
"x x x x x x x x x x x x x x x x x x x x x x x x x x x = .   @ 7 & 8 = - ; : e : : d 3 4 a 7 8 % & 8 = 8 = = ; q : : e - e : : 0 g h h h 0 x x x x x x x x x x x x x x x x x x ",
"x x x x x x x x x x x x x x x x x x x x x x x x x x - @   O % & 8 = ; e : q : : = v y @ a d 7 & 7 & % = 0 = q ; - e : : : e : e h h 0 0 8 & % x x x x x x x x x x x x x x x x ",
"x x x x x x x x x x x x x x x x x x x x x x x x x x = O O 7 & = = q : - : : e : : c 5 H a a 8 & = 8 & & = = = q ; : e : : : : e h d 0 % = 0 0 0 x x x x x x x x x x x x x x x ",
"x x x x x x x x x x x x x x x x x x x x x x x x x 0 @ O % & = 0 = : w : e : = : : v y 2 a d 0 7 & * & 0 & 0 = = q ; - w : e : : : g q 0 0 h h h x x x x x x x x x x x x x x x ",
"x x x x x x x x x x x x x x x x x x x x x x x x x = O % 8 = 0 = : e : : : e : e ; n 3 O a c p & = & 8 = 8 = = q ; - e : - : : : e h h h h n h h x x x x x x x x x x x x x x x ",
"x x x x x x x x x x x x x x x x x x x x x x x x = % # 8 = = - : e : : e : : : - e V 2 2 a c a 8 = 8 = & = = 0 = = e = : e : e e e e d h n h h d x x x x x x x x x x x x x x x ",
"x x x x x x x x x x x x x x x x x x x x x x x x = 5 % = 0 : w - : e : : e = e ; q v 2 H z c z 0 = = 0 = 8 = & 0 = - ; - ; e : : e e h h h h h h x x x x x x x x x x x x x x x ",
"x x x x x x x x x x x x x x x x x x x x x x x x & % 8 = = - : e : : e : : : - : d h # y n v c 0 = = = & = 8 = = = 0 - 0 : - : e e e h h h d 0 e x x x x x x x x x x x x x x x ",
"x x x x x x x x x x x x x x x x x x x x x x x 8 % 7 = - e : e : : e : : ; e : = h c 8 d C c b f = = 0 = 0 & = & 0 = 0 ; - : w : e e h f 0 % 8 = 0 x x x x x x x x x x x x x x ",
"x x x x x x x x x x x x x x x x x x x x x x x = % & = e ; : : : e : - e : - ; : v A c v Z n v d : 0 = = & 0 & 0 = = - - w : - : e e h g 0 & % % % & x x x x x x x x x x x x x ",
"x x x x x x x x x x x x x x x x x x x x x x x & 7 & : - e : e : : : : : e : : e b C n g C Z n v 0 - = 0 = = 0 & = 0 = 0 - w : = e e h n f 0 8 8 0 0 x x x x x x x x x x x x x ",
"x x x x x x x x x x x x x x x x x x x x x x x & % = 0 : : : : : e : e : : e : q G Z f h A C A b q ; - = 0 = & 0 = = = - ; - q : = e h h g e 0 0 h f x x x x x x x x x x x x x ",
"x x x x x x x x x x x x x x x x x x x x x x = % 8 0 : e : e : e : : : : e : : n G n h h Z C b c n = - 0 - = 0 = = 0 - w - e ; = : e h h h 0 d h h d x x x x x x x x x x x x x ",
"x x x x x x x x x x x x x x x x x x x x x x & 7 & : : : : e : : : e : e : : : A A n 0 n C A d n C e = : 0 = = q - : : : e : - e q w e h d q d h h 9 x x x x x x x x x x x x x ",
"x x x x x x x x x x x x x x x x x x x x x x & & 0 = e : e % 4 e : : : : : : e A A n e g G C n C c 7 @ 8 % @ @ * q e : e 7 % = = % - e h n d h h e 8 x x x x x x x x x x x x x ",
"x x x x x x x x x x x x x x x x x x x x x x & = = : : e % .   @ e : e : e : h A A n e f A Z A c 4 . . , . , . , @ = e & . . - 7 @ e e h n h h h h s x x x x x x x x x x x x x ",
"x x x x x x x x x x x x x x x x x x x x x 8 0 = 0 : e %   4 O @ e : : : ; : h A n n g n A A c , > p O . % 0 . >   @ = . 4 = 7 . % ; - h n d h h h 8 x x x x x x x x x x x x x ",
"x x x x x x x x x x x x x x x x x x x x x = = = - e &   , : . % : e : e : : h G A G n A G G 4   l p @ @ 0 : = @   O O . % @ . # e - e h h h h h h 0 x x x x x x x x x x x x x ",
"x x x x x x x x x x x x x x x x x x x x x 0 & 0 = w . > = e % e : : e - e : h U C G G D G t   t V 4 0 @ - e : 0 @ . > . , > @ 0 : = : h n d h h h d x x x x x x x x x x x x x ",
"x x x x x x x x x x x x x x x x x x x x x = = = - %   @ : 0 . % e : @ . = : 4 r , j p t V ,   m t l l @ e : : : e . . . . @ = : 0 : = h h h e h e h x x x x x x x x x x x x x ",
"x x x x x x x x x x x x x x x x x x x x x & 8 = 0 . > 0 = . . @ e %     0 %   ,   t   r l   t G , V t % : e : e %   0 % % e : w - : e h h n f 0 0 0 0 x x x x x x x x x x x x ",
"x x x x x x x x x x x x x x x x x x x x x = = 0 % , . : @ > = % =   O , =   j l 1 c t c .   V G , , 2 : : : : = . . e @ = e : - : : = h n n 0 = 8 & 0 x x x x x x x x x x x x ",
"x x x x x x x x x x x x x x x x x x x x x & 0 = O 1 % =   . @ , @ , $ % % , V 4 K G G l   t G G l r d e : e : 7   7 % @ e : e : e : e h n n 0 0 0 7 = 8 x x x x x x x x x x x ",
"x x x x x x x x x x x x x x x x x x x x x & = & , . : 4   = , .   @ e e . 4 V   l D A .   l G c D G n : % : e . . = . = = = % 0 : : : h n n 0 d n h d x x x x x x x x x x x x ",
"x x x x x x x x x x x x x x x x x x x x x & 0 % . 4 : , @ w O =   % e @   0 4 t i l c   r G p   t G A @   7 =   7 @ % 7 . .   = e : e h n h v A A n a x x x x x x x x x x x x ",
"x x x x x x x x x x x x x x x x x x x x x = & @ , % 0   7 # % 7 , = 0 . . 0   j t V t   l c   t , G t o @ % % > . % =   + > , : : : e h n n A A n h x x x x x x x x x x x x x ",
"x x x x x x x x x x x x x x x x x x x x x 0 = @ . & =   . . 0 @ . & .   . . >   y G ,   B t , V t A . . - 0 @   . = . @ &   7 : : e e h n n A A n h d x x x x x x x x x x x x ",
"x x x x x x x x x x x x x x x x x x x x x & 8 @ , = 0 . > % : 4 > o 7 . >     , U V   , M o t c t l   O . @   > = 7 > * 7 . = e : e e h n h n n h h d x x x x x x x x x x x x ",
"x x x x x x x x x x x x x x x x x x x x x 0 = @ . 0 : # @ : e - @ % e % % = r V G c   r l   V l m , @ 0 . . > @ e . . - . @ 0 : : e e v g f d h h h h x x x x x x x x x x x x ",
"x x x x x x x x x x x x x x x x x x x x x & = 4 . & e e : e : e = = % % 0 e G G G l   t i y G I V   % = @ %   = =   % 7 . @ @ : e : h b f g h 0 8 % 8 x x x x x x x x x x x x ",
"x x x x x x x x x x x x x x x x x x x x x x = # , @ : e e = 7 @ , >   , . , c A G d   r U G t t l   0 . & 7 , = , > 0 @ . @ # e : e h f g f 0 0 % & * x x x x x x x x x x x x ",
"x x x x x x x x x x x x x x x x x x x x x x 0 = . , @ % @ . . . @ % . >       p G c     l l . V 4   , @ w @   .     O   > . = = : e h h f g f 0 0 0 q x x x x x x x x x x x x ",
"x x x x x x x x x x x x x x x x x x x x x x & 0 % .   . . @ 8 e : e : . . . . > l A 4     , l G t     % e @ > . . >   >   0 % O = h g f c h h d d h s x x x x x x x x x x x x ",
"x x x x x x x x x x x x x x x x x x x x x x = = q = % 0 = e : : : : e & 0 : c J i n n t t l G G V r 7 e : = . 0 % . = . % e % @ e h f g f n A A n d x x x x x x x x x x x x x ",
"x x x x x x x x x x x x x x x x x x x x x x = = = e : e : : e : e : : e : : n G G h n G G G G A G A n : : e : e e q e = : : = 0 e h h d b A A A h x x x x x x x x x x x x x x ",
"x x x x x x x x x x x x x x x x x x x x x x x 0 - = : : e : : : = e : : : : h G G h h G G G G A A A h : : : e : : : : e e - : e h h d f v G A n d x x x x x x x x x x x x x x ",
"x x x x x x x x x x x x x x x x x x x x x x x = = - e : : : e : e : : : w : e A G n h G G G A G A A e : : e = : e : : : - ; = e f g f g A A n h d x x x x x x x x x x x x x x ",
"x x x x x x x x x x x x x x x x x x x x x x x - 0 : ; e : e : : : : e : - : d G G n h G G G G A A A e : e : : e : : 0 : 0 : e q h f d n v h h h d x x x x x x x x x x x x x x ",
"x x x x x x x x x x x x x x x x x x x x x x x 0 - w - : : : e : e = : w : : e A G n h G G G G G A A e : : : : : e : : : : : : w h d f g d 0 0 0 e x x x x x x x x x x x x x x ",
"x x x x x x x x x x x x x x x x x x x x x x x x : : e : e : : : : e : : : : e A G n h G G G G A G n e : e : e : - ; q ; q : e q h e c h q = % & 0 x x x x x x x x x x x x x x ",
"x x x x x x x x x x x x x x x x x x x x x x x x q = : : : : e : e : : : e = e A G A h G G G A G A A : : : e : - ; e : : : : w h f d c h h d 0 0 8 x x x x x x x x x x x x x x ",
"x x x x x x x x x x x x x x x x x x x x x x x x 0 : e : e : : : : : e : : : e A G n h G G G G G A A : : : ; - w : - : e : e f h d n n A n n h h 0 x x x x x x x x x x x x x x ",
"x x x x x x x x x x x x x x x x x x x x x x x x x : : : : e : e : e : e : : e G G A n G G G G G A A : : e : e - e : w - e e h d n V A A A A n h x x x x x x x x x x x x x x x ",
"x x x x x x x x x x x x x x x x x x x x x x x x x 0 : e : : : : : : : : = : e G G A n G G G A A G A : : - : = : ; - : : e g f g v A A A n n n x x x x x x x x x x x x x x x x ",
"x x x x x x x x x x x x x x x x x x x x x x x x x x : : e : e : e : 0 : e : h G G n n G G G G G G A e ; e = e : q : e e e f g v A A A n n h x x x x x x x x x x x x x x x x x ",
"x x x x x x x x x x x x x x x x x x x x x x x x x x e : : : : e : : : : : : h G G V n G G G A A A G 0 : - ; - ; : e : e d n d n c n n n h h x x x x x x x x x x x x x x x x x ",
"x x x x x x x x x x x x x x x x x x x x x x x x x x x e : e : : e : e : : : n G G d C G G G G A G G n : = e = q : e w f h c n V n d h h h d x x x x x x x x x x x x x x x x x ",
"x x x x x x x x x x x x x x x x x x x x x x x x x x x x : : e : : : = e : : A G G n G G G G G G A G n = : - e : e : f h d n A v b f d 0 h h x x x x x x x x x x x x x x x x x ",
"x x x x x x x x x x x x x x x x x x x x x x x x x x x x c : : : : e e : : e G G G G G G G A G G h Z v = - ; : w - h d g v A V A n f 0 0 0 0 x x x x x x x x x x x x x x x x x ",
"x x x x x x x x x x x x x x x x x x x x x x x x x x x x x h : : e e e : : e G G G G G G A G G A f n c 0 : e : : e d f n A G A A C b f 0 0 x x x x x x x x x x x x x x x x x x ",
"x x x x x x x x x x x x x x x x x x x x x x x x x x x x x x n e e e e e e e V A G G G G n n A G c d n 0 e - e 0 d h b A V G G A A A n h d x x x x x x x x x x x x x x x x x x ",
"x x x x x x x x x x x x x x x x x x x x x x x x x x x x x x x n h e e e e e C M v c A A h n n Z h f c q w e 0 h d n C G A G A G A A A d x x x x x x x x x x x x x x x x x x x ",
"x x x x x x x x x x x x x x x x x x x x x x x x x x x x x x x x n h h e h e h C z a v c v c c v c v d e e d h f n A V A A A A A A A x x x x x x x x x x x x x x x x x x x x x ",
"x x x x x x x x x x x x x x x x x x x x x x x x x x x x x x x x x V n h h h h h C C V N V M z v Z n h f h n n n A A A v c v Z A n c x x x x x x x x x x x x x x x x x x x x x ",
"x x x x x x x x x x x x x x x x x x x x x x x x x x x x x x x x x x x V n h h h h n n n v n n n f h g n n n n G A G A A b f d f b x x x x x x x x x x x x x x x x x x x x x x ",
"x x x x x x x x x x x x x x x x x x x x x x x x x x x x x x x x x x x x x A n n h h h h n h h n h n n n A C A G G A A A n d d d x x x x x x x x x x x x x x x x x x x x x x x ",
"x x x x x x x x x x x x x x x x x x x x x x x x x x x x x x x x x x x x x x x x b n n n h n n n n n A A V A G A A G A c x x x x x x x x x x x x x x x x x x x x x x x x x x x ",
"x x x x x x x x x x x x x x x x x x x x x x x x x x x x x x x x x x x x x x x x x c c c c n A Z A G C A C c c v A n x x x x x x x x x x x x x x x x x x x x x x x x x x x x x ",
"x x x x x x x x x x x x x x x x x x x x x x x x x x x x x x x x x x x x x x x x x x x x x x a n A V V x x a x s d x x x x x x x x x x x x x x x x x x x x x x x x x x x x x x ",
"x x x x x x x x x x x x x x x x x x x x x x x x x x x x x x x x x x x x x x x x x x x x x x x x x x x x x x x x x x x x x x x x x x x x x x x x x x x x x x x x x x x x x x x ",
"x x x x x x x x x x x x x x x x x x x x x x x x x x x x x x x x x x x x x x x x x x x x x x x x x x x x x x x x x x x x x x x x x x x x x x x x x x x x x x x x x x x x x x x ",
"x x x x x x x x x x x x x x x x x x x x x x x x x x x x x x x x x x x x x x x x x x x x x x x x x x x x x x x x x x x x x x x x x x x x x x x x x x x x x x x x x x x x x x x ",
"x x x x x x x x x x x x x x x x x x x x x x x x x x x x x x x x x x x x x x x x x x x x x x x x x x x x x x x x x x x x x x x x x x x x x x x x x x x x x x x x x x x x x x x ",
"x x x x x x x x x x x x x x x x x x x x x x x x x x x x x x x x x x x x x x x x x x x x x x x x x x x x x x x x x x x x x x x x x x x x x x x x x x x x x x x x x x x x x x x ",
"x x x x x x x x x x x x x x x x x x x x x x x x x x x x x x x x x x x x x x x x x x x x x x x x x x x x x x x x x x x x x x x x x x x x x x x x x x x x x x x x x x x x x x x ",
"x x x x x x x x x x x x x x x x x x x x x x x x x x x x x x x x x x x x x x x x x x x x x x x x x x x x x x x x x x x x x x x x x x x x x x x x x x x x x x x x x x x x x x x ",
"x x x x x x x x x x x x x x x x x x x x x x x x x x x x x x x x x x x x x x x x x x x x x x x x x x x x x x x x x x x x x x x x x x x x x x x x x x x x x x x x x x x x x x x ",
"x x x x x x x x x x x x x x x x x x x x x x x x x x x x x x x x x x x x x x x x x x x x x x x x x x x x x x x x x x x x x x x x x x x x x x x x x x x x x x x x x x x x x x x ",
"x x x x x x x x x x x x x x x x x x x x x x x x x x x x x x x x x x x x x x x x x x x x x x x x x x x x x x x x x x x x x x x x x x x x x x x x x x x x x x x x x x x x x x x ",
"x x x x x x x x x x x x x x x x x x x x x x x x x x x x x x x x x x x x x x x x x x x x x x x x x x x x x x x x x x x x x x x x x x x x x x x x x x x x x x x x x x x x x x x "
};
