/* XPM */
static char *eaf822499f5c446d86f98455907d7bb1TqNM7PtNzbLSRojX_6[] = {
/* columns rows colors chars-per-pixel */
"79 103 16 1 ",
"  c white",
". c yellow",
"X c #FFCCFF",
"o c #FF6699",
"O c red",
"+ c #CC9933",
"@ c #CC3366",
"# c #CC3333",
"$ c #66CCFF",
"% c #3366FF",
"& c #004400",
"* c #555555",
"= c #555555",
"- c #555555",
"; c #555555",
": c None",
/* pixels */
":::::::::::::::::::::::::::::::::::::::::::::::::::::::::::::::::::::::::::::::",
":::::::::::::::::::::::::::::::::::::::::::::::::::::::::::::::::::::::::::::::",
":::::::::::::::::::::::::::::::::::::::::::::::::::::::::::::::::::::::::::::::",
":::::::::::::::::::::::::::::::::::::::::::::::::::::::::::::::::::::::::::::::",
":::::::::::::::::::::::::::::::::::::::::::::::::::::::::::::::::::::::::::::::",
":::::::::::::::::::::::::::::::::::::::::::::::::::::::::::::::::::::::::::::::",
":::::::::::::::::::::::::::::::::::::::::::::::::::::::::::::::::::::::::::::::",
":::::::::::::::::::::::::::::::::::::::::::::::::::::::::::::::::::::::::::::::",
":::::::::::::::::::::::::::::::::::::::::::::::::::::::::::::::::::::::::::::::",
":::::::::::::::::::::::::::::::::::::::::::::::::::::::::::::::::::::::::::::::",
":::::::::::::::::::::::::::::::::::::::::::::::::::::::::::::::::::::::::::::::",
":::::::::::::::::::::::::::::::::::::::::::::::::::::::::::::::::::::::::::::::",
":::::::::::::::::::::::::::::::::::::::::::::::::::::::::::::::::::::::::::::::",
":::::::::::::::::::::::::::::::::::::::::::::::::::::::::::::::::::::::::::::::",
":::::::::::::::::::::::::::::::::::::::::::::::::::::::::::::::::::::::::::::::",
":::::::::::::::::::::::::::::::::::::::::::::::::::::::::::::::::::::::::::::::",
":::::::::::::::::::::::::::::::::::::::::::::::::::::::::::::::::::::::::::::::",
":::::::::::::::::::::::::::::::::::::::::::::::::::::::::::::::::::::::::::::::",
":::::::::::::::::::::::::::::::::::::::::::::::::::::::::::::::::::::::::::::::",
":::::::::::::::::::::::::::::::::::::::::::::::::::::::::::::::::::::::::::::::",
":::::::::::::::::::::::::::::::::::::::::::::::::::::::::::::::::::::::::::::::",
":::::::::::::::::::::::::::::::::::::::::::::::::::::::::::::::::::::::::::::::",
":::::::::::::::::::::::::::::::::::::::::::::::::::::::::::::::::::::::::::::::",
":::::::::::::::::::::::::::::::::::::::::::::::::::::::::::::::::::::::::::::::",
":::::::::::::::::::::::::::::::::::::::::::::::::::::::::::::::::::::::::::::::",
":::::::::::::::::::::::::::::::::::::::::::::::::::::::::::::::::::::::::::::::",
":::::::::::::::::::::::::::::::::::::::::::::::::::::::::::::::::::::::::::::::",
":::::::::::::::::::::::::::::::::::::::::::::::::::::::::::::::::::::::::::::::",
":::::::::::::::::::::::::::::::::XXX:::::::::::::::::::::::::::::::::::::::::::",
":::::::::::::::::::::::::::::::::XXX:::::###:::::::::::::::::::::::::::::::::::",
":::::::::::::::::::::::::::::::########:##X#:::::::::::::::::::::::::::::::::::",
"::::::::::::::::::::::##:::::##ooo##ooo##XXX#:::####:::::::::::::::::::::::::::",
"::::::::::::::::##############ooooooooo###XX####:::::::::::::::::::::::::::::::",
"::::::::::::::::::::##XXXX###oooo   ooo#o#####:::::::::::::::::::::::::::::::::",
":::::::::::::::::::::#X######ooo ###  ooo####::::::::::::::::::::::::::::::::::",
":::::::::::::::::::::####ooo#o  ######  oooo#::::::::::::::::::::::::::::::::::",
"::::::::::::::::::%%%#####ooo ###@@@####  oo########:::::::::::::::::::::::::::",
":::::::::::::::::%%%%##oooo  ####@@@@##### ######::###:::::::::::::::::::::::::",
":::::::::$$$$$$$$$%%%#oooo      #@@@@#     oooo#:::::::::::::::::::::::::::::::",
"::::::$$$$$      $%%%#Oooo      #@@@##     ooo##:::::::::::::::::::::::::::::::",
"::::::$          $%%##OOoo      ##@@#      ooO###:::&&&:#####::::::::::::::::::",
"::::::$+        +$%##OOOoo       #@##     oooOOO#::&&&&##ooo#::::::::::::::::::",
"::::::$+++    +++$%##OOOooo      ###      ooOOO##:&&&&&##ooo####:::::::::::::::",
"::::::$++++++++++$%##OOOooo              oooOOO#::&&&&#######oo#:::::::::::::::",
"::::::$$+++++++++$##OOOOoooo             oooOOO#::&&&##ooo###oo##::::::::::::::",
":::::::$$+###+++$#:##OOoooooo           oooooOO#::::##oooo##ooo#:::::::::::::::",
"::::::::###o#$$###::#oooooooooo        #oooooo#:::::#oooo##oooo#:::::::::::::::",
":::::::##oooo##oo#:##ooooooo##oooooooo###oooo#::::::#oooo###oo##&&&&:::::::::::",
":::::::#oooo##oooo#####oooo#####ooooo#OO#oooo#::::::#ooo##&###&&&&&##::::::::::",
"::::::##ooo###oooo##:##oooo#OOO###o##OOO##o##:::::::##oo#&&&&&&&&&####:::::::::",
":::::::#o######oooo#::####o#OOOOO###OOOOO###:::::::##ooooo&&&&&&&##   #::::::::",
"::::::::##ooo##ooo##::::####OOOOOO##OOOOO#O###:#####ooooooo&&&&&##   + #:::::::",
":::::::##oooo##ooo#::::##OO#OOOOOO##OOOOO#Ooo###ooooooooooo&&&&##   ++  #::::::",
":::::::#ooooo##oo##::###oOO#OOOOO####OOOO#ooooooooooooooooo&&&&#   ++  ##&:::::",
":::::::##ooo#$$#######ooooo#OOOO##  ##OO#oooooooooooooooo##&&&&## ++   #&&&::::",
"::::::::####$$$$$$$$ooooooo##OO##     ### oooooooooooooo##::&&&&##    #&&&&::::",
":::::::::$$$$$$$$$$$oooooooo####          ooooooooooooo##:::&&&&&##  #&&&&&::::",
"::::::::$$$$$$$$$oooooooooooo#             ooooooooooo##:::::&&&&&###&&&&&:::::",
":::::::::##oooooooooooooooooo              ooooooooo###:::::::&&&&&#&&&&&::::::",
"::::::::::##ooooooooooooooooo               oooooo###::::::::::&&&&&&&&&:::::::",
":::::::::::#oooooooooooooooo                oooo##::::::::::::::&&&&&&&::::::::",
"::::::::::::#ooooooooooo#ooo                oo####::::::::::::::::&&&&:::::::::",
"::::::::::::####oooooo###ooo                ooo#o##::::::::::::::::&&::::::::::",
"::::::::::::::::######::#ooo                ooo#oo#::::::::::::::::::::::::::::",
"::::::::::::::::::::::::#ooo                ooo#oo#::::::::::::::::::::::::::::",
"::::::::::::::::::::::::#ooo                ooo#o##::::::::::::::::::::::::::::",
"::::::::::::::::::::::::#oooo              oooo###:::::::::::::::::::::::::::::",
"::::::::::::::::::::::::#oooo              oooo##::::::::::::::::::::::::::::::",
"::::::::::::::::::::::::#oooo              oooo#:::::::::::::::::::::::::::::::",
"::::::::::::::::::::::::#ooooo            ooooo#:::::::::::::::::::::::::::::::",
"::::::::::::::::::::::::##ooooo           ooooo#:::::::::::::::::::::::::::::::",
":::::::::::::::::::::::::#oooooo          oooooo#::::::::::::::::::::::::::::::",
":::::::::::::::::::::::::#oooooooo       ooooooo#::::::::::::::::::::::::::::::",
"::::::::::::::::::::::::::#oooooooo    ooooooooo##:::::::::::::::::::::::::::::",
"::::::::::::::::::::::::::#oooooooooooooooooooooo#:::::::::::::::::::::::::::::",
"::::::::::::::::::::::::::#oooooooooooooooooooooo##::::::::::::::::::::::::::::",
"::::::::::::::::::::::::::#ooooooooooo#ooooooooooo#::::::::::::::::::::::::::::",
"::::::::::::::::::::::::::#ooooooooooo##oooooooooo#::::::::::::::::::::::::::::",
"::::::::::::::::::::::::::#oooooooooo####ooooooooo#::::::::::::::::::::::::::::",
":::::::::::::::::::::::::#ooooooooooo#::#oooooooo##::::::::::::::::::::::::::::",
":::::::::::::::::::::::::#oooooooooo#:::##oooooo##:::::::::::::::::::::::::::::",
":::::::::::::::::::::::::#oooooooooo#::::##oooo##::::::::::::::::::::::::::::::",
":::::::::::::::::::::::::#ooooooooo#::::::######:::::::::::::::::::::::::::::::",
"::::::::::::::::::::::::::#oooooooo#::::::::#::::::::::::::::::::::::::::::::::",
"::::::::::::::::::::::::::#oooooooo#:::::::::::::::::::::::::::::::::::::::::::",
"::::::::::::::::::::::::::#oooooooo#:::::::::::::::::::::::::::::::::::::::::::",
"::::::::::::::::::::::::::#ooooooo#::::::::::::::::::::::::::::::::::::::::::::",
"::::::::::::::::::::::::::#ooooooo#::::::::::::::::::::::::::::::::::::::::::::",
"::::::::::::::::::::::::::##oooooo#::::::::::::::::::::::::::::::::::::::::::::",
":::::::::::::::::::::::::::#oooooo#::::::::::::::::::::::::::::::::::::::::::::",
":::::::::::::::::::::::::::##ooooo#::::::::::::::::::::::::::::::::::::::::::::",
"::::::::::::::::::::::::::::##oo##:::::::::::::::::::::::::::::::::::::::::::::",
":::::::::::::::::::::::::::::####::::::::::::::::::::::::::::::::::::::::::::::",
":::::::::::::::::::::::::::::::::::::::::::::::::::::::::::::::::::::::::::::::",
":::::::::::::::::::::::::::::::::::::::::::::::::::::::::::::::::::::::::::::::",
":::::::::::::::::::::::::::::::::::::::::::::::::::::::::::::::::::::::::::::::",
":::::::::::::::::::::::::::::::::::::::::::::::::::::::::::::::::::::::::::::::",
":::::::::::::::::::::::::::::::::::::::::::::::::::::::::::::::::::::::::::::::",
":::::::::::::::::::::::::::::::::::::::::::::::::::::::::::::::::::::::::::::::",
":::::::::::::::::::::::::::::::::::::::::::::::::::::::::::::::::::::::::::::::",
":::::::::::::::::::::::::::::::::::::::::::::::::::::::::::::::::::::::::::::::",
":::::::::::::::::::::::::::::::::::::::::::::::::::::::::::::::::::::::::::::::",
":::::::::::::::::::::::::::::::::::::::::::::::::::::::::::::::::::::::::::::::"
};
