/* XPM */
static char *eaf822499f5c446d86f98455907d7bb1TqNM7PtNzbLSRojX_4[] = {
/* columns rows colors chars-per-pixel */
"79 103 16 1 ",
"  c white",
". c yellow",
"X c #FFCCFF",
"o c #FF6699",
"O c red",
"+ c #CC9933",
"@ c #CC3366",
"# c #CC3333",
"$ c #66CCFF",
"% c #3366FF",
"& c #004400",
"* c #555555",
"= c #555555",
"- c #555555",
"; c #555555",
": c None",
/* pixels */
":::::::::::::::::::::::::::::::::::::::::::::::::::::::::::::::::::::::::::::::",
":::::::::::::::::::::::::::::::::::::::::::::::::::::::::::::::::::::::::::::::",
":::::::::::::::::::::+:::::::::::::::::::::::::::::::::::::::::::::::::::::::::",
"::::::::::::::::::::+++::::::::::::::::::::::::::::::::::::::::::::::::::::::::",
"::::::::::::::::::::+++::::::::::::::::::::::::::::::::::::::::::::::::::::::::",
"::::::::::::::::::::+++::::::::::::::::::::::::::::::::::::::::::::::::::::::::",
":::::::::::::::::::::::::::::::::::::::::::::::::::::::::::::::::::::::::::::::",
"::::::::::::::::::++:::::::::::::::::::::::::::::::::::::::::::::::::::::::::::",
":::::::::::::::::+++:::::::::::::::::::::::::::::::::::::::::::::::::::::::::::",
":::::::::::::::::+++:::::::::::::::::::::::::::::::::::::::::::::::::::::::::::",
":::::::::::::::::+++:::::::::::::::::::::::::::::::::::::::::::::::::::::::::::",
":::::::::::::::::++::::::::::::::::::::::::::::::::::::::::::::::::::::::::::::",
":::::::::::::::::++::::::::::::::::::::::::::::::::::::::::::::::::::::::::::::",
":::::::::::::::::+:::::::::::::::::::::::::::::::::::::::::::::::::::::::::::::",
":::::::::::::::::+:::::::::::::::::::::::::::::::::::::::::::::::::::::::::::::",
":::::::::::::::::::::::::::::::::::::::::::::::::::::::::::::::::::::::::::::::",
"::::::::::::::$$$$$$:::::::::::::::::::::::::::::::::::::::::::::::::::::::::::",
":::::::::::$$$$     $$$$:::::::::::::::::::::::::::::::::::::::::::::::::::::::",
":::::::::::$           $$::::::::::::::::::::::::::::::::::::::::::::::::::::::",
":::::::::::$     ++    $$::::::::::::::::::::::::::::::::::::::::::::::::::::::",
":::::::::::$    ++++   $:::::::::::::::::::::::::::::::::::::::::::::::::::::::",
":::::::::::$++++++++++ $:::::::::::::::::::::::::::::::::::::::::::::::::::::::",
":::::::::::$++++++++++$$:::::::::::::::::::::::::::::::::::::::::::::::::::::::",
":::::::::::$$++++++++$$::::::::::::::::::::::::::::::::::::::::::::::::::::::::",
"::::::::::::$$+++$$+$$:::::::::::::::::::::::::::::::::::::::::::::::::::::::::",
":::::::::::::$$$$#####:::::::::::::::::::::::::::::......::::::::::::::::::::::",
"::::::::::::#####oooo##::::::::::::::::::::::::::::.....:::::::::::::::::::::::",
":::::::::::##oo##ooooo#::::::::::::::::::::::::::::.....:::::::::::::::::::::::",
":::::::::::#ooo###oooo#::::::::::::::::::::::::::::....::::::::::::::::::::::::",
":::::::::::#o######ooo#::::::::::::::::::::::::::::...:::::::::::::::::::::::::",
":::::::::::##ooo#$#ooo#:::::::::::::::::::::::::::::..::OO:::::::::::::::::::::",
":::::::::::#oooo#$#ooo#:::::::::::::::::::::::::::##.OOOOOOO:::::::::::::::::::",
":::::::::::#oo##$$$####::::::::::::::::::::::::####O##OOOOOOO::::::::::::::::::",
":::::::::::####$$$$$$##::::::::::::::::::::#####OOOO#% OOOOOO::::::::::::::::::",
":::::::::::#$$$$$$$$$$$$:::::::::::::::######O  OO##%%%::OOOO::::::::::::::::::",
"::::::::::::##o####oo#::::::::::::::####  OOOO  O##:%%%:::OO:::::::::::::::::::",
":::::::::::::#ooooooo#:::::::::######O    OOOOOO##::%%%%:::::::::::::::::::::::",
":::::::::::::#ooooooo##::::######OOOOOO  O##OOOO#::%%%%%:::::::::::::::::::::::",
":::::::::::::#oooooooo##::###ooo###OO#####X#O  #::%%%%%%:::::::::::::::::::::::",
":::::::::::::#oooXX##o#####ooooooo####XXXXX#  ##::%%%%%%:::::::::::::::::::::::",
":::::::::::::#oooXXoo###oooooooooooo#XXXXX### #::::::::::::::::::::::::::::::::",
":::::::::::::#ooo#ooooooo&&&&ooooooo##XXXX##O#:::::::::::::::::::::::::::::::::",
":::::::::::::#oo#ooooooo&&oo&oooooooo#XXX##OO#:::::::::::::::::::::::::::::::::",
":::::::::::::#oo#ooooooo&oo&&oooooooo########::::::::::::::::::::::::::::::::::",
":::::::::::::#oo# ooooooooo&&ooooooooo##oo##:::::::::::::::::::::::::::::::::::",
":::::::::::::#oo##   #ooooo&oooooooooo#oo##::::::::::::::::::::::::::::::::::::",
":::::::::::::##oo##### oooooooooooooooooo##::::::::::::::::::::::::::::::::::::",
"::::::::::::::#ooooo#   ooooooOOoooooooo##:::::::::::::::::::::::::::::::::::::",
"::::::::::::::#oooo#    o##oOOOOOOooooo##::::::::::::::::::::::::::::::::::::::",
"::::::::::::::#o#oo#    oo###OOOOOOoooo#:::::::::::::::::::::::::::::::::::::::",
"::::::::::::::#o###    #oooO##OOOOOoooo#:::::::::::::::::::::::::::::::::::::::",
"::::::::::::::#o#      ##ooOO##OOOOooo##:::::::::::::::::::::::::::::::::::::::",
"::::::::::::::###o    oo#ooOOO##OOOoooo##::::::::::::::::::::::::::::::::::::::",
":::::::::::::::##ooooooo##ooOOO#OOoooooo##:::::::::::::::::::::::::::::::::::::",
"::::::::::::::::##ooooooo#ooooOOooooooo###:::::::::::::::::::::::::::::::::::::",
":::::::::::::::#O##ooo##o#ooooooooooo###:::::::::::::::::::::::::::::::::::::::",
"::::::::::::::##O#######o#ooooooooooo##::::::::::::::::::::::::::::::::::::::::",
"::::::::::::::#OOO###OO###ooooooooo###:::::::::::::::::::::::::::::::::::::::::",
"::::::::::::::#OOO##OOO####oooo##o##:::::::::::::::::::::::::::::::::::::::::::",
":::::::::::::##OOO#OOOO#O##########::::::::::::::::::::::::::::::::::::::::::::",
":::::::::::::#OOO##OOOO#OOO###ooo#####:::::::::::::::::::::::::::::::::::::::::",
":::::::::::::#####O#OO######ooooooooo###:::::::::::::::::::::::::::::::::::::::",
":::::::::::::##::####O#oooooooooooooooo###:::::::::::::::::::::::::::::::::::::",
":::::::::::::::::## ###oooooooo&&&ooooooo##:::::::::######:::::::::::::::::::::",
":::::::::::::::::##  ## oooooo&&&&&oooooooo##:::::###oooo##::::::::::::::::::::",
":::::::::##::::::##      oooo&&&&&####oooooo##:::##ooooooo#::::::::::::::::::::",
"::::::::####:::::#       ooooo&&####ooooooooo#::#ooooooooo#::::::::::::::::::::",
"::::::::#oo#:::::#       ooooo###oooooooooooo#:##oooooooo##::::::::::::::::::::",
":::::::##oo##::::#       ooooo#oooooooooooooo###oooo######:::::::::::::::::::::",
":::::::#ooo##::::#        ooo#ooooooooooooooo##oooo##::::::::::::::::::::::::::",
"::::::##ooo#:::::#        ooo#oooooooooooooo###ooo##:::::::::::::::::::::::::::",
"::::::#oooo#####:#        oooo##ooooooooo######ooo#::::::::::::::::::::::::::::",
"::::::#oooo#ooo###        oooo#oooooooo####::#ooo##::::::::::::::::::::::::::::",
":::::##oooooooooo##       oooo#ooooooo##::::##ooo#:::::::::::::::::::::::::::::",
":::::#oooooooooooo#       oooo##oooo###&&:::#oooo#:::::::::::::::::::::::::::::",
":::::#oooooooooooo#       ooooo######&&&&&:##ooo##:::::::::::::::::::::::::::::",
":::::#oooooooooooo##      oooooo##&&&&&&&&##oooo#::::::::::::::::::::::::::::::",
":::::#ooooooooooooo#      oooooo&&&&&&&&&&&oooo##::::::::::::::::::::::::::::::",
":::::#####oooooooooo      oooooo&&&&&&    &&ooo#:::::::::::::::::::::::::::::::",
"::::::::###oooooooooo     oooooo&&&&      &&oo##:::::::::::::::::::::::::::::::",
":::::::::::###oooooooo   ooooooo&&&&   ++++&oo#::::::::::::::::::::::::::::::::",
":::::::::::::##ooooooooooooooooo&&&& ++++  &###::::::::::::::::::::::::::::::::",
"::::::::::::::###ooooooooo#oooooo&&&  +    &&#:::::::::::::::::::::::::::::::::",
"::::::::::::::::###oooooo#ooooooo&&&&      &&::::::::::::::::::::::::::::::::::",
"::::::::::::::::::##ooooo#ooooooo&&&&   &&&&&::::::::::::::::::::::::::::::::::",
":::::::::::::::::::###oo##oooooooo&&&&&&&&&&&::::::::::::::::::::::::::::::::::",
"::::::::::::::::::::::####oooooooo&&&&&&&&&&:::::::::::::::::::::::::::::::::::",
"::::::::::::::::::::::::#ooooooooo&&&&&&&&:::::::::::::::::::::::::::::::::::::",
"::::::::::::::::::::::::#oooooooooo&&&&&:::::::::::::::::::::::::::::::::::::::",
"::::::::::::::::::::::::##ooooooooo#&::::::::::::::::::::::::::::::::::::::::::",
"::::::::::::::::::::::::##ooooooooo##::::::::::::::::::::::::::::::::::::::::::",
":::::::::::::::::::::::::#oooooooooo#::::::::::::::::::::::::::::::::::::::::::",
":::::::::::::::::::::::::#oooooooooo#::::::::::::::::::::::::::::::::::::::::::",
":::::::::::::::::::::::::##oooooooo##::::::::::::::::::::::::::::::::::::::::::",
"::::::::::::::::::::::::::##ooooooo##::::::::::::::::::::::::::::::::::::::::::",
":::::::::::::::::::::::::::#oooooo##:::::::::::::::::::::::::::::::::::::::::::",
":::::::::::::::::::::::::::##oooo##::::::::::::::::::::::::::::::::::::::::::::",
":::::::::::::::::::::::::::#ooooo#:::::::::::::::::::::::::::::::::::::::::::::",
"::::::::::::::::::::::::::##ooo##::::::::::::::::::::::::::::::::::::::::::::::",
"::::::::::::::::::::::::::##oo##:::::::::::::::::::::::::::::::::::::::::::::::",
":::::::::::::::::::::::::::####::::::::::::::::::::::::::::::::::::::::::::::::",
"::::::::::::::::::::::::::::#::::::::::::::::::::::::::::::::::::::::::::::::::",
":::::::::::::::::::::::::::::::::::::::::::::::::::::::::::::::::::::::::::::::"
};
