/* XPM */
static char *eaf822499f5c446d86f98455907d7bb1TqNM7PtNzbLSRojX_0[] = {
/* columns rows colors chars-per-pixel */
"79 103 16 1 ",
"  c white",
". c yellow",
"X c #FFCCFF",
"o c #FF6699",
"O c red",
"+ c #CC9933",
"@ c #CC3366",
"# c #CC3333",
"$ c #66CCFF",
"% c #3366FF",
"& c #004400",
"* c #555555",
"= c #555555",
"- c #555555",
"; c #555555",
": c None",
/* pixels */
":::::::::::::::::::::::::::::::::::::::::::::::::::::::::::::::::::::::::::::::",
":::::::::::::::::::::::::::::::::::::::::::::::::::::::::::::::::::::::::::::::",
":::::::::::::::::::::::::::::::::::::::::::::::::::::::::::::::::::::::::::::::",
":::::::::::::::::::::::::::::::::::::::::::::::::::::::::::::::::::::::::::::::",
":::::::::::::::::::::::::::::::::::::::::::::::::::::::::::::::::::::::::::::::",
":::::::::::::::::::::::::::::::::::::::::::::::::::::::::::::::::::::::::::::::",
":::::::::::::::::::::::::::::::::::::::::::::::::::::::::::::::::::::::::::::::",
":::::::::::::::::::::::::::::::::::::::::::::::::::::::::::::::::::::::::::::::",
":::::::::::::::::::::::::::::::::::::::::::::::::::::::::::::::::::::::::::::::",
":::::::::::::::::::::::::::::::::::::::::::::::::::::::::::::::::::::::::::::::",
":::::::::::::::::::::::::::::::::::::::::::::::::::::::::::::::::::::::::::::::",
":::::::::::::::::::::::::::::::::::::::::::::::::::::::::::::::::::::::::::::::",
":::::::::::::::::::::::::::::::::::::::::::::::::::::::::::::::::::::::::::::::",
":::::::::::::::::::::::::::::::::::::::::::::::::::::::::::::::::::::::::::::::",
":::::::::::::::::::::::::::::::::::::::::::::::::::::::::::::::::::::::::::::::",
":::::::::::::::...:::::::::::::::::::::::::::::::::::::::::::::::::::::::::::::",
":::::::O+++:::::....:::::::::::::::::::::::::::::::::::::::::::::::::::::::::::",
"::::::O+++++::::.....::::::::::::::::::::::::::::::::::::::::::::::::::::::::::",
":::::OO+++++:::......::::::::::::::::::::::::::::::::::::::::::::::::::::::::::",
"::::OOO++++OO::.....:::::::::::::::::::::::::::::::::::::::::::::::::::::::::::",
":::OOOOOO+OOO::.....:::::::::::::::::::::::::::::::::::::::::::::::::::::::::::",
":::::+++OOOOOOO....::::::::::::::::::::::::::::::::::::::::::::::::::::::::::::",
":::%%++++OOOOOO ..:::::::::::::::::::::::::::::::::::::::::::::::::::::::::::::",
":::%%++++%%%OO#..:::::::::::::::###::::::::::::::::::::::::::::::::::::::::::::",
"::::%%++%%%:%######::::::::::::#####:::::::::::::::::::::::::::::::::::::::::::",
"::::%%%$$$$$$#OO########:::::::#o#X##::::::::::::::::::::::::::::::::::::::::::",
"::::$$$$    $$OO   OOO#####:::#oo#XX#::::::::::::::::::::::::::::::::::::::::::",
"::$$$        $OO   OOOOO  ######o#XX##:::::::::::::::::::::::::::::::::::::::::",
":$$   +++++  $#OO OOO##O    OO####XXX#:::::::::#::::::####:::&#########&&&:::::",
":$   ++++++++$#OOOOOO#X####OOOOOO##X###:::::::##::#####oo##:&&##  ++  #&&&&::::",
":$  +++++++++$##OOOOO#XXXX##OOOO#######::::::##::##oo##ooo##&&#   ++  #&&&&::::",
":$$++++++++++$##OOOOO#XXXXX##O###ooooo##:::::#&&&#oooo#oooo#&&#   ++  #&&&&::::",
"::$$++++###+$####OOOO#XXXXXX###oooooooo##:::##&&&##oo###ooo#&&#   ++  #&&&&::::",
":::$$++##o####o##  OO#XXXXX####ooooooooo##::#:&&&&###o##oo##&&##      #&&&&::::",
"::::$###ooo##ooo#   O##XXX##ooooooooo&&oo#:##:&&&&&#ooo####&&&&########&&&&::::",
":::::#oooo###ooo##  #o#XX##oooooooooo&o&o#####&&&&&#ooo#&&&&&&&&&&&&&&&&&&&::::",
"::::##ooo####ooo#OOO#o#X##ooooooooooo&&o&o#oo#:#####ooo#&&&&&&&&&&&&&&&&&&&::::",
"::::#ooo##oo#ooo##OO#o###ooooooooooooo&ooo#o#####:#ooooooo&&&&&&&&&&&&&&&&&::::",
"::::##oo#ooo##o##:###oo#oooooo&&&oooooXXoooo####::##oooooo#&&&&&&&&&&&&&&&:::::",
"::::##ooooo####$#::#oooooooooo&o&&oooXXXooo##o##::#oooooo##:::&&&&&&&&&&&::::::",
":::::#ooooo##$$$$::#oooooooooo&oo&&ooXX##o###o##::#oooooo##::::::::::::::::::::",
"::::::#ooo##$$$$#:##oooooooooo&oooooooo##### o##:##oooooo#:::::::::::::::::::::",
"::::::#####$$$$o####oooooooooo&ooooooo##@@#  o#::#ooooooo#:::::::::::::::::::::",
"::::::::##$$$oooo###oooooooooooooooo###@@@#  o#:#oooooooo#:::::::::::::::::::::",
"::::::::###oooooo###ooooooOOOOoooooo####@@# o####ooooooo##:::::::::::::::::::::",
":::::::::##ooooooo##oooooOOOOOOoooo    ##@# ####oooooooo#::::::::::::::::::::::",
"::::::::::#oooooooo#oooooOOOOOOOooo     ### ###ooooooooo#::::::::::::::::::::::",
"::::::::::##oooooo##oooooOOO###Oooo        o##ooooooooo##::::::::::::::::::::::",
":::::::::::#ooooo##ooooooOO#OOOOoooo       ###ooooooooo#:::::::::::::::::::::::",
":::::::::::##oooo####oooo##OOOOOooooo     o####ooooooo##:::::::::::::::::::::::",
"::::::::::::##oooooo#oo##ooOOOOo#oooooooooo#OO#ooooooo#::::::::::::::::::::::::",
":::::::::::::#oooooo#o##ooooooo#oooooooooo##OO##ooooo##::::::::::::::::::::::::",
":::::::::::::##oooo####ooooooo#ooo###ooooo#OOOO#oooo##:::::::::::::::::::::::::",
"::::::::::::::##oooo####oooooo#oo##O####o#OOOOO#ooo##::::::::::::::::::::::::::",
":::::::::::::::##oo##o#########oo#OOOO####OOOOO##oo#:::::::::::::::::::::::::::",
"::::::::::::::::####ooooooooO#####OOOOOO###########::::::::::::::::::::::::::::",
":::::::::::::::::##ooooooooo##OOO#OOOOOO#O     oo##::::::::::::::::::::::::::::",
"::::::::::::::::::##oooooooo#ooOO##OOOOO#      ooo##:::::::::::::::::::::::::::",
":::::::::::::::::::###oooooo#ooooo#OOOO##       ooo#:::::::::::::::::::::::::::",
":::::::::::::::::::::###oooo#ooooo##OO##         oo##::::::::::::::::::::::::::",
":::::::::::::::::::::::##oooooooooo#O##           oo#::::::::::::::::::::::::::",
":::::::::::::::::::::::::#ooooooooo###            oo##:::::::::::::::::::::::::",
":::::::::::::::::::::::::##ooooooooo              ooo#####:::::::::::::::::::::",
"::::::::::::::::::::::::::#ooooooooo               oooooo###:::::::::::::::::::",
"::::::::::::::::::::::::::##oooooooo               oooooooo##::::::::::::::::::",
":::::::::::::::::::::::::::#ooooooooo              ooooooooo##:::::::::::::::::",
"::::::::::::::::::::::::::::#oooooooo             ooooooooooo#:::::::::::::::::",
"::::::::::::::::::::::::::::##oooooooo            ooooooooooo#:::::::::::::::::",
":::::::::::::::::::::::::::::##ooooooo           oooooooooooo#:::::::::::::::::",
"::::::::::::::::::::::::::::###oooooooo         ooooooooooooo#:::::::::::::::::",
":::::::::::::::::::::::::####o##ooooooooooooooooooooooooooooo#:::::::::::::::::",
"::::::::::::::::::::::::##ooooo#ooooooooooooooo#####oooooooo##:::::::::::::::::",
"::::::::::::::::::::::::#ooooo##ooooooooooooo###::##oooooooo#::::::::::::::::::",
":::::::::::::::::::::::#oooooo#oooooooooooo###:::##oooooooo##::::::::::::::::::",
":::::::::::::::::::::::#oooo###ooooooooooo##::::##ooooooooo#:::::::::::::::::::",
"::::::::::::::::::::::##oo####ooooooooooo##::::##ooooooooo#::::::::::::::::::::",
":::::::::::::::::#::::#ooo#::#ooooooooooo#######ooooooooo##::::::::::::::::::::",
"::::::::::::::::#######oo##::#oooooooooooooooo##oooooooo##:::::::::::::::::::::",
":::::::::::::::#ooo##oooo#:::#oooooooooooooooo###ooooooo#::::::::::::::::::::::",
":::::::::::::::#ooooooooo#:::#ooooooooooooooooo##oooooo#:::::::::::::::::::::::",
":::::::::::::::##ooooooo#::::#ooooooooooooooooo###ooooo#:::::::::::::::::::::::",
"::::::::::::::::#oooooo##::::#ooooooooooooooooo#:##oooo#:::::::::::::::::::::::",
":::::::::::::::::#######::::::#oooooooooooooooo##:##oo##:::::::::::::::::::::::",
":::::::::::::::::::::::::::::::#oooooooooo#oooo##::####::::::::::::::::::::::::",
"::::::::::::::::::::::::::::::::############oooo#::::::::::::::::::::::::::::::",
":::::::::::::::::::::::::::::::::::###:::::###o##::::::::::::::::::::::::::::::",
":::::::::::::::::::::::::::::::::::::::::::::###:::::::::::::::::::::::::::::::",
":::::::::::::::::::::::::::::::::::::::::::::::::::::::::::::::::::::::::::::::",
":::::::::::::::::::::::::::::::::::::::::::::::::::::::::::::::::::::::::::::::",
":::::::::::::::::::::::::::::::::::::::::::::::::::::::::::::::::::::::::::::::",
":::::::::::::::::::::::::::::::::::::::::::::::::::::::::::::::::::::::::::::::",
":::::::::::::::::::::::::::::::::::::::::::::::::::::::::::::::::::::::::::::::",
":::::::::::::::::::::::::::::::::::::::::::::::::::::::::::::::::::::::::::::::",
":::::::::::::::::::::::::::::::::::::::::::::::::::::::::::::::::::::::::::::::",
":::::::::::::::::::::::::::::::::::::::::::::::::::::::::::::::::::::::::::::::",
":::::::::::::::::::::::::::::::::::::::::::::::::::::::::::::::::::::::::::::::",
":::::::::::::::::::::::::::::::::::::::::::::::::::::::::::::::::::::::::::::::",
":::::::::::::::::::::::::::::::::::::::::::::::::::::::::::::::::::::::::::::::",
":::::::::::::::::::::::::::::::::::::::::::::::::::::::::::::::::::::::::::::::",
":::::::::::::::::::::::::::::::::::::::::::::::::::::::::::::::::::::::::::::::",
":::::::::::::::::::::::::::::::::::::::::::::::::::::::::::::::::::::::::::::::",
":::::::::::::::::::::::::::::::::::::::::::::::::::::::::::::::::::::::::::::::",
":::::::::::::::::::::::::::::::::::::::::::::::::::::::::::::::::::::::::::::::"
};
