/* XPM */
static char *eaf822499f5c446d86f98455907d7bb1TqNM7PtNzbLSRojX_1[] = {
/* columns rows colors chars-per-pixel */
"79 103 16 1 ",
"  c white",
". c yellow",
"X c #FFCCFF",
"o c #FF6699",
"O c red",
"+ c #CC9933",
"@ c #CC3366",
"# c #CC3333",
"$ c #66CCFF",
"% c #3366FF",
"& c #004400",
"* c #555555",
"= c #555555",
"- c #555555",
"; c #555555",
": c None",
/* pixels */
":::::::::::::::::::::::::::::::::::::::::::::::::::::::::::::::::::::::::::::::",
":::::::::::::::::::::::::::::::::::::::::::::::::::::::::::::::::::::::::::::::",
":::::::::::::::::::::::::::::::::::::::::::::::::::::::::::::::::::::::::::::::",
":::::::::::::::::::::::::::::::::::::::::::::::::::::::::::::::::::::::::::::::",
":::::::::::::::::::::::::::::::::::::::::::::::::::::::::::::::::::::::::::::::",
":::::::::::::::::::::::::::::::::::::::::::::::::::::::::::::::::::::::::::::::",
":::::::::::::::::::::::::::::::::::::::::::::::::::::::::::::::::::::::::::::::",
":::::::::::::::::::::::::::::::::::::::::::::::::::::::::::::::::::::::::::::::",
":::::::::::::::::::::::::::::::::::::::::::::::::::::::::::::::::::::::::::::::",
":::::::::::::::::::::::::::::::::::::::::::::::::::::::::::::::::::::::::::::::",
":::::::::::::::::::::::::::::::::::::::::::::::::::::::::::::::::::::::::::::::",
":::::::::::::::::::::::::::::::::::::::::::::::::::::::::::::::::::::::::::::::",
":::::::::::::::::::::::::::::::::::::::::::::::::::::::::::::::::::::::::::::::",
":::::::::::::::::::::::::::::::::::::::::::::::::::::::::::::::::::::::::::::::",
":::::::::::::::::::::::::::::::::::::::::::::::::::::::::::::::::::::::::::::::",
":::::::::::::::::::::::::::::::::::::::::::::::::::::::::::::::::::::::::::::::",
":::::::::::::::::::::::::::::::::::::::::::::::::::::::::::::::::::::::::::::::",
":::::::::::::::::::::::::::::::::::::::::::::::::::::::::::::::::::::::::::::::",
"::::::::::::::::OO:::::::::::::::::::::::::::::::::::::::::::::::::::::::::::::",
":::::::::::::::OOOO::::::::::::::::::::::::::::::::::::::::::::::::::::::::::::",
"::::::::::::::OOOOOO:::.:::::::::::::::::::::::::::::::::::::::::::::::::::::::",
":::::::::::::OOOOOOO:::..::::::::::::::::::::::::::::::::::::::::::::::::::::::",
":::::::::::::OOOOOOO:::...:::::::::::::::::::::::::::::::::::::::::::::::::::::",
":::::::::::::OOOOOOO::....:::::::::::::::::::::::::::::::::::::::::::::::::::::",
":::::::::::::::::OOO......:::::::::::::::::::::::::::::::::::::::::::::::::::::",
":::::::::::::::%%%%%## ....::::::::::::::::::::::::::::::::::::::::::::::::::::",
":::::::::::::%%%%%%#O##::::::::::::::::::::::::::::::::::::::::::::::::::::::::",
"::::::::::::%%%%%%:#OO##:::::::::::::::::::::::::::::::::::::::::::::::::::::::",
"::::::::::::%%%%%%:#OOO###:::::::::::::::::::::::::::::::::::::::::::::::::::::",
":::::::::::::%%%%::#O  OO##::::::::::::::::::::::::::::::::::::::::::::::::::::",
"::::::::::::::%%:::#O   OO###::::::::::::::::::::::::::::::::::::::::::::::::::",
":::::::::::::::%:::#O   OOO###::::::::::##:::::::::::::::::::::::::::::::::::::",
":::::::::::::::::::#OOOOOOO  ###::::::##XX#::::::::::::::::::::::::::::::::::::",
":::::::::::::::::::#OOOOOO    O##:::::#XXX#::::::::::::::::::::::::::::::::::::",
":::::::::::::::::::##OOOOOO  OOO##:::#XXXX#::::::::::::::::::::::::::::::::::::",
"::::::::::::::::::::#OOOOOOOOOOOO##:##XXXX##:::::::::::::::::::::::::::::::::::",
":::::::::::::::::::##  OOOOOOOOOOO###XXXXXX#:::::::::::::::::::::::::::::::::::",
":::::::::::::::::##### OOOOOOOOOOOOO#XXXXXX#:::::::::::::::::::::::::::::::::::",
":::::::::++++::::#XX####OOOOOOOO######XXXXX#:::::::::::::::::::::::::::::::::::",
":::::::::++++::::##XXXX###OOOO###ooo######X#:::::::::&&::::::::::::::::::::::::",
":::::::::+++:::::##XXXXXX######oooooooooo###::::::::&&&&:::::::::::::::::::::::",
"::::::::::::$$$$$$$XXXXX##oooooooooooooooo##:::::::&&&&&&#####:::::::::::::::::",
"::::::::$$$$$     $$XXXX#oooooooooooooooooo##::::::&&&&&##ooo#:::::::::::::::::",
"::::::$$$       $$$$XX##oooooooooooooo&&ooo##:###::&&&&&#oooo###:::::::::::::::",
":::::$    $$$$$$$  $X##oooooooooooooo&o&&oo####o#:::&&&###oo##oo#::::::::::::::",
":::::$$$$$$        $##ooooooooooooooo&oo&&ooooo##::::########ooo##:::::::::::::",
"::::::$       +++++$#oooooo&ooooooooo&ooo&oOOo####:::#oooo##ooooo#:::::::::::::",
"::::::$  ++++++++++$#ooooo&&&oooooooo&ooooOOO######:#ooooo##oooo##&&:::::::::::",
"::::::$$++++++++++$$##oooo&o&&ooooXXXoooooO###OO#:::#ooooo###oo##&&###:::::::::",
":::::::$+++++++++$$::#ooo&&oo&&ooXXXooooooo#OOO##::::#ooo##&####&&## ###:::::::",
":::::::$$$++++++$$:::#ooo&&ooo&oooo##oooo#oo#####::::##oo#&&&&&&&&#    ##::::::",
":::::::::$$$$$$$###::#oooo&oooooooo###### oo#######::##oooo&&&&&&&#   + ##:::::",
":::::::::#######oo##:#oooooooooooo##@###   ooooo#::::#oooooo&&&&&#   +++ ##::::",
"::::::::##ooo##oooo###oo##ooooooo##@@@##   oooo##:::##oooooo&&&&&#  +++   ##:::",
":::::::##ooooo#ooooo#####OOOoooo###@@@#   oooo##:::##ooooooo&&&&&## ++    #&&::",
":::::::#ooooo###oooo##oOOOOO#oo   ###@#   ooo##:::##oooooooo#&&&&&&#     #&&&&:",
":::::::##oo###$##ooo##ooOO##Ooo     ###  oo####:###oooooooo##&&&&&&&##  ##&&&&:",
"::::::::####o####ooo#######Oooo        oo####OO##oooooooooo#::&&&&&&&####&&&&&:",
"::::::::##oooo#$#oo##:##oOOoooooo   oooo##O##Ooooooooooooo#::::&&&&&&&&#&&&&&::",
"::::::::#oooo##$#####:###ooo#oooooooo####OOO#oooooooooooo##:::::&&&&&&&&&&&&&::",
"::::::::#ooo##$$$$$$##:#################OOOO#oooooooooooo#:::::::&&&&&&&&&&&:::",
"::::::::####$$$$$$$$##:###OOOO##OOO####OOOOO#ooooooooooo#::::::::::&&&&&&&&::::",
":::::::::::#$$$$$oo#######ooOOO#OOOOO###OOOO#ooo#ooooo##::::::::::::&&&&&&:::::",
":::::::::::##oooooooooo#ooooooo#OOOOO#  #OOO#ooo##ooo##:::::::::::::::&&:::::::",
":::::::::::##oooooooooooooooooo#OOOO##   ####ooo##o###::::::###::::::::::::::::",
"::::::::::::#oooooooooooooooooo#OOOO#     ## oooo###::::::::#o##:::::::::::::::",
"::::::::::::##ooooooooooooooooo##OO#          ooo##::::::::#ooo#:::::::::::::::",
":::::::::::::#oooooooooooooooooo###           oooo#:::::####ooo#:::::::::::::::",
":::::::::::::##oooooooooooooooooo#             ooo#::####oooooo#:::::::::::::::",
"::::::::::::::#oooooooooooooooooo              ooo###oooooooooo#:::::::::::::::",
":::::::::::::::##ooooo###oooooooo              oo###oooooooooo#::::::::::::::::",
"::::::::::::::::#######:##ooooooo              oo#oooooooooooo#::::::::::::::::",
"::::::::::::::::::##:::::#ooooooo              ooooooooooooooo#::::::::::::::::",
":::::::::::::::::::::::::##oooooo              oooooooooooooo##::::::::::::::::",
"::::::::::::::::::::::::::#ooooooo            ooooooooooooooo#:::::::::::::::::",
":::::::::::::::::####::::::#oooooo            oooooooooooooo#::::::::::::::::::",
":::::::::::::::########::::##ooooo           ooooooooooo#o##:::::::::::::::::::",
"::::::::::::::##oooooo##::::##ooooo          oooooo########::::::::::::::::::::",
"::::::::::::###oooooooo##::::#oooooo       ooooo####:::::::::::::::::::::::::::",
"::::::::::::##oooooooooo######oooooooooooooooo##:::::::::::::::::::::::::::::::",
"::::::::::::#ooooo#ooooooooo##ooooooooooooooo#:::::::::::::::::::::::::::::::::",
"::::::::::::#ooo#####ooooooo#oooooooooooooo##::::::::::::::::::::::::::::::::::",
":::::::::::::####:::##ooooo##ooooooooooooo#::::::::::::::::::::::::::::::::::::",
"::::::::::::::##:::::##oooo#ooooooooooooo#:::::::::::::::::::::::::::::::::::::",
"::::::::::::::::::::::##oo##oooooooooooo#::::::::::::::::::::::::::::::::::::::",
":::::::::::::::::::::::#####ooooooooooo#:::::::::::::::::::::::::::::::::::::::",
"::::::::::::::::::::::::::#ooooooooooo#::::::::::::::::::::::::::::::::::::::::",
"::::::::::::::::::::::::::#oooooooooo#:::::::::::::::::::::::::::::::::::::::::",
"::::::::::::::::::::::::::#oooooooooo#:::::::::::::::::::::::::::::::::::::::::",
"::::::::::::::::::::::::::#oooooooooo#:::::::::::::::::::::::::::::::::::::::::",
"::::::::::::::::::::::::::#oooooooooo##::::::::::::::::::::::::::::::::::::::::",
"::::::::::::::::::::::::::#ooooooooooo##:::::::::::::::::::::::::::::::::::::::",
":::::::::::::::::::::::::::#ooooooooooo##::::::::::::::::::::::::::::::::::::::",
":::::::::::::::::::::::::::#ooooooooooo#:::::::::::::::::::::::::::::::::::::::",
"::::::::::::::::::::::::::::#ooooooooo##:::::::::::::::::::::::::::::::::::::::",
"::::::::::::::::::::::::::::##ooooooo##::::::::::::::::::::::::::::::::::::::::",
"::::::::::::::::::::::::::::##ooooo###:::::::::::::::::::::::::::::::::::::::::",
":::::::::::::::::::::::::::##oooo###:::::::::::::::::::::::::::::::::::::::::::",
":::::::::::::::::::::::::::##oo###:::::::::::::::::::::::::::::::::::::::::::::",
":::::::::::::::::::::::::::####::::::::::::::::::::::::::::::::::::::::::::::::",
":::::::::::::::::::::::::::::::::::::::::::::::::::::::::::::::::::::::::::::::",
":::::::::::::::::::::::::::::::::::::::::::::::::::::::::::::::::::::::::::::::",
":::::::::::::::::::::::::::::::::::::::::::::::::::::::::::::::::::::::::::::::"
};
