/* XPM */
static char *eaf822499f5c446d86f98455907d7bb1TqNM7PtNzbLSRojX_3[] = {
/* columns rows colors chars-per-pixel */
"79 103 16 1 ",
"  c white",
". c yellow",
"X c #FFCCFF",
"o c #FF6699",
"O c red",
"+ c #CC9933",
"@ c #CC3366",
"# c #CC3333",
"$ c #66CCFF",
"% c #3366FF",
"& c #004400",
"* c #555555",
"= c #555555",
"- c #555555",
"; c #555555",
": c None",
/* pixels */
":::::::::::::::::::::::::::::::::::::::::::::::::::::::::::::::::::::::::::::::",
":::::::::::::::::::::::::::::::::::::::::::::::::::::::::::::::::::::::::::::::",
":::::::::::::::::::::::::::::::::::::::::::::::::::::::::::::::::::::::::::::::",
":::::::::::::::::::::::::::::::::::::::::::::::::::::::::::::::::::::::::::::::",
":::::::::::::::::::::::::::::::::::::::::::::::::::::::::::::::::::::::::::::::",
":::::::::::::::::::::::::::::::::::::::::::::::::::::::::::::::::::::::::::::::",
":::::::::::::::::::::::::::::::::::::::::::::::::::::::::::::::::::::::::::::::",
":::::::::::::::::::::::::::::::::::::::::::::::::::::::::::::::::::::::::::::::",
":::::::::::::::::::::::::::::::::::::::::::::::::::::::::::::::::::::::::::::::",
":::::::::::::::::::::::::::::::::::::::::::::::::::::::::::::::::::::::::::::::",
":::::::::::::::::::::::::::::::::::::::::::::::::::::::::::::::::::::::::::::::",
":::::::::::::::::::::::::::::::::::::::::::::::::::::::::::::::::::::::::::::::",
":::::::::::::::::::::::::::::::::::::::::::::::::::::::::::::::::::::::::::::::",
":::::::::::::::::::::::::::::::::::::::::::::::::::::::::::::::::::::::::::::::",
":::::::::::::::::::::::::::::::::::::::::::::::::::::::::::::::::::::::::::::::",
":::::::::::::::::::::::::::::::::::::::::::::::::::::::::::::::::::::::::::::::",
":::::::::::::::::::::::::::::::::::::::::::::::::::::::::::::::::::::::::::::::",
":::::::::::::::::::::::::::::::::::::::::::::::::::::::::::::::::::::::::::::::",
":::::::::::::::::::::::::::::::::::::::::::::::::::::::::::::::::::::::::::::::",
":::::::::::::::::::::::::::::::::::::::::::::::::::::::::::::::::::::::::::::::",
":::::::::::::::::::::::::::::::::::::::::::::::::::::::::::::::::::::::::::::::",
":::::::::::::::::::::::::::::::::::::::::::::::::::::::::::::::::::::::::::::::",
":::::::::::::::::::::::::::::::::::::::::::::::::::::::::::::::::::::::::::::::",
":::::::::::::::::::::::::::::::::::::::::::::::::::::::::::::::::::::::::::::::",
":::::::::::::::::::::::::::::::::::::::::::::::::::O:::::::::::::::::::::::::::",
":::::::::::::::::::::::::::::::::::::::::::::::::::OOO:::::::::::::::::::::::::",
"::::::::::::::::::::::::::::::::::::::::::::..:::::OOOO::::::::::::::::::::::::",
":::::::::::::::::::::::::::::::::::::::::::.....:::OOOO::::::::::::::::::::::::",
"::::::::::::::::::::::::::::::::::::::::::.......::OOOO::::::::::::::::::::::::",
"::::::::::::::::::::::::::::::::::::::::::.......::OOOO::::::::::::::::::::::::",
"::::::::::::::::::::::::::::::::::::::::::........OOOO:::::::::::::::::::::::::",
":::::::::::::::::::::::::::::::::::::::::::::#######OO:::::::::::::::::::::::::",
"::::::::::::::::::::::::::::::##::::::::::#####OOO##%::::::::::::::::::::::::::",
":::::::::::::::::::::::::::::##X#::::::####OO   O##%%%%%:::::::::::::::::::::::",
"::::::::::::::::::::::::::::##XX#:::####   OO   ##%%%%%%%::::::::::::::::::::::",
":::::::::::::::::::::::::::##XXX#####      OOO O#:%%%%%%:::::::::::::::::::::::",
":::::::::::::::::::::::::::#XXXX#OOOOO    OOOOOO#:%%%%%::::::::::::::::::::::::",
"::::::::::::::::::::::::::#XXXXX##OOOOOOOOOOOOO #:%%%%:::::::::::::::::::::::::",
"::::::::::::::::::::::::::#XXXXXX#OOOOOOOOO#### #::%%::::::::::::::::::::::::::",
":::::::::::::::::::::::::#XX#######OOOOOO###XXX##::::::::::::::::::::::::::::::",
"::::::::::::::::::::::::#####ooooo########XXXXX#:::::::::::::::::::::::::::::::",
":::::::::::::::::::::::##oooooooooooo###XXXXXXX#:::::::::::::::::::::::::::::::",
":::::::::::::::::::::::#ooooooooooooooo##XXXXX##:::::::::::::::::::::::::::::::",
":::::::::::::::::::#####o&&&oooooooooooo##XXXX##:::::::::::::::::::::::::::::::",
"::::::::::::::::::##o##o&oo&ooooooooooooo##XX#o#:::::::::::::::::::::::::::::::",
"::::::::::::::::::##OOo&ooo&oooooooo&&&ooo###o#::::::::::::::::::::::::::::::::",
":::::::::::::::::##OOOOooo&oooooooo&oo&&ooooo##::::::::::::::::::::::::::::::::",
"::::::::::::::::######Oooooooooooo&ooo&ooooo##:::::::::::::::::::::::::::::::::",
"::::::::::$$$$$$$$$$$$##oooXXXoooo&ooo&ooooo#::::::::::::::::::::::::::::::::::",
"::::::::::$          $o##oooXXXooooooo&ooooo#::::::::::::::::::::::::::::::::::",
"::::::::::$   +++   +$#ooooo##ooooooooooooo##::::::::::::::::::::::::::::::::::",
"::::::::::$+++++++ ++$ #######ooooooooooooo##::::::::::::::::::::::::::::::::::",
"::::::::::$$+++++++++$   ###@##ooo#oooooOOoo#::::::::::::::::::::::::::::::::::",
":::::::::::$++++++++$$## ##@@@#####ooo########:::::::::::::::::::::::::::::::::",
":::::::::::$$++++++$$o    #@@##     ooOOOO##o##::::::::::::::::::::::::::::::::",
":::::::::::###$$$$$$oo    #@##      ooOOOOOo#####::::::::::::::::::::::::::::::",
"::::::::::##oo#######oo   ###       o##OOOO##::::::::::::::::::::::::::::::::::",
":::::::::##oooo##ooo##oo  #        ooO###O##:::::::::::::::::::::::::::::::::::",
"::::::::##ooooo##oooo##oo        oooooO####::::::::::::::::::::::::::::::::::::",
"::::::::##ooo####oooo####oooooooooooooo####:::&&&&:::::::::::::::::::::::::::::",
"::::::::#####oo###ooo##O###oooooooooo####:##:&&&&&:::::::::::::::::::::::::::::",
":::::::::##ooooo####o#OOOO############O##::##&&&&&#::::::::::::::::::::::::::::",
":::::::::##oooo####oo#OOOO##OOOOO#OOOOoo##:###&#######:::::::::::::::::::::::::",
":::::::::##oooo#$$####OOO###OOOOO#OOOoooo#######ooooo##::::::::::::::::::::::::",
":::::::::#######$$$$$#OO## ##OOOO#ooooooooo####ooooooo##:::::::::::::::::::::::",
"::::::::##oo$$$$$$$$$####   #OOO##oooooooooo##ooooooooo#:::::::::::::::::::::::",
"::::::::#ooo$$$$$$$oo##     ##OO#ooooooooooo#oooooooooo#:::::::::::::::::::::::",
"::::::::#ooooooooooooo       ####ooooooooooo#oooooooooo#:::::::::::::::::::::::",
"::::::::#ooooooooooooo           oooooooooooo#ooooooooo#:::::::::::::::::::::::",
"::::::::#ooooooooooo#o           oooooooooooo#oooooooo##:::::::::::::::::::::::",
"::::::::#oooooooooo##o            ooooooooooo#ooooooo##::::::::::::::::::::::::",
"::::::::##ooooo######o            oooooo###oo##oooo####&&::::::::::::::::::::::",
"::::::::::######::::#o            ooooooo############&&&#&:::::::::::::::::::::",
"::::::::::::::::::::#o            ooooooo##::::&&&&&&### ##::::::::::::::::::::",
"::::::::::::::::::::#o            ooooooo##::::&&&&###   ##::::::::::::::::::::",
"::::::::::::::::::::#o           oooooooo##::::&&&##    + ##:::::::::::::::::::",
"::::::::::::::::::::#oo          oooooooo##::::&&&##  ++++##:::::::::::::::::::",
"::::::::::::::::::::#oo          oooooooo##:::::&&&# +++   #:::::::::::::::::::",
"::::::::::::::::::::#oo          oooooooo##::::#&&&#  +    #:::::::::::::::::::",
"::::::::::::::::::::##oo        ooooooooo#:::::##&&##    ###:::::::::::::::::::",
":::::::::::::::::::::#oo        ooooooooo#::::##o&&&# ###&&&&::::::::::::::::::",
":::::::::::::::::::::##oo      ooooooooo#######oo&&&##&&&&&&:::::::::::::::::::",
":::::::::::::::::::::##ooo    oooooooooo#oo##ooooo&&&&&&&&&&:::::::::::::::::::",
":::::::::::::::::::::#oooooo###oooooooo##ooooooooo&&&&&&&&:::::::::::::::::::::",
":::::::::::::::::::::#ooooooo#ooooooooo#ooooooooo##&&&&&:::::::::::::::::::::::",
"::::::::::::::::::::##oooo##o#oooooooo###ooooooo##:::::::::::::::::::::::::::::",
"::::::::::::::::::::#oooooo###oooooooo#####oo###:::::::::::::::::::::::::::::::",
"::::::::::::::::::::#ooooooo##oooooooo#:::####:::::::::::::::::::::::::::::::::",
"::::::::::::::::::::#oooooooo#oooooooo#::::::::::::::::::::::::::::::::::::::::",
"::::::::::::::::::::##ooooooo#oooooooo#::::::::::::::::::::::::::::::::::::::::",
":::::::::::::::::::::#####ooo#oooooooo#::::::::::::::::::::::::::::::::::::::::",
":::::::::::::::::::::::::###o#oooooooo#::::::::::::::::::::::::::::::::::::::::",
":::::::::::::::::::::::::::#o#oooooooo#::::::::::::::::::::::::::::::::::::::::",
"::::::::::::::::::::::::::#oo#oooooooo#::::::::::::::::::::::::::::::::::::::::",
"::::::::::::::::::::::::::##o#oooooooo##:::::::::::::::::::::::::::::::::::::::",
":::::::::::::::::::::::::::####ooooooo#::::::::::::::::::::::::::::::::::::::::",
"::::::::::::::::::::::::::::::#ooooooo#::::::::::::::::::::::::::::::::::::::::",
":::::::::::::::::::::::::::::#ooooooo#:::::::::::::::::::::::::::::::::::::::::",
":::::::::::::::::::::::::::::#ooooo##::::::::::::::::::::::::::::::::::::::::::",
":::::::::::::::::::::::::::::#ooo###:::::::::::::::::::::::::::::::::::::::::::",
":::::::::::::::::::::::::::::#####:::::::::::::::::::::::::::::::::::::::::::::",
":::::::::::::::::::::::::::::::::::::::::::::::::::::::::::::::::::::::::::::::",
":::::::::::::::::::::::::::::::::::::::::::::::::::::::::::::::::::::::::::::::"
};
