/* XPM */
static char *a01f53e39adf4a5ca0bee9c49130aa28qWeTkEsLGWVl2yfe[] = {
/* columns rows colors chars-per-pixel */
"64 64 208 2 ",
"   c #3D342B",
".  c #3E3830",
"X  c #42362C",
"o  c #44392D",
"O  c #4B3C2E",
"+  c #453C32",
"@  c #4B3D32",
"#  c #533E32",
"$  c #4F402F",
"%  c #52422F",
"&  c #4C4235",
"*  c #4C433A",
"=  c #544335",
"-  c #5B4434",
";  c #574836",
":  c #5D4A34",
">  c #53453A",
",  c #5A453A",
"<  c #54493C",
"1  c #5C4B3C",
"2  c #5D513F",
"3  c #624537",
"4  c #634C34",
"5  c #6A4C37",
"6  c #644739",
"7  c #644A3D",
"8  c #6C4B3B",
"9  c #724D3D",
"0  c #784F3E",
"q  c #6B5336",
"w  c #64523C",
"e  c #6D5539",
"r  c #705537",
"t  c #72543A",
"y  c #79523E",
"u  c #745A3B",
"i  c #7B5D3C",
"p  c #7F613D",
"a  c #544C43",
"s  c #5A4D42",
"d  c #5D5143",
"f  c #565049",
"g  c #5C544B",
"h  c #5B544C",
"j  c #644C41",
"k  c #6A4E41",
"l  c #635444",
"z  c #6C5243",
"x  c #665947",
"c  c #6E5945",
"v  c #62554A",
"b  c #655949",
"n  c #6B5D4B",
"m  c #745446",
"M  c #7A5342",
"N  c #735D44",
"B  c #765748",
"V  c #785648",
"C  c #755B4A",
"Z  c #7C5A4B",
"A  c #635B52",
"S  c #655D56",
"D  c #6B5D54",
"F  c #715D52",
"G  c #6E604D",
"H  c #72624D",
"J  c #7C674E",
"K  c #6D6154",
"L  c #6D645C",
"P  c #746551",
"I  c #7C6C54",
"U  c #73655A",
"Y  c #756B64",
"T  c #756C64",
"R  c #797066",
"E  c #7C736B",
"W  c #7F7771",
"Q  c #82623E",
"!  c #89673F",
"~  c #8D6A3F",
"^  c #835643",
"/  c #895745",
"(  c #865845",
")  c #8B5A46",
"_  c #825E4D",
"`  c #8D5D48",
"'  c #925E49",
"]  c #886640",
"[  c #8C6A41",
"{  c #85614E",
"}  c #926E43",
"|  c #95624B",
" . c #9C644D",
".. c #967145",
"X. c #9A7446",
"o. c #9D7648",
"O. c #866251",
"+. c #8A6452",
"@. c #8F6855",
"#. c #906755",
"$. c #936B56",
"%. c #966D58",
"&. c #996E5A",
"*. c #817256",
"=. c #85755A",
"-. c #88775D",
";. c #8C7A5D",
":. c #9C715C",
">. c #917A59",
",. c #A2664E",
"<. c #A07747",
"1. c #A47B4A",
"2. c #AA7E4C",
"3. c #A46750",
"4. c #A36951",
"5. c #AC6C53",
"6. c #B16F55",
"7. c #AF7056",
"8. c #A0745F",
"9. c #B47156",
"0. c #B87357",
"q. c #B77459",
"w. c #BC765A",
"e. c #BF795C",
"r. c #8D6F60",
"t. c #887A68",
"y. c #947364",
"u. c #967C65",
"i. c #847B73",
"p. c #887F76",
"a. c #A57862",
"s. c #C0775C",
"d. c #C57B5E",
"f. c #C87D5F",
"g. c #C77E60",
"h. c #CA7F60",
"j. c #AD814D",
"k. c #B1844F",
"l. c #A5835B",
"z. c #B48651",
"x. c #B68851",
"c. c #BC8C54",
"v. c #948263",
"b. c #998666",
"n. c #9C8967",
"m. c #998768",
"M. c #9E8B69",
"N. c #8B8077",
"B. c #8C837B",
"V. c #998A70",
"C. c #91867E",
"Z. c #92887F",
"A. c #A28E6B",
"S. c #B48E61",
"D. c #BB816A",
"F. c #A6916D",
"G. c #A9946E",
"H. c #BA9365",
"J. c #AC9671",
"K. c #AE9971",
"L. c #AD9B7D",
"P. c #B49E75",
"I. c #B6A076",
"U. c #B9A277",
"Y. c #BAA378",
"T. c #BDA579",
"R. c #BEA87A",
"E. c #C08F56",
"W. c #C29157",
"Q. c #C59359",
"!. c #C9965B",
"~. c #CD995D",
"^. c #D19C5E",
"/. c #CD8262",
"(. c #D18464",
"). c #D88967",
"_. c #C99D6B",
"`. c #CE8C72",
"'. c #D18F75",
"]. c #D59276",
"[. c #D0A26E",
"{. c #C0A77A",
"}. c #C4AB7C",
"|. c #C9AE7D",
" X c #C7B17F",
".X c #CAB07F",
"XX c #8E8780",
"oX c #958B82",
"OX c #998E85",
"+X c #978F89",
"@X c #9B9087",
"#X c #9D938B",
"$X c #A1968E",
"%X c #A3988F",
"&X c #A59A91",
"*X c #A99E94",
"=X c #B4A281",
"-X c #BDA986",
";X c #ACA097",
":X c #AEA299",
">X c #B3A69D",
",X c #B5A89F",
"<X c #B7AAA0",
"1X c #B9ACA2",
"2X c #C4AF88",
"3X c #CDB381",
"4X c #CEB78C",
"5X c #D1B989",
/* pixels */
"y._ O.{ 7 *. X.X.X|.|.|.{.U.P.P.P.P.P.Y.R.Y.I.G.G C :.$.#.@.$.$.$.%.%.%.@.@.+.O.O.7 7 &.&.%.$.$.+.$.+.$.+.$.$.$.#.#.$.$.$.+.O.O.",
"y.O.O._ z J.U..X|.|.|.T.U.T.U.P.P.Y.P.T.Y.P.P.J.G 1 $.@.+.+.+.+.+.+.+.+.+.@.+.O.O.7 m a.$.%.%.+.+.O.O.O._ +.+.O.O.O.+.@.O.O.O.O.",
"y.O.O.V l P.K.Y.U.U.P.I.Y.Y.I.Y.{.T.P.P.K.A.M.u.>   , B ( _ _ _ O.O.O.O.O.+.O.O._ # Z &.$.%.%.+.O.O.O.O.O.@.O.@.#.$.#.{ O.+.O.O.",
"y._ Z k d I.Y.I.I.I.P.J.P.P.K.n.-.I U P n v g g * a + * a 1 s j j z k 7 B m B B k @ Z a.#.$.$.O.O.O.O.O.O.O.O.O.@.{ _ _ O.O.O.O.",
"$.B k @ + P *.r.v.u.*.x l d & +   o L p.@X#X#X#X&X%XXX@X$XOXZ.p.i.E T T D A g a + o m $.$.$.%.{ O._ O.O.O.O.O.O.O.O._ O._ _ Z O.",
"F , # o o # , j 7 9 9 9 y y y 3   f OX<X<X>X<X<X>X>X<X<X>X>X>X>X>X>X*X*X:X%XOXi.>   7 m _ +.{ m m V V V V V V m m m m m k k k k ",
"&.)  .5.q.e.g.g.E.h.w.9.h.h.d.5., A &X>X>X*X<X<X>X*X>X>X,X>X*X>X>X*X>X>X>X>X>XoXv 8 # , , 7 = @ , , , # # # = # @ + + # 6 M ^ ` ",
"].(.(.(.(.(.(./.h.h.(.(.(.d.d.d. .# i.*X&X*X*X;X:X*X:X*X*X*X*X*X*X@X%X%X$X&X$Xi.v 7 x G H P I I *.I P =.;.;.t.;.C   # ' q.h.).(.",
"].(.(.(.(.(.(.f.h.h.).h.h.h.h.g.,.5 v B.&X&X#X#X#X#X$X#X#X#X#X%X&X&X$X@XXXB.p.S * =.R.}.|.|..X.X3X}.P.}.|.|.{.3XA.# ,.(.(./.(.(.",
"`.h.(.(.(.(./.(.h.).h.h.h.h.h.s.e.9.8 U @X*X&X#X#XOXB.B.OXOXoXC.i.E Y D h d a o + u..X2X|.{.|.|.}.|.|.{.}.{.K.R.*.# q.(./.(.g.h.",
"'./.(.(.h.h.(./.h.(.h.g.g.d.d.d.s.s.` < S L E E Y L L S D F F C z z m m V Z V j & =..X.X}.P.|. X|.|.|.{.P.P.P.F.P # 5.s.e.(.(./.",
"].(././.d.9.f.f.h.h.h.g.w.s.s.w.5.` 3 X     < Z O.O.@.$.%.&.%.&.%.$.%.$.$.$.#.#.1 =. XR.U.I.T.T.{.{.T.P.P.P.K.K.m.s 5.h.h.(.(.(.",
"`.f.f.d.d.d.d.f.f.d.d.9.5.,.) y t ( o.2.i & @.:.&.&.&.&.%.$.$.@.%.%.%.$.%.$.@.+.1 l u.m.v.v.A.-.u.P.I.P.P.P.J.P.M.l ,./.h.h.h.h.",
"`.w.d.f.f.f.f.w.6.,.' / 0 y ! } 2.W.~.~.1.1 O.%.%.O.@.&.#.$.$.$.%.:.%.$.$.$.$.O.j   + > * < * + @ P v.M.F.K.J.v.P & ^ w.g.w.g.g.",
"`.f.d.d.w.5.' ^ 5 Q ~ X.1.2.2.k.E.!.E.~.2.m @.@.%.@.%.%.$.$.%.%.%.$.$.$.+.+.+.O.Z s E OX@XoXi.d + g g v n G l & X X ,.h.s.s.h.g.",
"D.,.' ^ 0 9 i ! } 2.k.k.k.2.k.c.~.~.~.^.2.N %.@.%.$.%.$.$.$.$.$.@.@.O.+.+.O.O.O._ l XX<X1X1X,X%X@X:X*X%XZ.i.T g * @ 5.).(.).(.h.",
"O.5 r i } X.1.2.j.k.k.c.E.x.z.~.~.~.!.k.! e &.$.$.$.+.+.+.+.+.O.+.+.+.O.O.+.+.O._ 1 N.1X>X,X>X,X<X>X>X:X,X;X>X*XZ.d  .d.w.6. .` ",
">.~ X.2.k.k.k.E.Q.!.~.~.~.Q.c.!.!.Q.c.Q O , &.$.+.+.O.O.O.O.O.O.+.O.+.O.Z B m j , + T <X,X>X,X>X>X<X<X:X,X>X:X>X*XL 6 y 5 6 5 t ",
"l.2.x.c.Q.!.~.~.~.E.c.c.x.z.z.z.z.j.1.q X @ Z %.:.&.+.O._ m k k , @ 8 z z - 3 6 - @ g &X:X*X:X*X&X<X>X<X,X%XB.*X#XR X : p } X.<.",
"[.Q.^.^.^.Q.~.Q.c.k.2.2.z.k.z.k.2.<.] = q =   , 7 , s s v A D f o 3 d.(.h.s.w.g.s.,.j B.#X@X#X#X#X#X%X%X%X#XZ.$XB.S : } 1.k.k.x.",
"l.2.x.W.1.u X.o.} [ Q u i i e q : ; & * s A U E Y g B.%X*X:X:X&XY j h.).h.(.h.(.(.w.M S p.#X%X&X%X#XOXN.oX+XoXi.K + % 4 q u Q ! ",
"K 1 1 w 1 + X o * U R E E i.i.B.B.C.OX%X*X>X,X<X>X%X>X<X<X<X:X:X#Xv  ./.f.f.h.h.h.w./ + S p.B.B.XXp.L L L T T L b J *.I ; 1 n w ",
"L.G.K.G.G.;.@ + C.>X>X<X1X<X<X<X1X<X<X<X<X<X>X>X<X>X>X<X>X>X>X<X>XL ^ q.s.0.5.5.5.' # # : H H H c l = +   x M.T.}. X3X3Xn.n.{.G.",
"5X3X.X.X|.U.G T <X%X&X>X>X<X>X>X>X<X:X&X<X:X&X<X<X*X&X<X*XOX<X<X>XT # / ` 0 - 9 i X.2.1.x.Q.Q.!.W.<.j.Q + b..X|.|. X|.{.{.}.|..X",
"2XU.|.|.|.U.I i.1X*X;X>X<X>X>X>X:X<X%XOX:X&X&X*X*X*X*X:X*X+X:X:X%Xi.* X - t ..x.!.~.^.~.z.!.~.~.~.~.!.j.= ;.|.{.|.|.|.{.}.}.}.|.",
"2XA.R.T.P.F.n Z.,X>X,X,X<X<X>X>X:X*X%X#X$X#X#X#X$X#X$X#X#X$X#X#X#Xp.f : z.!.~.~.x.c.~.~.c.!.~.!.!.~.!.j.% I {.|.|.{.R.I.I.P.Y.T.",
"-XP.P.P.P.t.s oX;X>X,X>X:X*X*X&X%X#X#X#X#X#X#X#X#X#X#X#X#X#X#X#X@Xp.h i ~.!.~.~.c.c.~.~.~.~.~.!.!.~.c.1.: b..X.X{.K.P.I.T.I.P.P.",
"-XP.Y.P.P.;.* v R %X:X%X&X&X&X%X#X#X#X#X#X$X#X@X#X$X&X&X%X$X@XXXE A @ ; c.~.~.~.c.x.c.c.c.c.W.W.c.z.j.1.% J U.T.{.}.R.R.Y.P.P.P.",
"=XA.m.=.P s + + s W oX%X&X$XoXp.B.OX#X#X#X$X#X%X$X#XXXN.B.p.E A & % i & [ !.!.z.z.z.z.x.x.j.2.1.o.X...~ %   < n *.M.n.b.P.K.J.J.",
"U < 1 , z O.Z 8 , > < a f A A h L T i.B.XXp.E T h a * a a * +     O - o @ Q [ Q Q ! p u u q q 4 4 : ; $ +       + @ * s G P I P ",
"W + m @.$.y.8.8.&.+.Z k = + o X + + * = * + o # , 3 8 0 8 6 ( ` ^ ^ ) | |  . . .) 3 8 5 = O   * E b i.Z.oXoXi.p.OXB.B.E S S L L ",
"+Xa Z &.+.@.%.%.%.$.$.:.%.O._ Z B B Z B + o | g.g.g.h.(.h.e./.(.(./.(.(.(.(./.d./.w.f.d.9.5.5 K >X$X$X,X>X<X,X<X<X<X<X*X%X#X&X>X",
"i.+ B a.$.$.%.%.$.$.$.$.%.$.%.%.$.$.$.#.# 8 ).)./.(./.d./.(.(.(./.d.h.).h.).h.h.(./.h.h.(././ A >X>X>X>X&X>X>X>X>X>X%X>X*X>X<X*X",
"$Xg , &.%.%.:.%.$.%.$.$.$.$.$.%.$.$.#.O.# , g.(.d.d.(.(.w.h.(.(.h.E.h.h.h.h.h.).(././.(.(./.' s %X<X>X>X<X<X*X@X>X>X>X<X>X>X>X*X",
"*XA 7 &.@.$.%.$.@.$.$.$.#.+.O.+.+.O.O.m + @ w.)./.(.(.(././.(.d.h.h.h.f.d.,.s.h.f.f.s.f.d.d.' F ,X,X>X>X<X>X:X*X*X*X*X&X@X%X&X$X",
"&Xh 7 :.+.O.O.O.O.O.O.@.O.O.O.O.O.O.O._ , @ g.(.(.(.(./.f.d.f.s.g.d.d.d.d.9.g.g.d.d.d.d.w.d.` A >X,X*X>X*X+X%X#X$X#X#X#X#X#X#X@X",
"XXa a _ #.+.O.+.O._ O.O.O.O.O.O.+.O.{ _ # X 6.(.E.h.g.h.w.d.d.s.s.f.f.d.f.f.f.h.f.s.s.s.s.6.6 a @X:X*X&X%X#X#X#X@X#X#X#X@XB.XXoX",
"h a a , m O.O.O.&.$.$.%.#._ k m m k k # @ X M g.w.h.h.d.d.h.f.f.w.6.0.d.s.6.5.w.s.f.s.6.,.M     < g A L i.B.XXp.B.XXB.p.E S f g ",
"v f A + o = 7 ; 7 k k 7 , = @ + # Y p.oXp.i.a M / g.h.h./.d.0.4./ 8 9 M 8 # 3 6 8 8 8 6 k v A L L g +   * a a a f g s > * X X o ",
"H.z.1.} q : q : - O O X + R oXOX$X<X<X<X<X<XoXY k ' 9.5.^ m t 1 c *.u.A.I   @ a A L R Y Z.&X:X>X>X%XR E E h     t o.o.<.2.[ ..z.",
"_.!.^.~.x.2.Q.Q.x.j.2.[ < &X1X<X<X<X<X<X*X:X<X*X#Xn , N ;.G.I.F.P.|.3X}.=.a B.*X:XB.%X*X<X>X*X:X>X;X#X,X:XT   : 2.^.~.~.!.!.Q.~.",
"[.~.~.~._.2.k.^.c.z.~.X.> oX,X:X*X*X*X*X*X:X<X<X,XW n R.2X}.|. XT.}.{.n.v p.>X,X>X#X:X>X>X<X<X*X:X,X>X,XZ.< % ~ ~.~.~.~.!.~.~.~.",
"_.W.W.~.!.!.!.^.!.!.W.X.: p.>X>X*X$X@X@X%X*X&X&X#XL ;.R.P.b.n.G.J.J.u.b i.>X>X<X,X;X*X;X:X<X<X:X>X:X:X#XK o p x.~.!.W.W.c.x.x.c.",
"S.2.2.x.E.Q.!.Q.~.~.~.Q.w N.,X:X#XXX@X*X%X#X+Xp.R a d H c 2 w N 2 > + v :X<X>X<X*X#X#X$X#X#X&X&X#X#X#XW & ; ~ j.2.x.j.j.j.j.1.1.",
"H.2.2.2.2.x.E.1.k.W.!.W.q g i.E L g a D g s 7 7 w e p ! X.j.z.z.1.q   g %X>X>X>X#X#X#X#X#X#X#X#XOX#XoXh O X.E.j...j.j.j.j.j.1.j.",
"H.2.2.2.2.k.2.2.j.2.k.k.u   O 1 u [ o.1.} 2.x.W.!.!.!.~.!.!.!.!.c.} & + t.>X>X*X#X$X$X#X#X#X#X#X#XoXL . 4 k.W.x.j.1.j.j.j.j.j.j.",
"c.x.2.z.k.2.2.2.2.j.j.2.r q z.W.c.~.^.^.~.W.c.~.~.!.c.c.j.j.j.j.2...: o XX*X%X#X*X:X;X*X%XoXi.i.E A .   O u ..~ ~ p ..1.1.j.<.1.",
"J M [ X.2.2.~ ..2.2.j.<.q i ^.~.c.Q.W.x.x.x.z.z.j.j.j.j.j.j.j.j.2.2.! & i.%XoXi.N.oXi.T K f a * & O = O X X X X X X $ % : : 4 4 ",
"V.=.H & o = % - r p [ } 8 q c.!.x.<.2.1.2.1.j.j.k.j.z.z.z.j.<.X.<...~ : a A h * + + @ , 6 y /  .4.q.q.5.,.^ # o l u.n.A.A.M.;.;.",
"4X3XA.< # ) 9 | | ( 3 # # % q r q , q q u q q u p p u u r q q q q : =     @ 8 ( | ` 5.h.(.(.(.).).(.(.(.(.h.^ s v.5X.X|..X.X.X.X",
"5X|.P.=.k h.d.h.).h.g.6.5.3.4.| ` ^ 9 @ x d v.G.M.b.v.=.I l >.=.J n d o O  .(.(.(.(.(.(.(.(.(.h./.(.(.e.g.h.` @ =. X XU.{.|.|.{.",
"2XU..XP.z 9.h.h.f.E.h.h.h.E.f./.(.(.d.8 > M.3X.X.X3X.X.X|.U..X}.U.R.G.l X / /./.(./.(.(.h./.(.h./././././.h.) < m. XU.U.U.J.J.T.",
"-XP.T.{.I ' h.h.g.s.g.g.h.g.g.h.(.h.g.M x .X|.I.}..X|.|.}.|.|.{.G.|.U.I X 8 /.h./.(./.(.(.(.h.(././.f.f.f.w.z @ P v.F.A.G.I.I.I.",
"L.v.=.b.I 8 q.q.9.h.g.E.h.h.h.h./.h.q.^ x G.T.|. X X|.|.T.}..X}.{.|.A.I + 3 d.(.(.(./.g.f.h.h.h.h.d.d.w.,.) = a a d g b d H v.G.",
"D d s < < + = = # ^ ) |  .3.5.5.6.w.7.9 & I U..X|.}.|.{.T.{.{.{.T.T.U.A.x o ,.(.h.h.h.d.s.f.f.f.d.d.d.s.' , R %X&X@XZ.E T S a < ",
"Z.#X#X@XN.B.oXp.v @ : i ( i i ^ u 8 5 o & K. XY.P.T.U.P.K.P.I.P.P.P.P.P.-.+ M g.(.d.g.s.f.f.f.(.(.f.w.,.0 D &X>X>X>X,X:X:X;XOX< ",
":X,X>X;X;X;X&X;XB.{ Q.!.!.Q.W.x.j.o.r   & G.Y.I.I.Y.I.I.I.Y.U.U.Y.P.P.P.A.1 #  .6.,.h.h.h.d.5.' 3.,.^ 8   A OXOXOXoX@X#X#X$X+XA ",
"W E p.C.+X@X#X@Xt.l j.!.c.j.<.<.o.o.~ o & ;.F.F.F.J.R.R.Y.K.J.P.I.P.A.A.m.v   # 6 9 ,.5. .' M = # @ X X   + * > a g A S L T Y A ",
"F , , s f h A v a + - w u e u G p 2 = ; & 2 2 a s d l x x b x b P I P P F + + f f a + o , V O._ Z V m k k k 6 ; 7 6 j 6 j j j j ",
"y.m _ _ ,   2 *.b.F.F.I F.U.T.{.R.I.G.U.G.v.I 2   o z B C B m w @ , < = = + + a L Y * X B 8.:.:.&.8.a.&.&.$.$.+.@.+.#.#.#.@.+.+.",
"u.` %.$.N l T.|.{.|.|.T. X.X|.|.|.|..X|..X|.}.G.< B :.@.&.&.%.$._ @.$.@.+.O._ B = + + , V &.&.$.%.$.&.&.&.:.:.%.%.%.%.%.%.$.%.$.",
"u.$.$.%.Z { .X}.T.|.|.|..X.X{.F.{.|.|.|.|..X.XU.d 7 :.$.$.%.$.%.$.$.$.$.+.%.%.%.+.= @ +.a.a.8.%.%.$.#.%.$.$.$.%.%.%.$.%.$.%.%.$.",
"u.$.$.+.V ;.3X|.|.}.|.|.3X|.{.b.{.|.|.T.|.|.|.{.x C &.%.$.$.$.$.$.%.%.%.$.%.$.$.%.k = O.a.&.$.#.#.$.%.%.O.+.&.%.:.:.%.#._ %.$.+.",
"y.O.+.Z , ;.3X|.|.}.|.|.|.|.}.}.|.}.}.K.|.|.|.R.x C &.%.%.$.$.%.%.&.&.%.$.+.O.$.#.7 @ _ a.&.$.@.#.$.$.%.$.:.:.:.:.$.%.$.Z %.+.+."
};
