/* XPM */
static char *_0a51ba73b704e50ff766a3bdc08c10dZ3lTPGJA0booBOjz[] = {
/* columns rows colors chars-per-pixel */
"64 64 130 2 ",
"   c #6EC7DF",
".  c #7DCBDF",
"X  c #67C7E1",
"o  c #6AC7E1",
"O  c #67C9E4",
"+  c #6AC9E4",
"@  c #72CBE4",
"#  c #7BCEE5",
"$  c #7DD0E7",
"%  c #7FD1E8",
"&  c #84CDE1",
"*  c #83D2E7",
"=  c #8AD2E5",
"-  c #83D2E8",
";  c #8AD5E9",
":  c #94D2E3",
">  c #9BD7E6",
",  c #92D7E9",
"<  c #9AD7E8",
"1  c #93D9EB",
"2  c #9BDBEC",
"3  c #A6D8E6",
"4  c #ABDAE7",
"5  c #A4DDED",
"6  c #A8DFEE",
"7  c #B4DEEA",
"8  c #ACE0EE",
"9  c #B2E2EF",
"0  c #BCE2ED",
"q  c #ACE1F0",
"w  c #B6E5F1",
"e  c #BCE6F2",
"r  c #BFE8F3",
"t  c #C8E5ED",
"y  c #C0E6F1",
"u  c #C7EAF5",
"i  c #C6EAF4",
"p  c #C5E9F3",
"a  c #C9E8F0",
"s  c #CFEAF3",
"d  c #CFEBF3",
"f  c #C9EBF5",
"g  c #CAEBF5",
"h  c #CAECF5",
"j  c #CFEDF4",
"k  c #CEECF6",
"l  c #CFEDF6",
"z  c #CAEBF4",
"x  c #D5EBF1",
"c  c #D7EDF3",
"v  c #D0ECF4",
"b  c #D0EDF5",
"n  c #D3EDF4",
"m  c #D0EEF6",
"M  c #D3EFF6",
"N  c #D3EEF7",
"B  c #D5EFF6",
"V  c #D4EFF7",
"C  c #D5EFF7",
"Z  c #D2EEF7",
"A  c #DAEEF4",
"S  c #DAEFF5",
"D  c #D9F1F7",
"F  c #DCF0F6",
"G  c #DCF1F7",
"H  c #DDF2F7",
"J  c #DFF2F7",
"K  c #DAF0F6",
"L  c #D5F0F8",
"P  c #D7F0F8",
"I  c #D8F0F8",
"U  c #DAF1F8",
"Y  c #DAF1F9",
"T  c #DBF2F9",
"R  c #DFF2F8",
"E  c #DCF2F9",
"W  c #E7F3F6",
"Q  c #E6F4F7",
"!  c #E1F2F7",
"~  c #E0F3F8",
"^  c #E0F3FA",
"/  c #E2F4F8",
"(  c #E2F4FA",
")  c #E3F4FA",
"_  c #E3F5FA",
"`  c #E3F4FB",
"'  c #E3F5FB",
"]  c #E5F4F9",
"[  c #E4F5F9",
"{  c #E4F4FA",
"}  c #E4F5FB",
"|  c #E5F5FB",
" . c #E7F6FA",
".. c #E6F6FB",
"X. c #E7F6FB",
"o. c #E7F6FC",
"O. c #E4F5FB",
"+. c #EBF5F8",
"@. c #EBF6F9",
"#. c #E9F7FA",
"$. c #EDF6F9",
"%. c #ECF7FA",
"&. c #EBF7FB",
"*. c #EEF8FB",
"=. c #EFF9FC",
"-. c #EFF9FB",
";. c #F0F8FA",
":. c #F2F8FA",
">. c #F3F9FB",
",. c #F4F9FB",
"<. c #F1F9FC",
"1. c #F1FAFD",
"2. c #F4FBFD",
"3. c #F7FBFC",
"4. c #F7FCFE",
"5. c #F3FAFC",
"6. c #F8FBFC",
"7. c #F9FCFC",
"8. c #F8FCFD",
"9. c #F9FCFD",
"0. c #FAFDFD",
"q. c #F9FCFE",
"w. c #FAFDFE",
"e. c #FBFDFE",
"r. c #FCFEFE",
"t. c #FDFEFF",
"y. c #FEFEFF",
"u. c #FEFFFF",
"i. c white",
"p. c #FFFFFF",
/* pixels */
"@ @ @ + @ @   @ @   @   @ @   @ @ @ @ @ @ @ @ @ @ @ @ @ @ @ @ @ @ @ @ @ @ @ @ @ @ @ @ @ @ @ @ @ @ @ @ @ @ @ @ @ @ @ @ @ @ @ @ + ",
"O + + + + + + + + + + + + + + + + + O + O O + O + + O O + + o o O o + + o o O X + + o O O X + O o O O o O + o o o o + O o + + O ",
"+ + + + + + + + + + + + + + + + + + + + O @ O + + + O + + + + + O + + + + + O + + + + + O + + + + + O + + + + O O + + + + + + O ",
"+ + + + + + + + + + + + + + + + + + + + + + O + + + + + + + + + O + + + + + + + + + + + + + + + + + + + + + + @ O + + + + + + O ",
"O + + + + + + + + + + + + + + + + + + + + + + + + + + + + + + + + + + + + + + + + + + + + + + + + + + + + + + + + + + + + + + + ",
"O + + + + + + + + + + + + + + + + + + + + + + + + + + + + + + + + + + + + + + + + + + + + + + + + + + + + + + + + + + + + + + + ",
"+ + + + + + + + + + + + + + + + + + + + + + + + + + + + + + + + + + + + + + + + + + + + + + + + + + + + + + + + + + + + + + + + ",
"O + + + + + + + + + + + + + + + + + + + + + + + + + + + + + + + + + + + + + + + o + + + + + + + + + + + + + + + + + + + + + + O ",
"+ + + + + + + + + + + + + + + + + + + + + + + + + + + + + + + + + + + + + + + + + + + + + + + + + + + + + + + + + + + + + + + O ",
"O + + + + + + + + + + + + + + + + + + + + + O O + + + O + + + + + + + + + + + + + + + + + + + + + + + + + + + + + + + + + + + O ",
"+ + + + + + + + + + + + + + + + + + + + + + + @ @ @ @ @ + + + + + + + + + + + @ # o + o + + + + + + + + + + + + + + + + + + + + ",
"O + + + + + + + + + + + + + + + + + + + + + @ @ @ @ @ @ @ + + + + + + + + o 2 ! W a S 7   + + + + + + + + + + + + + + + + + + + ",
"O + + + + + + + + + + + + + + + + + + + O + $ O + O + @ @ + + + + + + + + * F u.u.u.u.9.3 o + + + + + + + + + + + + + + + + + + ",
"+ + + + + + + + + + + + + + + + + + + + + O @ $ @ @ @ @ + + + + + + + + * @.u.u.u.u.u.u.9.: O + + + + + + @ + + + + + + + + + O ",
"+ + + + + + + + + + + + O O + + O + + + + + + @ @ @ @ O + + + + + + + o * <.u.u.u.u.u.u.u.< X + + + @ + + + + + + + + + + + + + ",
"O + + + + + + + + + + @ % # * , % + + + + + + + O + + O + + + + + + + + + 2 y V u.u.x w 5 @ + + @ @ @ # + + + + + + + + + + + O ",
"+ + + + + + + + + + @ w T k T ( b ; O + + O + + + + + + $ @ O + + + + + + O O % q 6 + O + + + @ + + + @ # + + + + + + + + + + O ",
"+ + + + + + + + + @ 8 R ' o.' o.o.y # O + # $ + O O + 8 #.a @ + + + + + + + + + O + + + + + + % # + @ @ + + + + + + + + + + + + ",
"O + + + + + + + + 2 ) ) ' ' ' ' o.' V q w } o.b ; + + 5 M 0 @ O + + + + + + + + O O + + + + + + + @ @ + + + + + + + + + + + + O ",
"O + + + + + + + O 8 o.} ' ' ' ' o.) ' 1.u.u.u.u.) $ O + + + O O + + + + + + + + + O + + + + + + + + + + + + + + + + + + + + + O ",
"+ + + + + + + + + $ y x j ' } ) R ) ( 9.u.u.u.u.9.6 # + + + + + + + + + + + + + + + + + + + + + + + + + + + + + + + + + + + + + ",
"+ + + + + + + + + + @   # 0 F R *.;.3.u.u.u.u.u.u.u.D # + + + + + + + + + + + + + + + + + + + + + + + + + + + + + + + + + + + O ",
"O + + + + + + + + + + + O # F 9.u.u.u.u.u.u.u.u.u.u.u.2 + + + + + + + + + + + + + + + + + + + + + + + + + + + + + + + + + + + O ",
"O + + + + + + + + + + + + + b u.u.u.u.u.u.u.u.u.u.u.9.: X + + + + + + + + + + + + + + + + + + + + + + + + + + + + + + + + + O O ",
"O + + + + + + + + + + + + + ; A ,.+.;.u.u.u.u.:.,.,.7   + + + + + + + + + + + + + + + + + + + + + + + + + + + + + + + + + + + + ",
"O O + + + + + + + + @ + + + O @ & . > $.u.u.W : = &   + + + + + + + + + + + + + + + + + + + + + + + + + + + + + + + + + + + + O ",
"O + + + + + + + + - 1 - + + + O O O + & 4 4 & o + + + + + + + + + + + + + + + + + + + + + + + + + + + + + + + + + + + + + + + O ",
"O + + + + + + + # 1 1 ; @ + + + + + + + X X X + + + + + + + + + + + + + + + + + + + + + + + + + + + + + + + + + + + + + + + + + ",
"+ O + + + + + + O + # + + + + + + + + + + + + + + + + + + + + + + + + + + + + + + + + + + + + + + + + + + + + + + + + + + + + + ",
"+ + + + + + + + + + + + + + + + + + + + + + + + + + + + + + + + + + + + + + + + + + + + + + + + + + + + + + + + + + + + + + + + ",
"+ + + + + + + + + + + + + + + + + + + + + + + + + + + + + + + o + + + + + + + + + + + + + + + + + + + + + + + + + + + + + + + + ",
"+ + + + + + + + + + + + + + + + + + + + + + + + + + + + + + + + + + + + + + + + + + + + + + + + + + + + + + O + + + + + + + + + ",
"+ + + + + + + + + + + + + + + + + + @ + + + + + + + + + + + + + + + + + + + + + + + + + + + + + + + + + O @ 1 * + + + + + + + + ",
"+ + + + + + + + + + + + + + + + + + + + + + + + + + + + + + + + + + + + + + + + O O O + + + + + + + + + + 9 9.) $ + + + + + + O ",
"O + + + + + + + + + + + + + + + + + + + + + + + + + + + + + + + + + + + + + + + + O @ % % + + + + + + + + ; q 1 @ O + + + + + + ",
"+ + + + + + + + + + + + + + + + + + + + + + + + + + + + + + + + + + + + + + + + + 5 k T P w ; + $ @ + + + + + O + + + + + + + O ",
"O + + O + + + + + + + + + + + + + + + + + + + + + + + + + + + + + + + + + + + + , ( } } } o.b u P r ; O O + + + + + + + + + + O ",
"+ + + + + + + + + + + + + + + + + + + + + + + + + + + + + + + + + + + + + + - 5 i } ) ) ) ) o.o.' ..h @ + + + + + + + + + + + + ",
"O + + + + + + + + + + + + + + + + + + + + + + + + + + + + + + +   # # o o : N ` } ) ' ' ' ' ' ' ' ' R ; O + + + + + + + + + + O ",
"+ + + + + + + + + + + + + + + + + + + + + + + + + + + @ + O X & t $.+.0 0 :.6.6.9.2.o.' ' ' ' ' ' ' o.u * O + + + + + + + + O O ",
"O + + + + + + + + + + + + + + + + + + + + + + + + 5 f f 5 - & x e.y.y.y.u.u.u.u.u.u.9.{ } } ) ' ' ' ' o.u @ + + + + + + + + + O ",
"O + + + + + + + + + + + + + + + + + + + + + + # 2 E o.o.' j c 9.e.e.y.y.u.u.u.u.u.u.u.o.} } ) ' ' ' ' ' L % + + + + + + + + + O ",
"O + + + + + + + + + + + + + + + + + + + + + - f R ' ' ` A ( 9.u.u.u.y.y.u.u.u.u.u.u.y.$.o.} ' o.' ' ' ' l # + + + + + + + + + + ",
"O + + + + + + + + + + + + + + + + + + + + + 5 } o.' ' R R u.u.u.u.u.u.u.u.u.u.u.u.u.u.u.u.1.' P Y ' o.Y 2 O + + + + + + + + + O ",
"O + + + + + + + + + + + + + + + + + + + + O , R o.' o.R ;.u.u.u.u.u.u.u.u.u.u.u.u.u.u.u.u.u.u - ; 6 6 ; + + + + + + + + + + + + ",
"O + + + + + + + + + + + + + + + + + + + + + + 2 r m ' R 3.u.u.u.u.u.u.u.u.u.u.u.u.u.u.u.u.3.; O O + O O + + + + + + + + + + + O ",
"+ + + + + + + + + + + + + + + + + + O + + + + + + = C ( &.u.u.u.u.u.u.u.u.u.u.u.u.u.u.u.u.A @ + + + + + + + + + + + + + + + + + ",
"O + + + + @ + + + + + + + + + + + @ # + + + + + + + - 2 2 z 9.u.9.:.u.u.u.u.u.u.u.9.u.u.{ , + + + O + + + + + + + + + + + + + + ",
"+ + + + + + + + + + + + + + + + # , 1 % O O + + + + O O O + ; 5 , = A y.y.y.y.e.y , 6 5 * + + + O + O + + + + + + + + + + + O O ",
"O + + + + + + + + + + + + + + + # , , - + O + + + + + O O + + + O O # a <.q.:.y @ X o X + O + + + + + + + O + + + + + + + @ + O ",
"+ + + + + + + + + + + + + + + + + @ + + + + + + O O + @ O O + + + + O @ = , * + + + + + + + + + + + + + + @ + + + + + + + + + + ",
"O + + + + + + + + + + + + + + + + + + + + + + + @ @ # # $ + + + + + O O o O + + + + + + + + + + + + + + + + + + + + + + + + + O ",
"O + + + + + + + + + + + + + + + + + + + + + O @ @ + + + @ $ + + + + + + + + + + + + + + + + + + + + + + + + + + + + + + + + + + ",
"+ + + + + + + + + + + + + + + + + + + + + + + # # + + + @ + + + + + + + + + + + + + + + + + + + + + + + + + + + + + + + + + + O ",
"+ + + + + + + + + + + + + + + + @ + + + + + + + # # + @ @ + + + + + + + + + + + + + + + + + @ + + + + + + + + + + + + + + + + O ",
"+ + + + + + + + + + + + + + + + + + + + + + + + O + + @ + + + + @ + + + + + + + + + + + + + + + + + + + + + + + + + + + + + + + ",
"+ + + + + + + @ + + + + + + + + + + + + + + + + + + + + + + + + + + + + + + + + + + + + + + + + + + + + + + + + + + + + + + + + ",
"+ + + + + + + + + + + + + + + + + + + + + + + + + + + + + + + + + + + + + + + + + + + + + + + + + + + + + + + + + + + + + + + O ",
"+ + + + + + + + + + + + + + + + + + + + + O + + + + + + + + + + + + + + + + + + + + + + + + + + + + + + + + + + + + + + + + + + ",
"+ + + + + + + + + + + + + + + + + + + + @ o + + + + + + + + + + + + + + + + + + + + + + + + + + + + + + + + + + + + + + + + + + ",
"O + + + + + + + + + + + + + + + + + + + + + + + + + + + + + + + + + + + + + + + + + + + + + + + + + + + + + + + + + + + + + + + ",
"O + + + + + + + + + + + + + + + + + + + + + + + + + + + + + + + + + + + + + + + + + + + + + + + + + + + + + + + + + + + + + + + ",
"+ + + + + + + + + + + + + + + + + + + + + + + + @ + + + + + + + + + + + + + + + + + + + + + + + + + + + + + + + + + + + + + + + ",
"O + + + + + + + + + + + + + + + + + + + + + + O o + + + o + + + + + + + + + + + + + + + + + + + + + + + + + + + + + + + + + + O "
};
